<svg width="124" height="109" viewBox="0 0 124 109" fill="none" xmlns="http://www.w3.org/2000/svg">
<path d="M117.829 108.998H6.24596C5.18959 109.028 4.14467 108.772 3.22135 108.258C2.29803 107.744 1.53054 106.99 0.999728 106.076C0.468942 105.163 0.194505 104.122 0.20539 103.066C0.216252 102.009 0.512034 100.975 1.06154 100.072L56.9354 3.24718C57.4525 2.35165 58.1963 1.60801 59.0917 1.09098C59.9875 0.573951 61.0032 0.301758 62.0374 0.301758C63.0714 0.301758 64.0874 0.573951 64.9829 1.09098C65.8786 1.60801 66.6222 2.35165 67.1393 3.24718L123.013 100.072C123.563 100.975 123.858 102.009 123.869 103.066C123.88 104.122 123.606 105.163 123.075 106.076C122.544 106.99 121.777 107.744 120.853 108.258C119.93 108.772 118.885 109.028 117.829 108.998Z" fill="url(#paint0_linear_1168_211)"/>
<g opacity="0.5">
<path d="M117.829 108.998H6.24596C5.18959 109.028 4.14467 108.772 3.22135 108.258C2.29803 107.744 1.53054 106.99 0.999728 106.076C0.468942 105.163 0.194505 104.122 0.20539 103.066C0.216252 102.009 0.512034 100.975 1.06154 100.072L56.9354 3.24718C57.4525 2.35165 58.1963 1.60801 59.0917 1.09098C59.9875 0.573951 61.0032 0.301758 62.0374 0.301758C63.0714 0.301758 64.0874 0.573951 64.9829 1.09098C65.8786 1.60801 66.6222 2.35165 67.1393 3.24718L123.013 100.072C123.563 100.975 123.858 102.009 123.869 103.066C123.88 104.122 123.606 105.163 123.075 106.076C122.544 106.99 121.777 107.744 120.853 108.258C119.93 108.772 118.885 109.028 117.829 108.998Z" fill="url(#paint1_linear_1168_211)"/>
<path d="M117.829 108.998H6.24596C5.18959 109.028 4.14467 108.772 3.22135 108.258C2.29803 107.744 1.53054 106.99 0.999728 106.076C0.468942 105.163 0.194505 104.122 0.20539 103.066C0.216252 102.009 0.512034 100.975 1.06154 100.072L56.9354 3.24718C57.4525 2.35165 58.1963 1.60801 59.0917 1.09098C59.9875 0.573951 61.0032 0.301758 62.0374 0.301758C63.0714 0.301758 64.0874 0.573951 64.9829 1.09098C65.8786 1.60801 66.6222 2.35165 67.1393 3.24718L123.013 100.072C123.563 100.975 123.858 102.009 123.869 103.066C123.88 104.122 123.606 105.163 123.075 106.076C122.544 106.99 121.777 107.744 120.853 108.258C119.93 108.772 118.885 109.028 117.829 108.998Z" fill="url(#paint2_linear_1168_211)"/>
<path d="M117.829 108.998H6.24596C5.18959 109.028 4.14467 108.772 3.22135 108.258C2.29803 107.744 1.53054 106.99 0.999728 106.076C0.468942 105.163 0.194505 104.122 0.20539 103.066C0.216252 102.009 0.512034 100.975 1.06154 100.072L56.9354 3.24718C57.4525 2.35165 58.1963 1.60801 59.0917 1.09098C59.9875 0.573951 61.0032 0.301758 62.0374 0.301758C63.0714 0.301758 64.0874 0.573951 64.9829 1.09098C65.8786 1.60801 66.6222 2.35165 67.1393 3.24718L123.013 100.072C123.563 100.975 123.858 102.009 123.869 103.066C123.88 104.122 123.606 105.163 123.075 106.076C122.544 106.99 121.777 107.744 120.853 108.258C119.93 108.772 118.885 109.028 117.829 108.998Z" fill="url(#paint3_linear_1168_211)"/>
</g>
<path d="M67.9302 88.378C67.9302 89.5432 67.5846 90.6822 66.9373 91.6511C66.2901 92.62 65.3699 93.375 64.2933 93.8209C63.2169 94.2669 62.0323 94.3836 60.8895 94.1562C59.7467 93.9289 58.697 93.3678 57.8729 92.5439C57.049 91.7198 56.4879 90.6701 56.2606 89.5273C56.0334 88.3845 56.1499 87.1999 56.5959 86.1235C57.0418 85.0469 57.7968 84.1267 58.7657 83.4795C59.7346 82.8322 60.8736 82.4866 62.0388 82.4866C63.6014 82.4866 65.0999 83.1074 66.2048 84.212C67.3095 85.3169 67.9302 86.8155 67.9302 88.378ZM64.7666 35.3555H59.3111C58.906 35.3544 58.5051 35.4369 58.1335 35.5979C57.7616 35.7588 57.4272 35.9947 57.1507 36.2909C56.8742 36.5869 56.6619 36.9368 56.5268 37.3188C56.3916 37.7006 56.3367 38.1064 56.3654 38.5103L58.8898 73.8587C58.9428 74.6031 59.2765 75.2998 59.8232 75.8077C60.37 76.3155 61.0893 76.597 61.8355 76.5952H62.2422C62.9884 76.597 63.7077 76.3155 64.2545 75.8077C64.8012 75.2998 65.1349 74.6031 65.1879 73.8587L67.7123 38.5103C67.741 38.1064 67.6861 37.7006 67.5509 37.3188C67.4158 36.9368 67.2035 36.5869 66.927 36.2909C66.6505 35.9947 66.3161 35.7588 65.9442 35.5979C65.5726 35.4369 65.1717 35.3544 64.7666 35.3555Z" fill="url(#paint4_linear_1168_211)"/>
<defs>
<linearGradient id="paint0_linear_1168_211" x1="62.0374" y1="0.304429" x2="62.0374" y2="108.998" gradientUnits="userSpaceOnUse">
<stop stop-color="#FFD782"/>
<stop offset="0.161" stop-color="#FED57C"/>
<stop offset="0.372" stop-color="#FCCE6C"/>
<stop offset="0.61" stop-color="#F9C351"/>
<stop offset="0.867" stop-color="#F4B42B"/>
<stop offset="1" stop-color="#F1AB15"/>
</linearGradient>
<linearGradient id="paint1_linear_1168_211" x1="62.0374" y1="0.304429" x2="62.0374" y2="108.998" gradientUnits="userSpaceOnUse">
<stop stop-color="#FFD375" stop-opacity="0"/>
<stop offset="0.382" stop-color="#FFD374" stop-opacity="0.01"/>
<stop offset="0.52" stop-color="#FED171" stop-opacity="0.039"/>
<stop offset="0.619" stop-color="#FCCE6B" stop-opacity="0.092"/>
<stop offset="0.698" stop-color="#FACA63" stop-opacity="0.167"/>
<stop offset="0.766" stop-color="#F7C458" stop-opacity="0.265"/>
<stop offset="0.826" stop-color="#F3BD4A" stop-opacity="0.387"/>
<stop offset="0.881" stop-color="#EFB53B" stop-opacity="0.531"/>
<stop offset="0.931" stop-color="#E9AC28" stop-opacity="0.7"/>
<stop offset="0.975" stop-color="#E4A214" stop-opacity="0.884"/>
<stop offset="1" stop-color="#E09B07"/>
</linearGradient>
<linearGradient id="paint2_linear_1168_211" x1="1.90105" y1="107.575" x2="95.8922" y2="51.1" gradientUnits="userSpaceOnUse">
<stop stop-color="#FFD375" stop-opacity="0"/>
<stop offset="0.382" stop-color="#FFD374" stop-opacity="0.01"/>
<stop offset="0.52" stop-color="#FED171" stop-opacity="0.039"/>
<stop offset="0.619" stop-color="#FCCE6B" stop-opacity="0.092"/>
<stop offset="0.698" stop-color="#FACA63" stop-opacity="0.167"/>
<stop offset="0.766" stop-color="#F7C458" stop-opacity="0.265"/>
<stop offset="0.826" stop-color="#F3BD4A" stop-opacity="0.387"/>
<stop offset="0.881" stop-color="#EFB53B" stop-opacity="0.531"/>
<stop offset="0.931" stop-color="#E9AC28" stop-opacity="0.7"/>
<stop offset="0.975" stop-color="#E4A214" stop-opacity="0.884"/>
<stop offset="1" stop-color="#E09B07"/>
</linearGradient>
<linearGradient id="paint3_linear_1168_211" x1="120.171" y1="110.553" x2="26.6743" y2="49.8362" gradientUnits="userSpaceOnUse">
<stop stop-color="#FFD375" stop-opacity="0"/>
<stop offset="0.382" stop-color="#FFD374" stop-opacity="0.01"/>
<stop offset="0.52" stop-color="#FED171" stop-opacity="0.039"/>
<stop offset="0.619" stop-color="#FCCE6B" stop-opacity="0.092"/>
<stop offset="0.698" stop-color="#FACA63" stop-opacity="0.167"/>
<stop offset="0.766" stop-color="#F7C458" stop-opacity="0.265"/>
<stop offset="0.826" stop-color="#F3BD4A" stop-opacity="0.387"/>
<stop offset="0.881" stop-color="#EFB53B" stop-opacity="0.531"/>
<stop offset="0.931" stop-color="#E9AC28" stop-opacity="0.7"/>
<stop offset="0.975" stop-color="#E4A214" stop-opacity="0.884"/>
<stop offset="1" stop-color="#E09B07"/>
</linearGradient>
<linearGradient id="paint4_linear_1168_211" x1="62.0388" y1="35.3555" x2="62.0388" y2="94.2693" gradientUnits="userSpaceOnUse">
<stop stop-color="#4A4A4A"/>
<stop offset="1" stop-color="#212121"/>
</linearGradient>
</defs>
</svg>
