<svg width="21" height="16" viewBox="0 0 21 16" fill="none" xmlns="http://www.w3.org/2000/svg">
<g clip-path="url(#clip0_104_36)">
<path d="M17.2054 1.42491C15.91 0.820864 14.5209 0.375831 13.0685 0.120942C13.042 0.116023 13.0156 0.128317 13.002 0.152904C12.8233 0.475816 12.6254 0.897082 12.4868 1.22819C10.9247 0.990522 9.37051 0.990522 7.84038 1.22819C7.70177 0.889722 7.4967 0.475816 7.31724 0.152904C7.30362 0.129137 7.27719 0.116843 7.25074 0.120942C5.79913 0.375016 4.41001 0.820049 3.1138 1.42491C3.10258 1.42982 3.09296 1.43803 3.08658 1.44867C0.451701 5.44908 -0.270102 9.35116 0.0839904 13.2049C0.0855926 13.2237 0.0960069 13.2417 0.110427 13.2532C1.84884 14.5506 3.5328 15.3382 5.18548 15.8603C5.21193 15.8685 5.23995 15.8587 5.25679 15.8365C5.64773 15.294 5.99622 14.7219 6.29502 14.1203C6.31265 14.0851 6.29582 14.0433 6.25978 14.0294C5.70701 13.8163 5.18067 13.5565 4.67437 13.2614C4.63432 13.2376 4.63111 13.1794 4.66795 13.1516C4.7745 13.0704 4.88107 12.986 4.98281 12.9008C5.00121 12.8852 5.02686 12.8819 5.0485 12.8918C8.37471 14.4351 11.9757 14.4351 15.2627 12.8918C15.2843 12.8811 15.31 12.8844 15.3292 12.9C15.4309 12.9852 15.5375 13.0704 15.6448 13.1516C15.6817 13.1794 15.6793 13.2376 15.6392 13.2614C15.1329 13.5622 14.6066 13.8163 14.053 14.0285C14.017 14.0425 14.0009 14.0851 14.0186 14.1203C14.3238 14.7211 14.6723 15.2932 15.056 15.8357C15.072 15.8587 15.1009 15.8685 15.1273 15.8603C16.788 15.3382 18.4719 14.5506 20.2104 13.2532C20.2256 13.2417 20.2352 13.2245 20.2368 13.2057C20.6606 8.75038 19.527 4.8803 17.2318 1.44949C17.2262 1.43803 17.2166 1.42982 17.2054 1.42491ZM6.79173 10.8584C5.79031 10.8584 4.96518 9.92405 4.96518 8.77662C4.96518 7.62918 5.77431 6.69487 6.79173 6.69487C7.81714 6.69487 8.63429 7.63739 8.61826 8.77662C8.61826 9.92405 7.80912 10.8584 6.79173 10.8584ZM13.5451 10.8584C12.5437 10.8584 11.7186 9.92405 11.7186 8.77662C11.7186 7.62918 12.5277 6.69487 13.5451 6.69487C14.5705 6.69487 15.3877 7.63739 15.3717 8.77662C15.3717 9.92405 14.5705 10.8584 13.5451 10.8584Z" fill="white"/>
</g>
<defs>
<clipPath id="clip0_104_36">
<rect width="20.3243" height="16" fill="white"/>
</clipPath>
</defs>
</svg>
