<svg width="88" height="40" viewBox="0 0 88 40" fill="none" xmlns="http://www.w3.org/2000/svg">
<path d="M37.5118 0.129512C37.2938 0.347465 37.3512 0.703071 37.7183 1.23074C38.1886 1.94196 38.4409 2.77935 38.3836 3.44468C38.3033 4.19031 37.7871 4.93593 36.0664 6.74838C32.4071 10.6027 31.1223 12.3578 30.1932 14.6979C28.7707 18.2999 29.4475 22.6015 31.9368 25.6529C34.3687 28.6469 38.2689 30.2758 42.9835 30.2758C45.966 30.2643 48.5815 29.7022 50.9331 28.5551C54.3744 26.8573 56.7145 24.3107 57.724 21.1447C59.5479 15.3976 57.1045 9.18027 51.369 4.95888C47.9505 2.44669 44.0389 0.875139 39.4504 0.163926C38.1312 -0.0425553 37.6953 -0.0540265 37.5118 0.129512ZM42.5247 2.98583C49.4647 4.94741 54.4776 9.27204 55.7624 14.4455C56.2442 16.3383 56.1754 18.9422 55.6248 20.5941C54.4318 24.1502 51.4607 26.605 47.0443 27.7177C45.9202 28.0045 45.6104 28.0274 43.6833 28.0389C41.7217 28.0389 41.4693 28.0159 40.3566 27.7177C38.8998 27.3277 37.3397 26.605 36.3761 25.8708C35.642 25.3087 35.5043 25.1137 35.8485 25.1137C35.9517 25.1137 36.1582 24.999 36.3073 24.8614L36.5711 24.6205L37.833 25.217C39.7028 26.0888 40.9761 26.4903 41.9167 26.4903C42.3526 26.5017 42.9147 26.5706 43.1671 26.6623C43.4194 26.7541 43.8898 26.8344 44.2224 26.8344C44.8533 26.8344 45.9775 26.4788 46.2643 26.1805C46.6199 25.8364 46.4019 25.7561 45.1516 25.7905C43.9586 25.8135 43.9356 25.8135 43.8783 25.5382C43.8324 25.389 43.6718 25.2055 43.5227 25.1367C43.3162 25.0449 43.2588 24.9531 43.3047 24.7811C43.3506 24.609 43.2818 24.5058 43.0638 24.414C42.8803 24.3222 42.7312 24.1272 42.6623 23.8978C42.605 23.6913 42.3182 23.2325 42.0314 22.8768C41.4579 22.1656 41.4349 22.0968 41.6758 21.6724C42.02 21.0759 41.7676 20.227 41.0678 19.5732C40.8728 19.3896 40.5861 19.1258 40.4255 18.9767C40.1731 18.7472 40.1272 18.5981 40.1272 18.0819C40.1272 17.3133 39.8748 17.0266 39.2095 17.038C38.7507 17.0495 37.5118 17.5772 36.8923 18.0131C36.6973 18.1507 36.2844 18.4031 35.9746 18.5752C35.4355 18.8734 35.3896 18.8849 34.9308 18.7243C34.3572 18.5293 33.9328 18.6096 33.9328 18.9193C33.9328 19.3323 32.7742 19.5732 32.6251 19.1946C32.5906 19.0914 32.5562 18.4834 32.5562 17.8295V16.6365L33.256 16.2695C33.646 16.063 34.0704 15.7533 34.1966 15.5697C34.4031 15.2829 34.449 15.2715 34.6669 15.4206C35.034 15.6844 35.2749 15.6271 35.4126 15.237C35.5043 14.9732 35.5043 14.7438 35.4126 14.4111C35.3093 14.044 35.3323 13.8605 35.4814 13.4475C35.6076 13.1264 35.6534 12.7593 35.619 12.4954C35.5617 12.0825 35.5846 12.0481 35.8599 12.0136C36.1582 11.9792 36.1926 11.9334 36.5138 11.1648C36.6744 10.7518 36.8235 10.6256 37.443 10.3274C37.8444 10.1324 38.2 9.97178 38.2345 9.97178C38.4295 9.97178 38.2115 10.3044 37.5577 10.9927C36.7088 11.8989 36.5941 12.1628 36.8579 12.5643C37.1906 13.0805 37.3397 13.0346 38.1427 12.2201C38.7163 11.6351 39.1407 11.3368 39.8634 10.9927L40.8155 10.5339V8.79025C40.8155 7.82667 40.7352 6.50748 40.6434 5.84216C40.5287 4.95888 40.5172 4.5115 40.609 4.15589C40.6778 3.84617 40.6893 3.50204 40.609 3.1579C40.5516 2.87112 40.5287 2.61876 40.5516 2.58434C40.6434 2.50405 41.1826 2.61876 42.5247 2.98583Z" fill="white"/>
<path d="M45.4727 6.75991C45.3695 7.01227 45.2892 7.34494 45.2892 7.49406C45.2892 7.86114 45.0827 8.01027 44.4174 8.09057C43.5456 8.20528 43.4194 8.30852 43.4997 8.82472C43.5456 9.12297 43.5226 9.29504 43.4079 9.39828C43.0982 9.65065 43.3276 9.85713 43.9241 9.85713C44.4518 9.85713 44.6353 9.98331 44.36 10.1439C44.2912 10.1898 44.2683 10.3045 44.3027 10.3963C44.3371 10.488 44.2683 10.6945 44.1421 10.8551C44.0159 11.0157 43.9127 11.2337 43.9127 11.3484C43.9127 11.4516 43.7865 11.6581 43.6259 11.8072C43.2703 12.1399 43.2703 12.1858 43.6029 12.3234C43.7521 12.3923 43.8668 12.5643 43.8897 12.7364C43.9241 13.0117 43.8782 13.0461 43.4079 13.1149C42.7426 13.2182 42.582 13.4132 42.7197 13.9638C42.8229 14.3653 42.8458 14.3882 43.2473 14.3653C43.4768 14.3538 43.8438 14.2621 44.0618 14.1703C44.4059 14.0326 44.4862 13.9179 44.6468 13.3902C44.8533 12.6561 45.1974 12.3005 45.748 12.2431C46.0578 12.2202 46.161 12.1514 46.1839 11.9449C46.2413 11.5434 46.7346 11.6237 47.744 12.2202C48.6503 12.7593 49.0747 12.8167 48.8453 12.3923C48.7879 12.2661 48.7305 12.1399 48.7305 12.1055C48.7305 11.9793 49.132 12.0481 49.35 12.2087C49.5335 12.3464 49.6138 12.3464 50.0038 12.1169C50.4283 11.8761 50.4398 11.8761 50.6692 12.0825C50.8068 12.2087 50.9101 12.4037 50.9101 12.5184C50.9101 12.8282 50.2906 13.4132 49.9694 13.4132C49.5335 13.4132 49.1894 13.5394 49.1894 13.7C49.1894 14.0785 48.8682 14.1932 47.9046 14.1818C47.0099 14.1588 46.9525 14.1473 46.9181 13.895C46.8607 13.4935 46.5281 13.5738 45.0368 14.3538C43.3735 15.2256 43.2244 15.3518 43.2244 15.9139C43.2244 16.2695 43.1441 16.4301 42.7655 16.7742C42.2264 17.2904 42.1117 17.7493 42.2952 18.6555C42.364 19.0111 42.4214 19.4585 42.4214 19.6535C42.4214 19.8829 42.5017 20.0665 42.6508 20.1582C42.777 20.2385 42.8802 20.3762 42.8802 20.468C42.8802 20.64 43.5112 21.0071 44.2912 21.2824C44.9221 21.5004 46.1266 21.3054 47.2852 20.7892C48.742 20.1353 49.5335 20.1697 49.5335 20.8924C49.5335 21.0301 49.7974 21.4086 50.1071 21.7413C50.4283 22.0739 50.6806 22.4066 50.6806 22.4754C50.6806 22.5442 50.6118 22.7737 50.5201 22.9802C50.3824 23.3128 50.3824 23.4161 50.5659 23.8634C50.6806 24.1387 50.8068 24.4599 50.8412 24.5632C50.8757 24.6894 51.0133 24.7697 51.2083 24.7697C51.5754 24.7697 52.7569 23.634 53.3649 22.6704C54.3285 21.1562 54.902 18.9308 54.7644 17.1413C54.6611 15.8451 54.5579 15.5239 54.2482 15.5698C53.9155 15.6042 52.9061 15.0536 52.1031 14.3997C51.7589 14.1129 51.3804 13.8491 51.2542 13.8147C50.933 13.7114 50.9674 13.5394 51.323 13.4132C51.7016 13.2641 52.3096 13.5967 53.2617 14.4571C54.0761 15.2027 54.1794 15.1339 54.1794 13.8262C54.1794 13.0461 54.1335 12.8167 53.9614 12.6217C53.7205 12.3578 53.3649 12.3005 53.2846 12.5184C53.2502 12.6332 53.147 12.5987 52.9175 12.4267C52.4472 12.094 52.4472 11.9449 52.8831 11.899C53.4337 11.8531 53.4337 11.4975 52.8831 10.7404C52.321 9.99478 51.1395 8.76736 50.5086 8.28558C49.4647 7.49406 47.3999 6.59931 46.0807 6.36989C45.6792 6.30106 45.6563 6.31253 45.4727 6.75991Z" fill="white"/>
<path d="M31.5467 33.8204C30.7782 34.0842 30.1817 34.566 29.7457 35.2658C29.436 35.7705 29.4016 35.9196 29.4016 36.7455C29.4016 37.8697 29.631 38.3859 30.4455 39.0971C31.1223 39.6936 32.3153 40.0951 33.0839 39.9804C33.8295 39.8772 34.7357 39.6019 35.1716 39.338C35.5157 39.1201 35.5387 39.0742 35.5387 38.4089C35.5387 38.0303 35.5043 37.7321 35.4584 37.755C34.816 38.0762 34.1163 38.34 33.5198 38.4892C32.8659 38.6612 32.7512 38.6612 32.235 38.4892C31.1452 38.1221 30.5487 37.0094 30.9961 36.1376C31.2485 35.6443 31.9253 35.1166 32.3956 35.0249C32.9691 34.9216 34.1736 35.1511 34.8619 35.4952C35.1716 35.6558 35.4469 35.782 35.4813 35.782C35.5157 35.782 35.5387 35.4722 35.5387 35.0937C35.5387 34.4169 35.5387 34.4054 35.0798 34.176C33.9557 33.6024 32.5791 33.4648 31.5467 33.8204Z" fill="white"/>
<path d="M39.8977 33.7515C38.785 34.0612 37.8903 34.8872 37.5691 35.9081C37.3167 36.6767 37.3282 37.0208 37.615 37.8008C38.2115 39.3953 40.1386 40.336 41.802 39.8542C42.7655 39.5789 43.4882 39.0856 43.9356 38.3859C44.2912 37.8353 44.3141 37.732 44.3141 36.8143C44.3141 35.9081 44.2797 35.7704 43.97 35.2657C43.5685 34.6119 42.8344 34.0154 42.2149 33.8318C41.5381 33.6253 40.4598 33.5909 39.8977 33.7515ZM42.0314 35.3345C42.4902 35.6099 42.8802 36.2981 42.8802 36.8143C42.8802 37.5485 42.2149 38.317 41.389 38.535C40.7466 38.7071 40.0927 38.5121 39.5192 37.9729C39.1177 37.5944 39.0489 37.4682 39.0145 36.9176C38.9456 36.1375 39.2554 35.6213 40.0125 35.2313C40.6319 34.9101 41.4119 34.9445 42.0314 35.3345Z" fill="white"/>
<path d="M67.5089 33.7286C66.2126 34.0383 65.1573 35.151 64.9508 36.4473C64.7558 37.6747 65.7652 39.1659 67.1418 39.6821C68.3462 40.141 70.0096 39.9689 71.0076 39.3036L71.3861 39.0397L71.4205 37.8697L71.4549 36.6996H70.6978H69.9522V37.5026C69.9522 38.2826 69.9407 38.3056 69.5851 38.4891C69.0345 38.7759 67.9333 38.6727 67.3253 38.2712C66.052 37.4223 66.1667 35.8622 67.5662 35.1625C67.8989 35.0019 68.3233 34.8642 68.5068 34.8642C68.8969 34.8642 70.1013 35.1854 70.7896 35.4722L71.214 35.6557V34.9904V34.3251L70.6749 34.0842C69.6654 33.6368 68.461 33.4992 67.5089 33.7286Z" fill="white"/>
<path d="M0.00101958 33.8204C0.0239619 33.8663 0.723704 35.2658 1.57257 36.9176C2.995 39.7051 3.12118 39.9116 3.40796 39.9116C3.69474 39.9116 3.83239 39.6937 5.28923 36.8947C6.14957 35.2314 6.86078 33.8434 6.86078 33.7975C6.86078 33.7401 6.45929 33.7172 5.9775 33.7401L5.10569 33.7745L4.34859 35.4264C3.92416 36.3441 3.53414 37.1012 3.46531 37.1241C3.39649 37.1471 2.97205 36.39 2.51321 35.4379L1.68728 33.7172H0.815473C0.345155 33.7172 -0.0219228 33.7631 0.00101958 33.8204Z" fill="white"/>
<path d="M12.5619 36.8143C14.099 39.8312 14.1564 39.9115 14.4661 39.8886C14.7644 39.8542 14.8676 39.705 15.5444 38.4203C15.9459 37.6288 16.6686 36.2522 17.1504 35.346L18.0107 33.7056L17.0701 33.74L16.1409 33.7745L15.3838 35.4607C14.9594 36.4014 14.5694 37.1584 14.5005 37.1584C14.4317 37.147 14.0073 36.3784 13.5484 35.4378L12.7225 33.7171H11.8507H10.9904L12.5619 36.8143Z" fill="white"/>
<path d="M20.7408 34.2563C18.9055 37.778 17.873 39.7854 17.873 39.8428C17.873 39.8772 18.2057 39.9116 18.6187 39.9116H19.3643L19.674 39.2807L19.9837 38.6383L21.3718 38.6727L22.7483 38.7071L23.0695 39.3036L23.3907 39.9116H24.1363C24.5378 39.9116 24.8705 39.8657 24.8705 39.8199C24.8705 39.774 24.3543 38.753 23.7233 37.56C23.0924 36.3556 22.3812 35.002 22.1518 34.5546C21.7618 33.7975 21.6815 33.7172 21.3718 33.7172C21.0735 33.7172 20.9817 33.7975 20.7408 34.2563ZM21.7159 36.6997C21.8765 37.0209 21.9797 37.3306 21.9453 37.388C21.8535 37.5486 20.89 37.5371 20.7867 37.3765C20.7064 37.2388 21.1882 36.1261 21.3373 36.1261C21.3832 36.1261 21.5553 36.39 21.7159 36.6997Z" fill="white"/>
<path d="M46.2069 36.8144V39.9116H46.9525H47.6982V38.1909C47.6982 37.2388 47.7326 36.4703 47.7899 36.4703C47.8358 36.4703 48.0767 36.6653 48.3291 36.8947C50.3939 38.7645 51.8278 39.9116 52.1031 39.9116H52.4013V36.8144V33.7172H51.6557H50.9216L50.8871 35.4952L50.8527 37.2847L49.5335 36.1147C48.8109 35.4723 47.9161 34.6693 47.5605 34.3366C47.0672 33.8663 46.8264 33.7172 46.5625 33.7172H46.2069V36.8144Z" fill="white"/>
<path d="M59.892 34.6693C59.6282 35.1855 58.917 36.5506 58.309 37.6977C57.7125 38.8448 57.2192 39.8084 57.2192 39.8428C57.2192 39.8772 57.5519 39.9116 57.9534 39.9116H58.6875L59.0432 39.2807L59.3988 38.6498H60.7524H62.106L62.4157 39.2807L62.7254 39.9116H63.4825C64.0561 39.9116 64.2281 39.8772 64.1937 39.751C64.1708 39.6707 63.471 38.2712 62.6222 36.6538C61.108 33.786 61.0736 33.7172 60.7294 33.7172C60.3968 33.7172 60.3394 33.786 59.892 34.6693ZM61.085 36.7112C61.4636 37.4568 61.4406 37.5027 60.7179 37.5027C60.2362 37.5027 60.087 37.4568 60.087 37.3306C60.087 37.0553 60.5803 36.1147 60.7065 36.1605C60.7753 36.1835 60.9359 36.4244 61.085 36.7112Z" fill="white"/>
<path d="M73.5083 35.6099C73.5083 37.7779 73.6689 38.4318 74.3801 39.143C75.4813 40.2327 77.7756 40.2213 78.8539 39.1086C79.588 38.3515 79.6913 37.95 79.6913 35.6902L79.7027 33.7171H78.9571H78.2115V35.4951C78.2115 37.4452 78.1197 37.8582 77.592 38.2712C77.0988 38.6612 76.5482 38.7071 75.9402 38.3973C75.1028 37.9844 74.9996 37.6861 74.9996 35.5181V33.7171H74.2539H73.5083V35.6099Z" fill="white"/>
<path d="M82.3411 36.7112C81.4923 38.3515 80.7811 39.7396 80.7581 39.8084C80.7352 39.8657 81.0564 39.9116 81.5037 39.9116H82.2953L82.605 39.2807L82.9147 38.6498H84.2683H85.6219L85.9316 39.2807L86.2413 39.9116H87.0558H87.8702L87.1476 38.5695C86.7575 37.8239 86.0349 36.4244 85.5301 35.4608C84.6468 33.7631 84.601 33.7172 84.2568 33.7172C83.8897 33.7287 83.8668 33.7631 82.3411 36.7112ZM84.6124 36.6423C84.991 37.4224 84.9566 37.5027 84.3027 37.5027C83.9815 37.5027 83.7062 37.4568 83.6603 37.3994C83.5571 37.2274 84.0962 36.1261 84.2798 36.1261C84.3256 36.1261 84.4748 36.3556 84.6124 36.6423Z" fill="white"/>
<path d="M8.35205 36.8718V39.9116H8.98297H9.61388V36.8718V33.8319H8.98297H8.35205V36.8718Z" fill="white"/>
</svg>
