<svg width="284" height="40" viewBox="0 0 284 40" fill="none" xmlns="http://www.w3.org/2000/svg">
<path d="M263.075 17.7415L266.31 9.99797H267.437L270.541 17.7415H269.422L268.573 15.7811H264.897L264.064 17.7415H263.083H263.075ZM265.469 14.7846H268.426L267.021 10.9864L265.469 14.7846V14.7846ZM272.934 17.7415H271.954V12.3913H272.934V13.3715C273.073 12.6772 273.776 12.2524 274.486 12.2524H274.764V13.2326H274.339C273.073 13.2326 272.787 13.9433 272.787 15.0705L272.934 17.7415V17.7415ZM276.316 12.3913V11.2641L277.296 10.9782V12.3831H278.562V13.2326H277.296V16.7613C277.296 17.1697 277.582 17.3331 277.999 17.3331H278.571V18.1662H277.157C276.888 18.1662 276.749 18.0274 276.602 17.8885C276.463 17.6026 276.324 17.6026 276.324 16.9083V13.0938H275.344V12.3913H276.324H276.316ZM246.175 14.3762C246.175 13.3796 246.175 12.8242 245.048 12.8242C244.476 12.8242 244.068 13.0938 244.068 13.6574H242.924C242.924 12.5301 243.921 12.1054 245.048 12.1054C246.175 12.1054 247.302 12.3913 247.302 13.9433V17.6026H246.175V16.9002C245.889 17.5945 245.195 17.8804 244.484 17.8804C243.504 17.8804 242.663 17.3086 242.663 16.3284C242.663 14.7764 244.068 14.368 245.334 14.368H246.183L246.175 14.3762ZM245.048 15.2093C244.476 15.2093 243.643 15.4952 243.643 16.1895C243.643 16.7613 244.051 17.1697 244.484 17.1697H244.631C245.897 17.1697 246.044 16.1895 246.044 15.0705L245.064 15.2093H245.048ZM249.835 13.0938C250.12 12.522 250.815 12.1136 251.525 12.1136C252.506 11.9747 253.486 12.6853 253.649 13.8044V17.7415H252.653V14.368C252.653 13.5103 252.244 12.9467 251.395 12.9467C250.97 12.9467 250.692 13.0856 250.414 13.3715C250.267 13.5103 249.982 13.7962 249.982 14.7764V17.7333H249.001V12.2524H249.982L249.843 13.0938H249.835ZM259.13 9.99797H260.11V17.8885H259.13V16.9083C258.705 17.6026 258.003 18.0274 257.3 17.8885C255.748 17.8885 255.046 16.4754 255.046 15.0705C255.046 13.6574 255.748 12.2524 257.439 12.2524C258.142 12.2524 258.852 12.5301 259.13 13.0938V9.98982V9.99797ZM257.578 17.1861C258.852 17.1861 259.13 16.0588 259.13 15.0623C259.13 14.0821 258.705 12.9549 257.578 12.9549C256.459 12.9549 256.026 14.0821 256.026 15.0786C256.026 16.0588 256.459 17.1779 257.578 17.1779V17.1861ZM281.527 12.1136C282.508 12.1136 283.635 12.522 283.635 13.8044H282.508C282.508 13.0938 282.083 12.9549 281.38 12.9549C280.678 12.9549 280.4 13.2408 280.4 13.8044C280.4 14.3762 281.38 14.5069 281.666 14.5069C282.646 14.7846 283.627 14.9316 283.627 16.1977C283.627 17.4638 282.369 17.8885 281.242 17.8885C280.123 17.8885 279.134 17.3168 279.134 16.0588H280.261C280.261 16.6143 280.686 17.039 281.242 17.039H281.389C281.96 17.039 282.655 16.7613 282.655 16.0588C282.655 14.7846 279.42 15.7729 279.42 13.6574C279.42 12.6772 280.547 12.1054 281.544 12.1054L281.527 12.1136ZM93.0937 14.6457C93.0937 16.3366 91.6806 17.7497 89.9897 17.7497C88.2989 17.7497 86.8858 16.3366 86.8858 14.6457V9.98982H88.0294V14.9316C88.0294 16.0588 89.0096 17.039 90.1286 17.039C91.2558 17.039 92.2524 16.0588 92.2524 14.9316V9.99797H93.3714L93.1018 14.6539L93.0937 14.6457ZM95.8954 13.0938C96.1895 12.522 96.8919 12.1136 97.5944 12.1136C98.5746 11.9747 99.5711 12.6853 99.7182 13.8044V17.7415H98.5746V14.368C98.5746 13.5103 98.1662 12.9467 97.3167 12.9467C96.8919 12.9467 96.6142 13.0856 96.3365 13.3715C96.1895 13.5103 95.9035 13.7962 95.9035 14.7764V17.7333H94.9234V12.2524H95.9035V13.0938H95.8954ZM101.531 9.99797H102.806V11.1252H101.54V9.99797H101.531ZM101.679 17.7415V12.3913H102.659V17.8885H101.679V17.7415ZM106.187 17.7415L103.933 12.2524H105.06L106.751 16.4754L108.434 12.2524H109.561L107.168 17.7415H106.187ZM111.399 15.2093C111.399 16.1895 111.676 17.1697 112.804 17.1697C113.375 17.3331 114.078 16.9002 114.078 16.1895V16.0588H115.058C114.919 17.1779 113.792 18.0192 112.665 17.8885C110.974 17.8885 110.272 16.6143 110.272 15.0705C110.272 13.5185 111.113 12.1136 112.804 12.1136C114.078 12.1136 115.197 12.9549 115.197 14.221V15.2257H111.399V15.2093ZM114.078 14.5069C114.078 13.6574 113.653 12.9549 112.665 12.9549C111.824 12.9549 111.26 13.5267 111.26 14.368V14.4987H114.086L114.078 14.5069ZM117.737 17.7415H116.757V12.3913H117.737V13.3715C117.876 12.6772 118.579 12.2524 119.289 12.2524H119.567V13.2326H119.142C117.876 13.2326 117.59 13.9433 117.59 15.0705L117.737 17.7415V17.7415ZM122.524 12.1136C123.504 12.1136 124.648 12.522 124.648 13.8044H123.504C123.504 13.0938 123.096 12.9549 122.385 12.9549C121.683 12.9549 121.405 13.2408 121.405 13.8044C121.405 14.3762 122.385 14.5069 122.663 14.5069C123.512 14.7846 124.64 14.9316 124.64 16.1977C124.64 17.4638 123.357 17.8885 122.238 17.8885C121.111 17.8885 120.114 17.3168 120.114 16.0588H121.258C121.258 16.6143 121.666 17.039 122.238 17.039H122.377C122.949 17.039 123.643 16.7613 123.643 16.0588C123.643 14.7846 120.4 15.7729 120.4 13.6574C120.4 12.6772 121.544 12.1054 122.524 12.1054V12.1136ZM126.036 9.99797H127.311V11.1252H126.044V9.99797H126.036ZM126.183 17.7415V12.3913H127.164V17.8885H126.183V17.7415ZM129.287 12.3913V11.2641L130.267 10.9782V12.3831H131.534V13.2326H130.267V16.7613C130.267 17.1697 130.553 17.3331 130.97 17.3331H131.542V18.1662H130.129C129.859 18.1662 129.72 18.0274 129.573 17.8885C129.434 17.6026 129.295 17.6026 129.295 16.9083V13.0938H128.315V12.3913H129.295H129.287ZM134.637 19.8489H133.657L134.499 17.7415L132.244 12.3913H133.51L135.201 16.6143L136.892 12.3913H138.011L134.637 19.8489ZM145.624 15.0705C145.624 16.6225 144.35 17.7415 142.806 17.6026C141.254 17.6026 140.127 16.3366 140.274 14.7846C140.274 13.3796 141.54 12.2524 142.945 12.2524C144.35 12.1136 145.624 13.2326 145.624 14.6457C145.624 14.7846 145.624 14.9316 145.624 15.0705V15.0705ZM142.806 17.1779C144.072 17.1779 144.358 16.1977 144.358 15.0705C144.358 13.9433 143.933 12.9467 142.806 12.9467C141.679 12.9467 141.254 13.9433 141.254 15.0705C141.254 16.1977 141.679 17.1779 142.806 17.1779ZM147.454 17.7415V13.0856H146.473V12.3913H147.592V11.4111C147.592 10.5616 148.287 9.85913 148.981 9.85913H149.275C149.553 9.85913 149.7 9.85911 149.977 9.99797V10.8475H149.406C148.85 10.8475 148.573 10.9864 148.573 11.55V12.3913H149.839V13.0938H148.573V17.7497H147.445L147.454 17.7415ZM152.093 17.7415L155.336 9.99797H156.463L159.567 17.7415H158.44L157.59 15.7811H153.931L153.081 17.7415H152.101H152.093ZM154.495 14.7846H157.451L156.038 10.9864L154.486 14.7846H154.495ZM160.833 13.3796V12.3994H161.813V13.2408C162.099 12.5383 162.941 12.1217 163.643 12.2606C165.195 12.2606 165.897 13.6655 165.897 15.0786C166.044 16.4836 165.056 17.7497 163.643 17.8967H163.365C162.793 17.8967 162.238 17.6108 161.813 17.1861V19.7182H160.833V13.3878V13.3796ZM163.504 12.9549C162.377 12.9549 161.952 14.0821 161.952 15.0786C161.952 16.0588 162.238 17.1779 163.365 17.1779C164.492 17.1779 165.056 16.0588 165.056 15.0705C165.056 14.0903 164.631 12.9467 163.504 12.9467V12.9549ZM167.588 13.3796V12.3994H168.568V13.2408C168.854 12.5383 169.712 12.1217 170.406 12.2606C171.958 12.2606 172.661 13.6655 172.661 15.0786C172.8 16.4836 171.811 17.7497 170.406 17.8967H170.129C169.557 17.8967 169.001 17.6108 168.577 17.1861V19.7182H167.596V13.3878L167.588 13.3796ZM170.12 12.9549C169.001 12.9549 168.568 14.0821 168.568 15.0786C168.568 16.0588 168.854 17.1779 169.982 17.1779C171.109 17.1779 171.672 16.0588 171.672 15.0705C171.672 14.0903 171.395 12.9467 170.12 12.9467V12.9549ZM174.352 17.7415V9.99797H175.332V17.7415H174.352ZM177.309 9.99797H178.575V11.1252H177.309V9.99797ZM177.447 17.7415V12.3913H178.428V17.8885H177.447V17.7415ZM181.107 15.2093C181.107 16.1895 181.393 17.1697 182.52 17.1697C183.092 17.3331 183.786 16.9002 183.786 16.1895V16.0588H184.913C184.774 17.1779 183.647 18.0192 182.52 17.8885C180.829 17.8885 180.127 16.6143 180.127 15.0705C180.127 13.5185 180.968 12.1136 182.659 12.1136C183.925 12.1136 185.052 12.9549 185.052 14.221V15.2257H181.107V15.2093ZM183.786 14.5069C183.786 13.6574 183.361 12.9549 182.381 12.9549C181.532 12.9549 180.968 13.5267 180.968 14.368V14.4987H183.786V14.5069ZM190.125 9.99797H191.105V17.8885H190.125V16.9083C189.7 17.6026 188.997 18.0274 188.295 17.8885C186.743 17.8885 186.04 16.4754 186.04 15.0705C186.04 13.6574 186.743 12.2524 188.434 12.2524C189.128 12.2524 189.822 12.5301 190.116 13.0938V9.98982L190.125 9.99797ZM188.573 17.1861C189.839 17.1861 190.125 16.0588 190.125 15.0623C190.125 14.0821 189.7 12.9549 188.573 12.9549C187.445 12.9549 187.021 14.0821 187.021 15.0786C187.021 16.0588 187.445 17.1779 188.573 17.1779V17.1861ZM196.316 15.4952C196.316 16.6143 197.027 17.0472 198.007 17.0472C199.003 17.0472 199.992 16.7613 199.992 15.6341C199.992 14.9316 199.42 14.5069 198.726 14.368C197.451 14.0739 195.344 13.7962 195.344 12.1054C195.344 10.4146 196.896 9.85095 198.301 9.85095C199.706 9.85095 200.972 10.4227 200.972 11.9747H199.853C199.853 11.117 199.142 10.8312 198.301 10.8312C197.451 10.8312 196.471 11.117 196.471 12.1054C196.471 13.0856 197.174 13.0856 197.737 13.2326C199.142 13.6574 201.119 13.6574 201.119 15.6341C201.119 17.5945 199.567 18.0274 198.015 18.0274C196.479 18.0274 195.213 17.3249 195.213 15.6341L196.332 15.4952H196.316ZM205.612 14.0821C205.612 13.3796 205.203 12.9549 204.484 12.9549C203.504 12.9549 203.079 13.8044 203.079 15.0786C203.079 16.3366 203.504 17.1779 204.484 17.1779C205.195 17.1779 205.612 16.7695 205.612 15.9118H206.592C206.592 17.039 205.612 17.8885 204.484 17.8885C202.802 17.8885 202.091 16.6143 202.091 15.0705C202.091 13.5185 202.949 12.1136 204.64 12.1136C205.767 12.1136 206.6 12.816 206.747 13.9433C206.747 13.9433 206.747 13.9432 206.747 14.0821H205.62H205.612ZM207.866 9.99797H209.132V11.1252H207.866V9.99797ZM208.013 17.7415V12.3913H208.993V17.8885H208.013V17.7415ZM211.672 15.2093C211.672 16.1895 211.95 17.1697 213.077 17.1697C213.649 17.3331 214.343 16.9002 214.343 16.1895V16.0588H215.487C215.34 17.1779 214.213 18.0192 213.086 17.8885C211.395 17.8885 210.692 16.6143 210.692 15.0705C210.692 13.5185 211.542 12.1136 213.224 12.1136C214.499 12.1136 215.626 12.9549 215.626 14.221V15.2257H211.681L211.672 15.2093ZM214.49 14.5069C214.49 13.6574 214.058 12.9549 213.069 12.9549C212.228 12.9549 211.664 13.5267 211.664 14.368V14.4987H214.482L214.49 14.5069ZM218.15 13.0938C218.428 12.522 219.13 12.1136 219.841 12.1136C220.821 11.9747 221.801 12.6853 221.948 13.8044V17.7415H220.968V14.368C220.968 13.5103 220.543 12.9467 219.702 12.9467C219.277 12.9467 218.991 13.0856 218.722 13.3715C218.575 13.5103 218.289 13.7962 218.289 14.7764V17.7333H217.308V12.2524H218.289L218.15 13.0938V13.0938ZM226.751 14.0821C226.751 13.3796 226.318 12.9549 225.607 12.9549C224.627 12.9549 224.203 13.8044 224.203 15.0786C224.203 16.3366 224.627 17.1779 225.616 17.1779C226.326 17.1779 226.759 16.7695 226.759 15.9118H227.739C227.739 17.039 226.759 17.8885 225.616 17.8885C223.933 17.8885 223.23 16.6143 223.23 15.0705C223.23 13.5185 224.072 12.1136 225.763 12.1136C226.89 12.1136 227.723 12.816 227.886 13.9433C227.886 13.9433 227.886 13.9432 227.886 14.0821H226.743H226.751ZM229.977 15.2093C229.977 16.1895 230.263 17.1697 231.391 17.1697C231.962 17.3331 232.657 16.9002 232.657 16.1895V16.0588H233.784C233.645 17.1779 232.526 18.0192 231.399 17.8885C229.708 17.8885 228.997 16.6143 228.997 15.0705C228.997 13.5185 229.847 12.1136 231.529 12.1136C232.804 12.1136 233.931 12.9549 233.931 14.221V15.2257H229.986L229.977 15.2093ZM232.657 14.5069C232.657 13.6574 232.232 12.9549 231.244 12.9549C230.402 12.9549 229.839 13.5267 229.839 14.368V14.4987H232.657V14.5069ZM237.157 12.1136C238.138 12.1136 239.281 12.522 239.281 13.8044H238.138C238.138 13.0938 237.582 12.9549 237.019 12.9549C236.447 12.9549 236.038 13.2408 236.038 13.8044C236.038 14.3762 237.019 14.5069 237.304 14.5069C238.146 14.7846 239.265 14.9316 239.265 16.1977C239.265 17.4638 238.007 17.8885 236.88 17.8885C235.752 17.8885 234.756 17.3168 234.756 16.0588H235.899C235.899 16.6143 236.308 17.039 236.88 17.039H237.019C237.59 17.039 238.285 16.7613 238.285 16.0588C238.285 14.7846 235.05 15.7729 235.05 13.6574C235.05 12.6772 236.177 12.1054 237.157 12.1054V12.1136ZM93.0937 22.1115V29.855H91.6806L87.7353 23.2388V29.855H86.7551V22.1115H88.1682L91.9746 28.589V22.1115H93.0937V22.1115ZM99.8488 27.184C99.8488 28.736 98.5827 29.855 97.0308 29.7162C95.4788 29.7162 94.3516 28.4501 94.4986 26.8981C94.4986 25.4932 95.7566 24.366 97.1697 24.366C98.5746 24.2271 99.8407 25.3462 99.8407 26.7593C99.8407 26.8981 99.8407 27.037 99.8407 27.184H99.8488ZM97.1778 29.2914C98.4439 29.2914 98.7298 28.3112 98.7298 27.184C98.7298 26.0568 98.2968 25.0603 97.1778 25.0603C96.0506 25.0603 95.6259 26.0568 95.6259 27.184C95.6259 28.3112 95.9035 29.4303 97.1778 29.2914ZM102.242 29.9939H101.262V24.5048H102.242V25.485C102.381 24.7826 103.092 24.2271 103.794 24.366H104.072V25.3462H103.663C102.389 25.3462 102.111 26.0568 102.111 27.184L102.25 29.9939H102.242ZM105.346 24.5048V23.3776L106.326 23.0999V24.5048H107.592V25.3462H106.326V28.8585C106.326 29.2914 106.612 29.4303 107.029 29.4303H107.601V30.1409H106.187C105.91 30.1409 105.763 29.9939 105.616 29.855C105.485 29.5773 105.346 29.5773 105.346 28.8749V25.3462H104.366V24.6437L105.346 24.5048V24.5048ZM109.005 29.9939V22.2504H109.986V25.3543C110.41 24.7826 110.966 24.3741 111.676 24.5048C112.657 24.366 113.514 25.0766 113.514 26.0568V30.1409H112.665V26.7593C112.665 25.7791 112.387 25.2073 111.399 25.2073C110.827 25.2073 110.419 25.4932 110.133 25.9098C109.994 26.3345 109.847 26.7593 109.994 27.184V29.9939H109.014H109.005ZM123.226 24.5048L121.266 29.9939H120.122L118.865 25.5014L117.451 29.9939H116.177L114.356 24.5048H115.483L116.749 28.8667L118.162 24.5048H119.714L120.972 28.7278L122.385 24.5048H123.226ZM124.917 27.4617C124.917 28.4419 125.203 29.4221 126.33 29.4221C126.886 29.5855 127.596 29.1526 127.596 28.4419V28.3112H128.74C128.577 29.4303 127.458 30.2716 126.339 30.1409C124.648 30.1409 123.937 28.8667 123.937 27.3229C123.937 25.7709 124.648 24.366 126.339 24.366C127.605 24.366 128.732 25.2073 128.732 26.4734V27.4781H124.917V27.4617ZM127.596 26.7593C127.596 25.9098 127.188 25.2073 126.191 25.2073C125.35 25.2073 124.787 25.7791 124.787 26.6204V26.7511H127.605L127.596 26.7593ZM132.097 24.366C133.077 24.366 134.221 24.7744 134.221 26.0568H133.077C133.077 25.3461 132.522 25.2073 131.958 25.2073C131.387 25.2073 130.978 25.3461 130.978 26.0568C130.978 26.7593 131.958 26.7593 132.244 26.7593C133.086 27.037 134.205 27.184 134.205 28.4501C134.205 29.7162 132.947 30.1409 131.819 30.1409C130.692 30.1409 129.696 29.5692 129.696 28.3112H130.97C130.97 28.8667 131.395 29.2914 131.95 29.2914H132.097C132.669 29.2914 133.371 29.0137 133.371 28.3112C133.371 27.037 130.129 28.0253 130.129 25.9098C129.998 24.9296 131.125 24.3578 132.105 24.3578L132.097 24.366ZM136.042 24.5048V23.3776L137.023 23.0999V24.5048H138.297V25.3462H137.039V28.8585C137.039 29.2914 137.317 29.4303 137.741 29.4303H138.313V30.1409H136.9C136.606 30.1409 136.467 29.9939 136.328 29.855C136.181 29.5773 136.042 29.5773 136.042 28.8749V25.3462H135.062V24.6437L136.042 24.5048V24.5048ZM140.265 27.4617C140.265 28.4419 140.551 29.4221 141.679 29.4221C142.25 29.5855 142.945 29.1526 142.945 28.4419V28.3112H144.072C143.933 29.4303 142.806 30.2716 141.679 30.1409C139.988 30.1409 139.285 28.8667 139.285 27.3229C139.285 25.7709 139.988 24.366 141.817 24.366C143.083 24.366 144.211 25.2073 144.211 26.4734V27.4781H140.265V27.4617ZM143.083 26.7593C143.083 25.9098 142.675 25.2073 141.679 25.2073C140.829 25.2073 140.265 25.7791 140.265 26.6204V26.7511H143.083V26.7593ZM146.326 29.9939H145.346V24.5048H146.326V25.485C146.465 24.7826 147.168 24.366 147.878 24.366H148.156V25.3462H147.731C146.465 25.3462 146.179 26.0568 146.179 27.184L146.326 29.9939V29.9939ZM150.41 25.3462C150.688 24.7744 151.391 24.366 152.101 24.366C153.081 24.2271 154.078 24.9377 154.225 26.0568V29.9939H153.245V26.6204C153.245 25.7627 152.812 25.1991 151.962 25.1991C151.554 25.1991 151.26 25.338 150.982 25.6239C150.843 25.7627 150.557 26.0486 150.557 27.0288V29.9857H149.3V24.5048H150.28L150.427 25.3462H150.41ZM159.42 27.6088C159.42 28.7278 160.122 29.1607 161.111 29.1607C162.091 29.1607 163.088 28.8667 163.088 27.7476C163.088 27.037 162.516 26.6204 161.813 26.4734C160.547 26.2038 158.44 25.9179 158.44 24.2353C158.44 22.5445 159.992 21.9808 161.397 21.9808C162.785 21.9808 164.06 22.5526 164.06 24.0882H162.793C162.793 23.2469 162.099 22.961 161.242 22.961C160.408 22.961 159.42 23.2469 159.42 24.2353C159.42 25.2155 160.122 25.2155 160.686 25.3543C162.099 25.7791 164.068 25.7791 164.068 27.7558C164.068 29.7162 162.516 30.1491 160.964 30.1491C159.412 30.1491 158.154 29.4385 158.154 27.7558L159.42 27.6088V27.6088ZM173.788 24.5048L171.811 29.9939H170.692L169.418 25.5014L168.029 29.9939H166.755L164.917 24.5048H166.044L167.311 28.8667L168.715 24.5048H169.982L171.256 28.7278L172.661 24.5048H173.788ZM174.637 22.1115H175.895V23.2388H174.629V22.1115H174.637ZM174.776 29.9939V24.5048H175.757V29.9939H174.776V29.9939ZM177.872 24.5048V23.3776L178.852 23.0999V24.5048H180.127V25.3462H178.86V28.8585C178.86 29.2914 179.138 29.4303 179.563 29.4303H180.135V30.1409H178.713C178.428 30.1409 178.289 29.9939 178.142 29.855C178.003 29.5773 177.864 29.5773 177.864 28.8749V25.3462H177.014V24.6437L177.864 24.5048H177.872ZM184.913 29.9939H180.968V29.2914L183.647 25.3462H180.968V24.6437H184.774V25.3462L182.103 29.2914H184.921L184.913 29.9939ZM186.89 27.4617C186.89 28.4419 187.168 29.4221 188.295 29.4221C188.867 29.5855 189.561 29.1526 189.561 28.4419V28.3112H190.688C190.549 29.4303 189.422 30.2716 188.295 30.1409C186.604 30.1409 185.902 28.8667 185.902 27.3229C185.902 25.7709 186.596 24.366 188.287 24.366C189.553 24.366 190.68 25.2073 190.68 26.4734V27.4781H186.874L186.89 27.4617ZM189.561 26.7593C189.561 25.9098 189.136 25.2073 188.148 25.2073C187.306 25.2073 186.743 25.7791 186.743 26.6204V26.7511H189.561V26.7593ZM193.22 29.9939H192.24V24.5048H193.22V25.485C193.359 24.7826 194.07 24.366 194.772 24.366H195.05V25.3462H194.625C193.351 25.3462 193.073 26.0568 193.073 27.184L193.212 29.9939H193.22ZM196.316 29.9939V22.2504H197.296V29.9939H196.316ZM202.377 26.6286C202.377 25.632 202.377 25.0766 201.25 25.0766C200.678 25.0766 200.269 25.3462 200.269 25.9098H199.126C199.126 24.7825 200.122 24.3578 201.25 24.3578C202.377 24.3578 203.504 24.6437 203.504 26.1957V29.855H202.516V29.1526C202.238 29.8469 201.536 30.1328 200.825 30.1328C199.845 30.1328 198.995 29.708 198.995 28.5808C198.995 27.0288 200.4 26.6204 201.674 26.6204H202.377V26.6286ZM201.25 27.3229C200.678 27.3229 199.845 27.6006 199.845 28.3031C199.845 28.8748 200.253 29.2833 200.686 29.2833H200.817C202.083 29.2833 202.23 28.3031 202.23 27.184L201.233 27.3229H201.25ZM206.167 25.3462C206.461 24.7744 207.163 24.366 207.866 24.366C208.846 24.2271 209.843 24.9377 209.99 26.0568V29.9939H208.993V26.6204C208.993 25.7627 208.568 25.1991 207.727 25.1991C207.319 25.1991 207.033 25.338 206.747 25.6239C206.608 25.7627 206.339 26.0486 206.339 27.0288V29.9857H205.342V24.5048H206.322L206.183 25.3462H206.167ZM215.332 22.1115H216.312V29.9939H215.332V29.1526C214.907 29.8469 214.205 30.2716 213.502 30.1328C211.95 30.1328 211.248 28.7197 211.248 27.3147C211.248 25.9016 211.95 24.4966 213.641 24.4966C214.343 24.4966 215.054 24.7744 215.332 25.338V22.1034V22.1115ZM213.78 29.4303C215.054 29.4303 215.332 28.3112 215.332 27.3229C215.332 26.3427 214.907 25.1991 213.78 25.1991C212.653 25.1991 212.228 26.3427 212.228 27.3229C212.228 28.3031 212.653 29.4303 213.78 29.4303Z" fill="white"/>
<path d="M28.0172 0H29.4304V40H28.0254L28.0172 0Z" fill="white"/>
<path d="M7.46581 13.2326C8.73189 10.8475 11.264 9.43438 13.9432 9.43438C15.9036 9.29552 17.7415 10.0062 19.2934 11.2641C20.6984 12.9467 21.4172 15.0623 21.2538 17.1697V29.8469H13.3796V18.7217C13.5185 17.3168 12.3995 16.0507 10.8475 15.9037H10.7004C9.14844 15.9037 7.89052 17.1697 7.89052 18.7217V29.8469H0V9.99799H7.46581V13.2326ZM64.0801 9.57325C62.6669 9.57325 61.4008 10.7005 61.4008 12.2524C61.4008 13.6574 62.5281 14.9316 64.0801 14.9316C64.7825 14.9316 65.485 14.6457 66.0404 13.9514C66.751 16.1977 62.814 28.3113 57.3167 28.3113C55.487 28.3113 54.9234 26.8981 54.9234 24.9296C55.0623 22.3974 55.4952 19.8653 56.3365 17.3331C57.1778 14.368 57.8885 11.4111 58.4439 9.85914H53.0937C52.3913 12.5302 47.1799 27.7476 42.671 27.7476C42.0992 27.7476 41.5438 27.1759 41.5438 26.0568C41.6826 24.9296 41.9685 23.6635 42.2462 22.5445L43.9371 16.6143C44.3455 15.3482 44.7784 13.9433 44.9173 12.5302C45.0561 10.8475 43.7901 9.42622 42.0992 9.29553H41.8215C37.0349 9.29553 35.0663 13.5185 34.078 15.34L34.9275 15.9118C35.3523 15.2094 37.4597 11.55 39.0116 11.55C39.1505 11.55 39.4364 11.8277 39.4364 12.5302C39.2894 13.5104 39.1505 14.368 38.8646 15.2093L37.0349 21.2539C36.4795 22.8058 36.1936 24.3578 36.0547 26.0568C35.9159 28.3112 37.6067 30.1409 39.853 30.2798H39.9918C46.8859 30.2798 49.8428 21.9727 50.6923 19.5794L50.8311 19.7182C50.4064 21.1232 50.2593 22.5363 50.1286 23.9412C50.1286 27.6169 51.8195 30.288 55.34 30.288C65.6157 30.4268 71.2518 9.58143 64.0801 9.58143V9.57325Z" fill="white"/>
</svg>
