<svg width="126" height="40" viewBox="0 0 126 40" fill="none" xmlns="http://www.w3.org/2000/svg">
<path d="M82.3422 5.15622C80.7056 7.9915 79.3539 10.3464 79.3369 10.3847C79.3199 10.4315 80.2848 12.1403 82.3167 15.6642L85.3263 20.8714H90.3635C94.372 20.8714 95.3921 20.8842 95.3751 20.9224C95.3666 20.9522 94.2529 22.8905 92.9012 25.2285C91.5537 27.5664 90.4357 29.5005 90.4272 29.5303C90.4145 29.56 91.7577 31.9277 93.4113 34.7928L96.4208 40H102.44L108.459 39.9957L111.392 34.9118C113.007 32.119 114.359 29.7683 114.397 29.6961L114.47 29.56L111.966 25.2242L109.467 20.8927L114.482 20.8714L119.498 20.8502L122.397 15.8342C123.987 13.0755 125.343 10.7333 125.407 10.627L125.518 10.4315L122.512 5.22848L119.507 0.0212544H113.479H107.452L104.948 4.35707C103.571 6.74176 102.427 8.69713 102.41 8.70138C102.393 8.70988 101.25 6.75877 99.8725 4.36557L97.3645 0.0212544L91.3411 0.00850204L85.322 4.42378e-07L82.3422 5.15622ZM98.9628 6.03613L101.501 10.4315L101.39 10.627C101.326 10.7375 100.187 12.7141 98.8523 15.0181L96.4293 19.2136L91.3326 19.2051L86.2317 19.1923L83.7705 14.9416C82.4187 12.6036 81.2838 10.6312 81.2455 10.5547L81.1775 10.423L83.7195 6.01913L86.2614 1.6153L91.3411 1.6238L96.4251 1.63656L98.9628 6.03613ZM121.105 6.03188L123.643 10.4315L123.065 11.4346C122.746 11.983 121.607 13.9596 120.531 15.8257L118.576 19.2136L113.475 19.2094H108.374L105.87 14.8693C104.493 12.4803 103.358 10.4952 103.35 10.4612C103.341 10.423 104.208 8.87992 105.271 7.03507C106.338 5.18597 107.481 3.2136 107.809 2.644L108.404 1.6153L113.484 1.6238L118.567 1.63656L121.105 6.03188ZM104.438 15.6259C105.543 17.5345 106.436 19.1031 106.427 19.1116C106.419 19.1201 104.599 19.1243 102.389 19.1201L98.3677 19.1073L100.37 15.6302C101.475 13.7216 102.389 12.1573 102.406 12.1573C102.423 12.1573 103.337 13.7173 104.438 15.6259ZM109.93 24.9394C111.248 27.2221 112.387 29.1987 112.463 29.3305L112.599 29.5685L110.062 33.9681L107.52 38.3634L102.44 38.3762L97.3603 38.3847L94.8225 33.9894C93.4283 31.5707 92.2848 29.5813 92.2848 29.5685C92.2848 29.543 97.1222 21.1435 97.2838 20.8799L97.3433 20.7864H102.436H107.528L109.93 24.9394Z" fill="white"/>
<path d="M20.1319 0.965C18.7079 1.26681 17.7812 2.45703 17.4411 4.4209C17.3518 4.92674 17.3391 6.43578 17.4199 6.98413C17.4921 7.48147 17.6579 8.10209 17.8152 8.48891C18.4528 10.0149 19.9406 10.8098 21.6196 10.5208C22.3295 10.3933 23.2052 10.032 23.7323 9.64513L23.9278 9.5006L23.9321 7.3412V5.18604H22.0405H20.1489L20.1574 5.93843L20.1701 6.69507L21.2456 6.70783L22.3168 6.71633V7.68976V8.66319L22.117 8.75671C21.5644 9.01601 20.7822 9.08827 20.3317 8.91824C19.6728 8.6717 19.2307 7.89805 19.0862 6.73758C19.0097 6.14247 19.0522 4.76521 19.1627 4.29337C19.3285 3.59624 19.5283 3.17116 19.8513 2.8481C20.2934 2.40602 20.9608 2.321 21.6111 2.62706C21.9555 2.78859 22.2488 3.06064 22.5081 3.46022C22.6271 3.643 22.7419 3.77478 22.7716 3.76628C22.8141 3.74927 24.0554 2.95012 24.0936 2.91187C24.1319 2.87786 23.7068 2.287 23.4602 2.02345C22.9842 1.5091 22.3763 1.14778 21.7047 0.977753C21.2966 0.875734 20.574 0.867232 20.1319 0.965Z" fill="white"/>
<path d="M60.1148 0.973491C59.4645 1.13502 58.8141 1.5516 58.372 2.08295C58.0957 2.41876 57.7216 3.1669 57.5814 3.66425C57.2625 4.77796 57.254 6.54629 57.5558 7.711C57.9682 9.28805 58.9416 10.2827 60.2976 10.5208C61.1903 10.6738 62.0022 10.5378 62.7333 10.1127C63.2519 9.80665 64.3996 8.4719 64.2253 8.36988C64.1913 8.35288 63.8895 8.14459 63.5537 7.91079L62.9416 7.48571L62.6908 7.85553C62.0914 8.73545 61.5856 9.04575 60.8077 9.00325C60.5399 8.99049 60.4039 8.95649 60.2253 8.87147C59.932 8.72695 59.6005 8.38263 59.4262 8.03407C58.9246 7.03938 58.8608 4.97349 59.2987 3.77902C59.524 3.16265 59.8215 2.80984 60.3104 2.58029C61.1138 2.20197 61.9172 2.61005 62.4443 3.65574C62.4953 3.76201 62.5463 3.85128 62.5505 3.85978C62.5675 3.88104 64.0171 3.1499 64.0171 3.12014C64.0171 3.10739 63.949 2.96712 63.8683 2.80984C63.6472 2.38901 63.1924 1.8109 62.8991 1.5686C62.559 1.2923 62.0362 1.03725 61.6451 0.956488C61.2243 0.871472 60.5059 0.879974 60.1148 0.973491Z" fill="white"/>
<path d="M0 5.71742V10.4146H0.828905H1.65781V8.33166V6.24877H3.16684H4.67588V8.33166V10.4146H5.48353H6.29118V5.71742V1.02029H5.48353H4.67588V2.86939V4.71848H3.16684H1.65781V2.86939V1.02029H0.828905H0V5.71742Z" fill="white"/>
<path d="M11.2646 5.71742V10.4146H12.0723H12.88V5.71742V1.02029H12.0723H11.2646V5.71742Z" fill="white"/>
<path d="M27.8002 5.71742V10.4146H28.6078H29.4155V8.33166V6.24877H30.9458H32.476V8.33166V10.4146H33.2837H34.0913V5.71742V1.02029H33.2837H32.476V2.86939V4.71848H30.9458H29.4155V2.86939V1.02029H28.6078H27.8002V5.71742Z" fill="white"/>
<path d="M37.6195 1.78543V2.55058H38.8522H40.085V6.48256V10.4146H40.9139H41.7428V6.48256V2.55058H42.933H44.1232V1.78543V1.02029H40.8714H37.6195V1.78543Z" fill="white"/>
<path d="M47.7789 5.71742V10.4146H50.797H53.8151V9.67066V8.92677H51.6259H49.4367V7.58777V6.24877H51.2433H53.0499V5.48363V4.71848H51.2433H49.4367V3.63453V2.55058H51.6259H53.8151V1.78543V1.02029H50.797H47.7789V5.71742Z" fill="white"/>
<path d="M67.8853 5.71742V10.4146H68.6929H69.5006V8.33166V6.24877H71.0308H72.5611V8.33166V10.4146H73.3688H74.1764V5.71742V1.02029H73.3688H72.5611V2.86939V4.71848H71.0308H69.5006V2.86939V1.02029H68.6929H67.8853V5.71742Z" fill="white"/>
<path d="M7.35396 16.1529V16.9181H9.33058C10.4188 16.9181 11.3072 16.9308 11.3072 16.9478C11.3072 16.9691 10.2658 18.7416 8.99051 20.8925L6.67383 24.8033L10.321 24.816C12.3231 24.8203 13.9894 24.816 14.0192 24.8033C14.0575 24.7905 14.0702 24.595 14.0702 24.0381V23.2942H11.7748C10.5123 23.2942 9.47935 23.2857 9.47935 23.2772C9.47935 23.2645 10.5038 21.5174 11.7535 19.3878C13.0033 17.2581 14.0405 15.4898 14.0532 15.4515C14.0787 15.3963 13.7302 15.3878 10.7163 15.3878H7.35396V16.1529Z" fill="white"/>
<path d="M17.713 15.4176C17.696 15.4303 17.6832 17.5557 17.6832 20.136V24.8246L20.714 24.8161L23.7406 24.8033L23.7534 24.0467L23.7619 23.2943H21.5515H19.341V21.9553V20.6163H21.1476H22.9542V19.8512V19.086H21.1476H19.341V18.0021V16.9181H21.5515H23.7619L23.7534 16.1615L23.7406 15.4091L20.7396 15.3963C19.0902 15.3921 17.7257 15.4006 17.713 15.4176Z" fill="white"/>
<path d="M27.4389 15.4388C27.4262 15.4686 27.4219 17.5897 27.4262 20.1487L27.4389 24.8033L28.2636 24.8161L29.084 24.8246L29.0712 21.5557C29.0627 19.7576 29.0542 18.2869 29.0585 18.2911C29.0627 18.2954 29.7386 19.7661 30.5632 21.56L32.0638 24.8246H32.9734H33.8789V20.1062V15.3878H33.0712H32.2593L32.2721 18.6609C32.2806 20.459 32.2721 21.917 32.2551 21.9C32.2381 21.883 31.5579 20.4165 30.7375 18.6397L29.254 15.4091L28.3571 15.3963C27.6599 15.3878 27.4517 15.3963 27.4389 15.4388Z" fill="white"/>
<path d="M37.662 16.153V16.9181H38.8947H40.1274V20.8713V24.8246L40.9479 24.8161L41.764 24.8033L41.7768 20.8586L41.7853 16.9181H42.9755H44.1657V16.153V15.3878H40.9138H37.662V16.153Z" fill="white"/>
<path d="M47.694 20.1063V24.8246H48.5016H49.3093V22.9118V20.9989H49.9596H50.6058L51.6855 22.9203L52.7694 24.8374L53.6748 24.8161C54.1722 24.8034 54.593 24.7821 54.6058 24.7694C54.6228 24.7566 54.0829 23.8427 53.4155 22.7418C52.7482 21.6408 52.1998 20.7311 52.1998 20.7226C52.1998 20.7141 52.3103 20.6461 52.4464 20.5696C52.7482 20.3953 53.2795 19.864 53.4666 19.5452C53.5431 19.4134 53.6578 19.1668 53.7216 18.9926C53.8279 18.7078 53.8364 18.6312 53.8364 18.0446C53.8364 17.4878 53.8236 17.3688 53.7386 17.1095C53.3985 16.0978 52.6079 15.5452 51.3327 15.4304C51.0734 15.4091 50.1467 15.3879 49.2795 15.3879H47.694V20.1063ZM51.3837 16.9734C52.0085 17.1392 52.3188 17.7428 52.1403 18.44C52.0553 18.78 51.9023 19.0053 51.6345 19.1881C51.2944 19.4219 51.0308 19.4686 50.1084 19.4686H49.3093V18.1934V16.9182H50.2359C50.8736 16.9182 51.2306 16.9352 51.3837 16.9734Z" fill="white"/>
<path d="M57.7769 19.0946L57.7897 22.8055L57.9087 23.1371C58.2147 24.0127 58.8184 24.5653 59.745 24.8331C60.0383 24.9182 60.1829 24.9309 60.7865 24.9309C61.3858 24.9309 61.5346 24.9182 61.8194 24.8331C62.7673 24.5611 63.4177 23.966 63.711 23.1073L63.8258 22.763V19.0861V15.4091H63.0181H62.2105L62.1892 18.9798L62.168 22.5505L62.0575 22.7885C61.8534 23.2221 61.5049 23.3794 60.7525 23.3794C60.5059 23.3794 60.2296 23.3539 60.1319 23.3284C59.8853 23.2561 59.592 22.95 59.49 22.6567C59.4092 22.4314 59.405 22.2742 59.3922 18.9033L59.3795 15.3879H58.5718H57.7642L57.7769 19.0946Z" fill="white"/>
<path d="M67.6982 15.8214C67.677 16.1785 67.3326 24.595 67.3326 24.7693C67.3326 24.8118 67.5282 24.8246 68.1743 24.8246H69.0202L69.0457 24.2167C69.0627 23.8852 69.1052 22.4824 69.1435 21.1051C69.1817 19.7236 69.2242 18.5632 69.237 18.5249C69.2583 18.4781 69.5771 19.1838 70.1594 20.5568C70.6525 21.7215 71.0606 22.6312 71.0776 22.6057C71.0946 22.5759 71.4942 21.6407 71.966 20.5313C72.4378 19.4218 72.8417 18.4951 72.8629 18.4739C72.8842 18.4484 72.9012 18.5589 72.9012 18.7502C72.9012 18.9202 72.9394 20.2422 72.9862 21.679C73.033 23.1158 73.0712 24.4123 73.0712 24.5568V24.8246H73.9214C74.7035 24.8246 74.7715 24.8203 74.7715 24.7481C74.7758 24.5398 74.423 15.7236 74.406 15.5664L74.3847 15.3878L73.441 15.3963L72.5016 15.4091L71.796 17.1094C71.4049 18.0446 71.0691 18.8055 71.0521 18.8012C71.0308 18.797 70.6993 18.0318 70.3124 17.1009L69.6068 15.4091L68.6631 15.3963L67.7237 15.3878L67.6982 15.8214Z" fill="white"/>
<path d="M50.2741 29.6919C49.0627 29.9214 48.204 30.7588 47.7449 32.1531C47.4771 32.9608 47.4219 33.3603 47.4176 34.474C47.4176 35.4857 47.4559 35.864 47.6301 36.5357C48.0977 38.3168 49.2965 39.3199 50.967 39.3199C51.9149 39.3199 52.7779 39.0479 53.6365 38.4825L53.9851 38.253V36.0851V33.9214H52.0935H50.2019V34.6866V35.4517H51.2858H52.3698V36.4294V37.4028L52.2338 37.4751C51.9872 37.6026 51.6429 37.7004 51.2901 37.7472C50.3592 37.8747 49.7513 37.4921 49.3815 36.5569C48.9946 35.5707 48.9734 33.6536 49.339 32.5612C49.526 32.0001 49.8746 31.541 50.2614 31.3369C50.4569 31.2349 50.5249 31.2222 50.9033 31.2222C51.2943 31.2222 51.3538 31.2349 51.6174 31.3582C51.966 31.524 52.3145 31.8428 52.5781 32.2509L52.7779 32.5527L53.4665 32.1063L54.1551 31.66L54.0488 31.4815C53.5643 30.6611 52.7311 30.0022 51.8512 29.7557C51.4389 29.6366 50.7162 29.6069 50.2741 29.6919Z" fill="white"/>
<path d="M18.9629 30.3167C18.8736 30.6058 18.1977 32.6929 17.4708 34.9628C16.7397 37.2285 16.1318 39.1116 16.1233 39.1371C16.1063 39.1796 16.2976 39.1924 16.9905 39.1924H17.8789L18.2615 37.9894L18.6441 36.7907H20.0596H21.4751L21.8449 37.9809L22.2147 39.1711L23.0946 39.1839L23.9746 39.1924L23.9533 39.0989C23.9363 39.0436 23.2647 36.9352 22.4528 34.4102L20.9735 29.8194L20.0553 29.8066L19.1329 29.7981L18.9629 30.3167ZM20.5272 33.7386L20.982 35.2179L20.0723 35.2306C19.5707 35.2349 19.1499 35.2349 19.1414 35.2221C19.1329 35.2136 19.3284 34.5335 19.5792 33.7131C19.83 32.8927 20.0426 32.2296 20.0553 32.2381C20.0638 32.2508 20.2764 32.9225 20.5272 33.7386Z" fill="white"/>
<path d="M27.7662 34.4655C26.9415 37.0287 26.2699 39.1413 26.2699 39.1626C26.2699 39.1796 26.6652 39.1881 27.1498 39.1839L28.0255 39.1711L28.2975 38.3209C28.4463 37.8534 28.6163 37.3135 28.6758 37.118L28.7821 36.7694H30.1976H31.6089L31.9787 37.9681C32.1828 38.627 32.357 39.1711 32.3655 39.1796C32.374 39.1881 32.7694 39.1881 33.2497 39.1839L34.1169 39.1711L32.7439 34.8991C31.9872 32.5484 31.3113 30.44 31.2433 30.2104L31.1116 29.7981H30.1891H29.2667L27.7662 34.4655ZM30.6695 33.7471C30.916 34.5505 31.1116 35.2136 31.1031 35.2221C31.0946 35.2349 30.6737 35.2349 30.1721 35.2306L29.2582 35.2179L29.7003 33.7726C30.1934 32.1615 30.1849 32.1828 30.2061 32.2423C30.2146 32.2636 30.4229 32.9437 30.6695 33.7471Z" fill="white"/>
<path d="M37.6195 34.491V39.1924H38.4484H39.2773V37.2795V35.3667H39.9064H40.5398L41.6195 37.2795L42.6992 39.1924H43.6471C44.391 39.1924 44.5951 39.1796 44.5781 39.1371C44.5653 39.1116 44.0127 38.1892 43.3453 37.0925L42.1296 35.0946L42.3719 34.9501C43.3326 34.372 43.8809 33.3433 43.8087 32.2508C43.7279 31.0138 43.1073 30.236 41.9341 29.8959C41.713 29.8321 41.4197 29.8194 39.6514 29.8066L37.6195 29.7939V34.491ZM41.2539 31.3369C41.5898 31.4049 41.8618 31.592 41.9978 31.8598C42.0913 32.0425 42.1041 32.1233 42.1041 32.4761C42.1041 32.8289 42.0871 32.9055 41.9893 33.0925C41.8405 33.373 41.6493 33.5516 41.339 33.6961C41.0882 33.8109 41.0669 33.8151 40.1827 33.8279L39.2773 33.8406V32.5654V31.2859H40.1402C40.6291 31.2859 41.1137 31.3072 41.2539 31.3369Z" fill="white"/>
<path d="M58.5674 34.4825L57.0583 39.1711L57.9298 39.1839C58.4101 39.1881 58.8097 39.1839 58.8182 39.1754C58.8309 39.1626 59.0095 38.6228 59.2135 37.9724L59.5876 36.7907H61.0031H62.4186L62.6056 37.3858C62.7077 37.7131 62.8777 38.253 62.9797 38.5845L63.171 39.1924H64.0382C64.5185 39.1924 64.9096 39.1796 64.9096 39.1584C64.9096 39.1414 64.2379 37.0287 63.4133 34.4612L61.9128 29.7981H60.9946H60.0764L58.5674 34.4825ZM61.4622 33.7004C61.7002 34.4782 61.9085 35.1456 61.9213 35.1796C61.9383 35.2306 61.8022 35.2391 60.9988 35.2391C60.2635 35.2391 60.0594 35.2264 60.0722 35.1839C60.0849 35.1584 60.2932 34.4782 60.5355 33.6791C60.7778 32.8799 60.9903 32.2423 61.0031 32.2551C61.0158 32.2721 61.2241 32.9225 61.4622 33.7004Z" fill="white"/>
<path d="M68.2381 33.4411C68.2508 37.4708 68.2381 37.2668 68.5314 37.8534C68.8757 38.5505 69.441 38.9969 70.2657 39.2222C70.6568 39.3284 71.8683 39.3327 72.2636 39.2222C73.271 38.9544 73.9852 38.2657 74.2189 37.3391C74.2997 37.0245 74.304 36.8587 74.304 33.4028V29.7981H73.4963H72.6929L72.6802 33.3136C72.6674 36.6164 72.6632 36.846 72.5909 37.0415C72.4209 37.4921 72.1531 37.6791 71.5792 37.7514C70.8906 37.8364 70.3635 37.6876 70.1297 37.3433C69.8831 36.982 69.8831 36.9862 69.8831 33.2328V29.7981H69.0542H68.2211L68.2381 33.4411Z" fill="white"/>
</svg>
