<svg width="12" height="66" viewBox="0 0 12 66" fill="none" xmlns="http://www.w3.org/2000/svg">
<path opacity="0.7" d="M9.216 62.4491C9.216 63.0171 9.096 63.5331 8.856 63.9971C8.616 64.4611 8.26 64.8291 7.788 65.1011C7.316 65.3651 6.728 65.4971 6.024 65.4971H5.724V64.3211H6.24C6.84 64.3211 7.308 64.1451 7.644 63.7931C7.972 63.4411 8.136 62.9931 8.136 62.4491C8.136 61.9051 7.972 61.4571 7.644 61.1051C7.308 60.7531 6.84 60.5771 6.24 60.5771H1.056V59.4011H6.024C6.728 59.4011 7.316 59.5371 7.788 59.8091C8.26 60.0731 8.616 60.4371 8.856 60.9011C9.096 61.3571 9.216 61.8731 9.216 62.4491ZM1.296 64.3451H0.240001L0.240001 59.4011H1.296L1.296 64.3451ZM9 53.2973H7.08V53.4893H4.86C4.42 53.4893 4.088 53.6053 3.864 53.8373C3.64 54.0613 3.528 54.3933 3.528 54.8333C3.528 55.0813 3.532 55.3373 3.54 55.6013C3.548 55.8653 3.556 56.1173 3.564 56.3573C3.572 56.5973 3.584 56.8053 3.6 56.9813H2.592C2.576 56.8053 2.564 56.6213 2.556 56.4293C2.54 56.2293 2.532 56.0253 2.532 55.8173C2.524 55.6093 2.52 55.4093 2.52 55.2173C2.52 54.5613 2.6 54.0253 2.76 53.6093C2.912 53.1933 3.164 52.8853 3.516 52.6853C3.868 52.4853 4.344 52.3853 4.944 52.3853H9V53.2973ZM9.168 55.3973C9.168 55.8773 9.088 56.2933 8.928 56.6453C8.76 56.9893 8.52 57.2573 8.208 57.4493C7.896 57.6333 7.52 57.7253 7.08 57.7253C6.624 57.7253 6.244 57.6253 5.94 57.4253C5.636 57.2173 5.408 56.9173 5.256 56.5253C5.096 56.1333 5.016 55.6613 5.016 55.1093V53.3693H5.88V55.1573C5.88 55.6213 5.992 55.9773 6.216 56.2253C6.44 56.4733 6.728 56.5973 7.08 56.5973C7.432 56.5973 7.716 56.4733 7.932 56.2253C8.148 55.9773 8.256 55.6213 8.256 55.1573C8.256 54.8853 8.208 54.6253 8.112 54.3773C8.008 54.1293 7.84 53.9253 7.608 53.7653C7.368 53.5973 7.04 53.5053 6.624 53.4893L7.08 53.1773C7.536 53.2173 7.92 53.3293 8.232 53.5133C8.536 53.6893 8.768 53.9373 8.928 54.2573C9.088 54.5693 9.168 54.9493 9.168 55.3973ZM9 50.271H2.592V49.359H5.34V49.503C4.708 49.503 4.176 49.419 3.744 49.251C3.304 49.075 2.972 48.811 2.748 48.459C2.516 48.107 2.4 47.663 2.4 47.127V47.079C2.4 46.271 2.652 45.675 3.156 45.291C3.66 44.899 4.388 44.703 5.34 44.703H9V45.855H5.1C4.604 45.855 4.208 45.995 3.912 46.275C3.608 46.555 3.456 46.939 3.456 47.427C3.456 47.931 3.612 48.339 3.924 48.651C4.236 48.963 4.652 49.119 5.172 49.119H9V50.271ZM9.192 40.3752C9.192 41.1352 8.944 41.7192 8.448 42.1272C7.952 42.5352 7.236 42.7392 6.3 42.7392L2.58 42.7392V41.5872H6.528C7.032 41.5872 7.428 41.4512 7.716 41.1792C7.996 40.9072 8.136 40.5392 8.136 40.0752C8.136 39.5952 7.984 39.2032 7.68 38.8992C7.368 38.5952 6.944 38.4432 6.408 38.4432H2.58V37.2912H9V38.2032H6.252V38.0592C6.884 38.0592 7.42 38.1432 7.86 38.3112C8.292 38.4792 8.624 38.7312 8.856 39.0672C9.08 39.3952 9.192 39.8152 9.192 40.3272V40.3752ZM9 31.1841H7.08V31.3761H4.86C4.42 31.3761 4.088 31.4921 3.864 31.7241C3.64 31.9481 3.528 32.2801 3.528 32.7201C3.528 32.9681 3.532 33.2241 3.54 33.4881C3.548 33.7521 3.556 34.0041 3.564 34.2441C3.572 34.4841 3.584 34.6921 3.6 34.8681H2.592C2.576 34.6921 2.564 34.5081 2.556 34.3161C2.54 34.1161 2.532 33.9121 2.532 33.7041C2.524 33.4961 2.52 33.2961 2.52 33.1041C2.52 32.4481 2.6 31.9121 2.76 31.4961C2.912 31.0801 3.164 30.7721 3.516 30.5721C3.868 30.3721 4.344 30.2721 4.944 30.2721H9V31.1841ZM9.168 33.2841C9.168 33.7641 9.088 34.1801 8.928 34.5321C8.76 34.8761 8.52 35.1441 8.208 35.3361C7.896 35.5201 7.52 35.6121 7.08 35.6121C6.624 35.6121 6.244 35.5121 5.94 35.3121C5.636 35.1041 5.408 34.8041 5.256 34.4121C5.096 34.0201 5.016 33.5481 5.016 32.9961V31.2561H5.88V33.0441C5.88 33.5081 5.992 33.8641 6.216 34.1121C6.44 34.3601 6.728 34.4841 7.08 34.4841C7.432 34.4841 7.716 34.3601 7.932 34.1121C8.148 33.8641 8.256 33.5081 8.256 33.0441C8.256 32.7721 8.208 32.5121 8.112 32.2641C8.008 32.0161 7.84 31.8121 7.608 31.6521C7.368 31.4841 7.04 31.3921 6.624 31.3761L7.08 31.0641C7.536 31.1041 7.92 31.2161 8.232 31.4001C8.536 31.5761 8.768 31.8241 8.928 32.1441C9.088 32.4561 9.168 32.8361 9.168 33.2841ZM9 28.1577H2.592V27.2457H5.232V27.2937C4.296 27.2937 3.612 27.0897 3.18 26.6817C2.74 26.2657 2.52 25.6457 2.52 24.8217V24.6057H3.552V25.0137C3.552 25.6537 3.724 26.1457 4.068 26.4897C4.404 26.8337 4.892 27.0057 5.532 27.0057H9V28.1577ZM11.496 23.4569L10.464 23.4569V22.5329C10.464 22.2609 10.428 22.0329 10.356 21.8489C10.292 21.6569 10.18 21.5009 10.02 21.3809C9.86 21.2529 9.648 21.1489 9.384 21.0689L2.592 19.0529V17.9249L9.684 20.0609C10.108 20.1889 10.452 20.3689 10.716 20.6009C10.988 20.8329 11.184 21.1169 11.304 21.4529C11.432 21.7809 11.496 22.1649 11.496 22.6049V23.4569ZM8.856 21.5009H7.896V20.1089H8.856V21.5009ZM8.856 21.6209L2.592 23.9129V22.7369L8.856 20.5409V21.6209ZM9 13.9239H7.56C7.208 13.9239 6.908 13.8759 6.66 13.7799C6.412 13.6759 6.188 13.4999 5.988 13.2519C5.78 13.0039 5.58 12.6679 5.388 12.2439L4.632 10.5999C4.448 10.1999 4.212 9.88392 3.924 9.65192C3.628 9.41992 3.248 9.30392 2.784 9.30392C2.224 9.30392 1.788 9.45992 1.476 9.77192C1.164 10.0839 1.008 10.5239 1.008 11.0919C1.008 11.6519 1.164 12.0919 1.476 12.4119C1.788 12.7319 2.224 12.8919 2.784 12.8919V14.0199C2.28 14.0199 1.816 13.9159 1.392 13.7079C0.968001 13.4919 0.632 13.1679 0.384 12.7359C0.128 12.3039 0 11.7559 0 11.0919C0 10.4279 0.128 9.88392 0.384 9.45992C0.632 9.02792 0.960001 8.70792 1.368 8.49992C1.776 8.28392 2.22 8.17592 2.7 8.17592H2.868C3.5 8.17592 4.032 8.35992 4.464 8.72792C4.896 9.08792 5.252 9.57592 5.532 10.1919L6.288 11.8359C6.456 12.2039 6.624 12.4519 6.792 12.5799C6.96 12.7079 7.184 12.7719 7.464 12.7719H8.568L8.016 13.0839V8.06792H9V13.9239ZM9.216 3.82995C9.216 4.48595 9.088 5.04195 8.832 5.49795C8.576 5.95395 8.236 6.30195 7.812 6.54195C7.388 6.77395 6.928 6.88995 6.432 6.88995V5.76195C6.976 5.76195 7.408 5.58995 7.728 5.24595C8.048 4.89395 8.208 4.42195 8.208 3.82995C8.208 3.43795 8.136 3.09795 7.992 2.80995C7.848 2.52195 7.644 2.29795 7.38 2.13795C7.108 1.97795 6.792 1.89795 6.432 1.89795C5.888 1.89795 5.448 2.07395 5.112 2.42595C4.776 2.76995 4.608 3.23395 4.608 3.81795C4.608 4.06595 4.64 4.28195 4.704 4.46595C4.76 4.64195 4.832 4.79795 4.92 4.93395L3.888 5.50995L1.44 2.16195L1.224 2.28195L1.224 6.54195H0.240001L0.240001 1.20195H1.836L3.852 3.97395L3.888 4.81395C3.84 4.67795 3.8 4.52995 3.768 4.36995C3.736 4.20195 3.72 4.00595 3.72 3.78195C3.72 3.14195 3.84 2.59795 4.08 2.14995C4.32 1.70195 4.64 1.36195 5.04 1.12995C5.44 0.889953 5.876 0.769953 6.348 0.769953H6.516C6.98 0.769953 7.42 0.889953 7.836 1.12995C8.244 1.36195 8.576 1.70595 8.832 2.16195C9.088 2.60995 9.216 3.16595 9.216 3.82995Z" fill="#DEDEDE"/>
</svg>
