<svg width="10" height="69" viewBox="0 0 10 69" fill="none" xmlns="http://www.w3.org/2000/svg">
<path opacity="0.7" d="M9.216 63.7747C9.216 64.5587 9.076 65.2347 8.796 65.8027C8.516 66.3707 8.148 66.8387 7.692 67.2067C7.236 67.5747 6.748 67.8507 6.228 68.0347C5.708 68.2107 5.208 68.2987 4.728 68.2987H4.464C3.944 68.2987 3.42 68.2067 2.892 68.0227C2.364 67.8387 1.884 67.5587 1.452 67.1827C1.012 66.8067 0.660001 66.3387 0.396001 65.7787C0.132 65.2107 0 64.5427 0 63.7747C0 63.0067 0.132 62.3427 0.396001 61.7827C0.660001 61.2147 1.012 60.7427 1.452 60.3667C1.884 59.9907 2.364 59.7107 2.892 59.5267C3.42 59.3427 3.944 59.2507 4.464 59.2507H4.728C5.208 59.2507 5.708 59.3427 6.228 59.5267C6.748 59.7027 7.236 59.9747 7.692 60.3427C8.148 60.7107 8.516 61.1787 8.796 61.7467C9.076 62.3147 9.216 62.9907 9.216 63.7747ZM8.136 63.7747C8.136 63.2627 8.04 62.8027 7.848 62.3947C7.656 61.9787 7.396 61.6267 7.068 61.3387C6.732 61.0507 6.356 60.8307 5.94 60.6787C5.516 60.5267 5.072 60.4507 4.608 60.4507C4.12 60.4507 3.664 60.5267 3.24 60.6787C2.816 60.8307 2.444 61.0507 2.124 61.3387C1.796 61.6267 1.54 61.9787 1.356 62.3947C1.172 62.8027 1.08 63.2627 1.08 63.7747C1.08 64.2867 1.172 64.7507 1.356 65.1667C1.54 65.5747 1.796 65.9227 2.124 66.2107C2.444 66.4987 2.816 66.7187 3.24 66.8707C3.664 67.0227 4.12 67.0987 4.608 67.0987C5.072 67.0987 5.516 67.0227 5.94 66.8707C6.356 66.7187 6.732 66.4987 7.068 66.2107C7.396 65.9227 7.656 65.5747 7.848 65.1667C8.04 64.7507 8.136 64.2867 8.136 63.7747ZM9.216 54.7359C9.216 55.2879 9.12 55.7679 8.928 56.1759C8.736 56.5759 8.48 56.9079 8.16 57.1719C7.832 57.4359 7.472 57.6359 7.08 57.7719C6.688 57.8999 6.296 57.9639 5.904 57.9639H5.688C5.28 57.9639 4.88 57.8999 4.488 57.7719C4.096 57.6359 3.744 57.4359 3.432 57.1719C3.112 56.8999 2.856 56.5639 2.664 56.1639C2.472 55.7639 2.376 55.2959 2.376 54.7599C2.376 54.2239 2.476 53.7439 2.676 53.3199C2.876 52.8879 3.16 52.5439 3.528 52.2879C3.888 52.0239 4.316 51.8759 4.812 51.8439V52.9479C4.412 53.0039 4.08 53.1879 3.816 53.4999C3.544 53.8119 3.408 54.2319 3.408 54.7599C3.408 55.2159 3.512 55.5959 3.72 55.8999C3.928 56.2039 4.212 56.4319 4.572 56.5839C4.932 56.7359 5.34 56.8119 5.796 56.8119C6.236 56.8119 6.64 56.7359 7.008 56.5839C7.368 56.4319 7.656 56.2039 7.872 55.8999C8.08 55.5879 8.184 55.1999 8.184 54.7359C8.184 54.3759 8.12 54.0639 7.992 53.7999C7.864 53.5359 7.692 53.3239 7.476 53.1639C7.26 53.0039 7.016 52.9079 6.744 52.8759V51.7719C7.248 51.7959 7.684 51.9439 8.052 52.2159C8.42 52.4799 8.708 52.8319 8.916 53.2719C9.116 53.7039 9.216 54.1919 9.216 54.7359ZM9.072 47.7105C9.072 48.1905 9.004 48.6065 8.868 48.9585C8.732 49.3025 8.5 49.5705 8.172 49.7625C7.836 49.9465 7.384 50.0385 6.816 50.0385H0.648V48.9345H6.96C7.304 48.9345 7.572 48.8425 7.764 48.6585C7.948 48.4665 8.04 48.1985 8.04 47.8545V46.7265H9.072V47.7105ZM3.456 51.1425H2.592L2.592 46.7265H3.456L3.456 51.1425ZM9.216 42.192C9.216 42.752 9.12 43.244 8.928 43.668C8.736 44.092 8.484 44.452 8.172 44.748C7.852 45.036 7.496 45.256 7.104 45.408C6.712 45.552 6.312 45.624 5.904 45.624H5.688C5.28 45.624 4.88 45.548 4.488 45.396C4.088 45.244 3.732 45.02 3.42 44.724C3.1 44.428 2.848 44.068 2.664 43.644C2.472 43.22 2.376 42.736 2.376 42.192C2.376 41.648 2.472 41.164 2.664 40.74C2.848 40.316 3.1 39.956 3.42 39.66C3.732 39.364 4.088 39.14 4.488 38.988C4.88 38.836 5.28 38.76 5.688 38.76H5.904C6.312 38.76 6.712 38.836 7.104 38.988C7.496 39.132 7.852 39.352 8.172 39.648C8.484 39.936 8.736 40.292 8.928 40.716C9.12 41.14 9.216 41.632 9.216 42.192ZM8.184 42.192C8.184 41.712 8.08 41.304 7.872 40.968C7.656 40.624 7.368 40.364 7.008 40.188C6.648 40.004 6.244 39.912 5.796 39.912C5.34 39.912 4.932 40.004 4.572 40.188C4.212 40.372 3.928 40.636 3.72 40.98C3.512 41.316 3.408 41.72 3.408 42.192C3.408 42.656 3.512 43.06 3.72 43.404C3.928 43.748 4.212 44.012 4.572 44.196C4.932 44.38 5.34 44.472 5.796 44.472C6.244 44.472 6.648 44.384 7.008 44.208C7.368 44.024 7.656 43.764 7.872 43.428C8.08 43.084 8.184 42.672 8.184 42.192ZM9.216 33.6507C9.216 34.1787 9.1 34.6507 8.868 35.0667C8.636 35.4747 8.3 35.7987 7.86 36.0387C7.412 36.2787 6.876 36.4107 6.252 36.4347V36.1227H9V37.0347H0.240001V35.8827H4.5L5.376 36.2907C4.68 36.2587 4.112 36.1187 3.672 35.8707C3.232 35.6227 2.908 35.2987 2.7 34.8987C2.484 34.4907 2.376 34.0427 2.376 33.5547C2.376 33.0987 2.464 32.6827 2.64 32.3067C2.808 31.9307 3.044 31.6067 3.348 31.3347C3.644 31.0627 3.992 30.8547 4.392 30.7107C4.784 30.5667 5.208 30.4947 5.664 30.4947H5.88C6.336 30.4947 6.764 30.5707 7.164 30.7227C7.564 30.8667 7.92 31.0787 8.232 31.3587C8.536 31.6387 8.776 31.9747 8.952 32.3667C9.128 32.7507 9.216 33.1787 9.216 33.6507ZM8.208 33.7827C8.208 33.3507 8.104 32.9747 7.896 32.6547C7.688 32.3347 7.404 32.0867 7.044 31.9107C6.676 31.7347 6.252 31.6467 5.772 31.6467C5.292 31.6467 4.872 31.7387 4.512 31.9227C4.152 32.0987 3.876 32.3467 3.684 32.6667C3.484 32.9867 3.384 33.3587 3.384 33.7827C3.384 34.1667 3.472 34.5227 3.648 34.8507C3.816 35.1787 4.064 35.4427 4.392 35.6427C4.712 35.8347 5.1 35.9307 5.556 35.9307H6.108C6.548 35.9307 6.924 35.8307 7.236 35.6307C7.548 35.4307 7.788 35.1667 7.956 34.8387C8.124 34.5107 8.208 34.1587 8.208 33.7827ZM9.216 26.0372C9.216 26.5972 9.12 27.0812 8.928 27.4892C8.736 27.8972 8.484 28.2292 8.172 28.4852C7.852 28.7412 7.496 28.9332 7.104 29.0612C6.712 29.1812 6.312 29.2412 5.904 29.2412H5.688C5.272 29.2412 4.868 29.1812 4.476 29.0612C4.084 28.9332 3.732 28.7412 3.42 28.4852C3.1 28.2292 2.848 27.9052 2.664 27.5132C2.472 27.1132 2.376 26.6452 2.376 26.1092C2.376 25.4132 2.528 24.8412 2.832 24.3932C3.128 23.9372 3.512 23.6012 3.984 23.3852C4.456 23.1612 4.96 23.0492 5.496 23.0492H6.012L6.012 28.7372H5.148L5.148 23.8892L5.616 24.1532C5.16 24.1532 4.768 24.2252 4.44 24.3692C4.104 24.5132 3.844 24.7292 3.66 25.0172C3.476 25.3052 3.384 25.6692 3.384 26.1092C3.384 26.5652 3.488 26.9452 3.696 27.2492C3.904 27.5452 4.188 27.7692 4.548 27.9212C4.908 28.0652 5.324 28.1372 5.796 28.1372C6.252 28.1372 6.664 28.0652 7.032 27.9212C7.392 27.7692 7.68 27.5372 7.896 27.2252C8.104 26.9132 8.208 26.5172 8.208 26.0372C8.208 25.5332 8.096 25.1252 7.872 24.8132C7.648 24.4932 7.388 24.3012 7.092 24.2372V23.1572C7.532 23.2452 7.912 23.4212 8.232 23.6852C8.552 23.9492 8.796 24.2812 8.964 24.6812C9.132 25.0812 9.216 25.5332 9.216 26.0372ZM9 21.4136H2.592V20.5016H5.232V20.5496C4.296 20.5496 3.612 20.3456 3.18 19.9376C2.74 19.5216 2.52 18.9016 2.52 18.0776V17.8616H3.552V18.2696C3.552 18.9096 3.724 19.4016 4.068 19.7456C4.404 20.0896 4.892 20.2616 5.532 20.2616H9V21.4136ZM9 13.9532H7.56C7.208 13.9532 6.908 13.9052 6.66 13.8092C6.412 13.7052 6.188 13.5292 5.988 13.2812C5.78 13.0332 5.58 12.6972 5.388 12.2732L4.632 10.6292C4.448 10.2292 4.212 9.91322 3.924 9.68122C3.628 9.44922 3.248 9.33322 2.784 9.33322C2.224 9.33322 1.788 9.48922 1.476 9.80122C1.164 10.1132 1.008 10.5532 1.008 11.1212C1.008 11.6812 1.164 12.1212 1.476 12.4412C1.788 12.7612 2.224 12.9212 2.784 12.9212V14.0492C2.28 14.0492 1.816 13.9452 1.392 13.7372C0.968001 13.5212 0.632 13.1972 0.384 12.7652C0.128 12.3332 0 11.7852 0 11.1212C0 10.4572 0.128 9.91322 0.384 9.48922C0.632 9.05722 0.960001 8.73722 1.368 8.52922C1.776 8.31322 2.22 8.20522 2.7 8.20522H2.868C3.5 8.20522 4.032 8.38922 4.464 8.75722C4.896 9.11722 5.252 9.60522 5.532 10.2212L6.288 11.8652C6.456 12.2332 6.624 12.4812 6.792 12.6092C6.96 12.7372 7.184 12.8012 7.464 12.8012H8.568L8.016 13.1132L8.016 8.09722H9L9 13.9532ZM9 6.53525H7.56C7.208 6.53525 6.908 6.48725 6.66 6.39125C6.412 6.28725 6.188 6.11125 5.988 5.86325C5.78 5.61525 5.58 5.27925 5.388 4.85525L4.632 3.21125C4.448 2.81125 4.212 2.49525 3.924 2.26325C3.628 2.03125 3.248 1.91525 2.784 1.91525C2.224 1.91525 1.788 2.07125 1.476 2.38325C1.164 2.69525 1.008 3.13525 1.008 3.70325C1.008 4.26325 1.164 4.70325 1.476 5.02325C1.788 5.34325 2.224 5.50325 2.784 5.50325V6.63125C2.28 6.63125 1.816 6.52725 1.392 6.31925C0.968001 6.10325 0.632 5.77925 0.384 5.34725C0.128 4.91525 0 4.36725 0 3.70325C0 3.03925 0.128 2.49525 0.384 2.07125C0.632 1.63925 0.960001 1.31925 1.368 1.11125C1.776 0.895249 2.22 0.787249 2.7 0.787249H2.868C3.5 0.787249 4.032 0.971249 4.464 1.33925C4.896 1.69925 5.252 2.18725 5.532 2.80325L6.288 4.44725C6.456 4.81525 6.624 5.06325 6.792 5.19125C6.96 5.31925 7.184 5.38325 7.464 5.38325H8.568L8.016 5.69525V0.679249H9V6.53525Z" fill="#DEDEDE"/>
</svg>
