<svg width="10" height="81" viewBox="0 0 10 81" fill="none" xmlns="http://www.w3.org/2000/svg">
<path opacity="0.7" d="M9 80.644H0.240001L0.240001 78.724L7.944 74.272V73.888L8.16 74.128H0.240001V73H9L9 74.944L1.296 79.396V79.78L1.08 79.54H9V80.644ZM9.216 67.6764C9.216 68.2364 9.12 68.7284 8.928 69.1524C8.736 69.5764 8.484 69.9364 8.172 70.2324C7.852 70.5204 7.496 70.7404 7.104 70.8924C6.712 71.0364 6.312 71.1084 5.904 71.1084H5.688C5.28 71.1084 4.88 71.0324 4.488 70.8804C4.088 70.7284 3.732 70.5044 3.42 70.2084C3.1 69.9124 2.848 69.5524 2.664 69.1284C2.472 68.7044 2.376 68.2204 2.376 67.6764C2.376 67.1324 2.472 66.6484 2.664 66.2244C2.848 65.8004 3.1 65.4404 3.42 65.1444C3.732 64.8484 4.088 64.6244 4.488 64.4724C4.88 64.3204 5.28 64.2444 5.688 64.2444H5.904C6.312 64.2444 6.712 64.3204 7.104 64.4724C7.496 64.6164 7.852 64.8364 8.172 65.1324C8.484 65.4204 8.736 65.7764 8.928 66.2004C9.12 66.6244 9.216 67.1164 9.216 67.6764ZM8.184 67.6764C8.184 67.1964 8.08 66.7884 7.872 66.4524C7.656 66.1084 7.368 65.8484 7.008 65.6724C6.648 65.4884 6.244 65.3964 5.796 65.3964C5.34 65.3964 4.932 65.4884 4.572 65.6724C4.212 65.8564 3.928 66.1204 3.72 66.4644C3.512 66.8004 3.408 67.2044 3.408 67.6764C3.408 68.1404 3.512 68.5444 3.72 68.8884C3.928 69.2324 4.212 69.4964 4.572 69.6804C4.932 69.8644 5.34 69.9564 5.796 69.9564C6.244 69.9564 6.648 69.8684 7.008 69.6924C7.368 69.5084 7.656 69.2484 7.872 68.9124C8.08 68.5684 8.184 68.1564 8.184 67.6764ZM9 61.2682L2.592 63.4522V62.2522L9 60.1162V61.2682ZM9 60.9802H8.088V59.5882H9V60.9802ZM9 60.4282L2.592 58.5682V57.4402L9 59.3362V60.4282ZM9.216 53.3263C9.216 53.8863 9.12 54.3703 8.928 54.7783C8.736 55.1863 8.484 55.5183 8.172 55.7743C7.852 56.0303 7.496 56.2223 7.104 56.3503C6.712 56.4703 6.312 56.5303 5.904 56.5303H5.688C5.272 56.5303 4.868 56.4703 4.476 56.3503C4.084 56.2223 3.732 56.0303 3.42 55.7743C3.1 55.5183 2.848 55.1943 2.664 54.8023C2.472 54.4023 2.376 53.9343 2.376 53.3983C2.376 52.7023 2.528 52.1303 2.832 51.6823C3.128 51.2263 3.512 50.8903 3.984 50.6743C4.456 50.4503 4.96 50.3383 5.496 50.3383H6.012V56.0263H5.148V51.1783L5.616 51.4423C5.16 51.4423 4.768 51.5143 4.44 51.6583C4.104 51.8023 3.844 52.0183 3.66 52.3063C3.476 52.5943 3.384 52.9583 3.384 53.3983C3.384 53.8543 3.488 54.2343 3.696 54.5383C3.904 54.8343 4.188 55.0583 4.548 55.2103C4.908 55.3543 5.324 55.4263 5.796 55.4263C6.252 55.4263 6.664 55.3543 7.032 55.2103C7.392 55.0583 7.68 54.8263 7.896 54.5143C8.104 54.2023 8.208 53.8063 8.208 53.3263C8.208 52.8223 8.096 52.4143 7.872 52.1023C7.648 51.7823 7.388 51.5903 7.092 51.5263V50.4463C7.532 50.5343 7.912 50.7103 8.232 50.9743C8.552 51.2383 8.796 51.5703 8.964 51.9703C9.132 52.3703 9.216 52.8223 9.216 53.3263ZM9 48.7026H2.592V47.7906H5.34V47.9346C4.716 47.9346 4.188 47.8546 3.756 47.6946C3.316 47.5266 2.98 47.2786 2.748 46.9506C2.516 46.6226 2.4 46.2066 2.4 45.7026V45.6546C2.4 45.1506 2.516 44.7346 2.748 44.4066C2.98 44.0706 3.316 43.8226 3.756 43.6626C4.188 43.5026 4.716 43.4226 5.34 43.4226V43.7586C4.716 43.7586 4.188 43.6746 3.756 43.5066C3.316 43.3386 2.98 43.0906 2.748 42.7626C2.516 42.4266 2.4 42.0066 2.4 41.5026V41.4546C2.4 40.9506 2.516 40.5306 2.748 40.1946C2.98 39.8586 3.316 39.6106 3.756 39.4506C4.188 39.2826 4.716 39.1986 5.34 39.1986H9V40.3506H5.088C4.568 40.3506 4.168 40.4786 3.888 40.7346C3.6 40.9906 3.456 41.3466 3.456 41.8026C3.456 42.2746 3.608 42.6546 3.912 42.9426C4.208 43.2306 4.624 43.3746 5.16 43.3746H9V44.5266H5.088C4.568 44.5266 4.168 44.6546 3.888 44.9106C3.6 45.1666 3.456 45.5226 3.456 45.9786C3.456 46.4506 3.608 46.8306 3.912 47.1186C4.208 47.4066 4.624 47.5506 5.16 47.5506H9V48.7026ZM9.216 33.7053C9.216 34.2333 9.1 34.7053 8.868 35.1213C8.636 35.5293 8.3 35.8533 7.86 36.0933C7.412 36.3333 6.876 36.4653 6.252 36.4893V36.1773H9V37.0893H0.240001V35.9373H4.5L5.376 36.3453C4.68 36.3133 4.112 36.1733 3.672 35.9253C3.232 35.6773 2.908 35.3533 2.7 34.9533C2.484 34.5453 2.376 34.0973 2.376 33.6093C2.376 33.1533 2.464 32.7373 2.64 32.3613C2.808 31.9853 3.044 31.6613 3.348 31.3893C3.644 31.1173 3.992 30.9093 4.392 30.7653C4.784 30.6213 5.208 30.5493 5.664 30.5493H5.88C6.336 30.5493 6.764 30.6253 7.164 30.7773C7.564 30.9213 7.92 31.1333 8.232 31.4133C8.536 31.6933 8.776 32.0293 8.952 32.4213C9.128 32.8053 9.216 33.2333 9.216 33.7053ZM8.208 33.8373C8.208 33.4053 8.104 33.0293 7.896 32.7093C7.688 32.3893 7.404 32.1413 7.044 31.9653C6.676 31.7893 6.252 31.7013 5.772 31.7013C5.292 31.7013 4.872 31.7933 4.512 31.9773C4.152 32.1533 3.876 32.4013 3.684 32.7213C3.484 33.0413 3.384 33.4133 3.384 33.8373C3.384 34.2213 3.472 34.5773 3.648 34.9053C3.816 35.2333 4.064 35.4973 4.392 35.6973C4.712 35.8893 5.1 35.9853 5.556 35.9853H6.108C6.548 35.9853 6.924 35.8853 7.236 35.6853C7.548 35.4853 7.788 35.2213 7.956 34.8933C8.124 34.5653 8.208 34.2133 8.208 33.8373ZM9.216 26.0919C9.216 26.6519 9.12 27.1359 8.928 27.5439C8.736 27.9519 8.484 28.2839 8.172 28.5399C7.852 28.7959 7.496 28.9879 7.104 29.1159C6.712 29.2359 6.312 29.2959 5.904 29.2959H5.688C5.272 29.2959 4.868 29.2359 4.476 29.1159C4.084 28.9879 3.732 28.7959 3.42 28.5399C3.1 28.2839 2.848 27.9599 2.664 27.5679C2.472 27.1679 2.376 26.6999 2.376 26.1639C2.376 25.4679 2.528 24.8959 2.832 24.4479C3.128 23.9919 3.512 23.6559 3.984 23.4399C4.456 23.2159 4.96 23.1039 5.496 23.1039H6.012L6.012 28.7919H5.148L5.148 23.9439L5.616 24.2079C5.16 24.2079 4.768 24.2799 4.44 24.4239C4.104 24.5679 3.844 24.7839 3.66 25.0719C3.476 25.3599 3.384 25.7239 3.384 26.1639C3.384 26.6199 3.488 26.9999 3.696 27.3039C3.904 27.5999 4.188 27.8239 4.548 27.9759C4.908 28.1199 5.324 28.1919 5.796 28.1919C6.252 28.1919 6.664 28.1199 7.032 27.9759C7.392 27.8239 7.68 27.5919 7.896 27.2799C8.104 26.9679 8.208 26.5719 8.208 26.0919C8.208 25.5879 8.096 25.1799 7.872 24.8679C7.648 24.5479 7.388 24.3559 7.092 24.2919L7.092 23.2119C7.532 23.2999 7.912 23.4759 8.232 23.7399C8.552 24.0039 8.796 24.3359 8.964 24.7359C9.132 25.1359 9.216 25.5879 9.216 26.0919ZM9 21.4683H2.592V20.5563H5.232V20.6043C4.296 20.6043 3.612 20.4003 3.18 19.9923C2.74 19.5763 2.52 18.9563 2.52 18.1323V17.9163H3.552V18.3243C3.552 18.9643 3.724 19.4563 4.068 19.8003C4.404 20.1443 4.892 20.3163 5.532 20.3163H9V21.4683ZM9 14.0079H7.56C7.208 14.0079 6.908 13.9599 6.66 13.8639C6.412 13.7599 6.188 13.5839 5.988 13.3359C5.78 13.0879 5.58 12.7519 5.388 12.3279L4.632 10.6839C4.448 10.2839 4.212 9.9679 3.924 9.7359C3.628 9.5039 3.248 9.3879 2.784 9.3879C2.224 9.3879 1.788 9.5439 1.476 9.8559C1.164 10.1679 1.008 10.6079 1.008 11.1759C1.008 11.7359 1.164 12.1759 1.476 12.4959C1.788 12.8159 2.224 12.9759 2.784 12.9759V14.1039C2.28 14.1039 1.816 13.9999 1.392 13.7919C0.968001 13.5759 0.632 13.2519 0.384 12.8199C0.128 12.3879 0 11.8399 0 11.1759C0 10.5119 0.128 9.9679 0.384 9.5439C0.632 9.1119 0.960001 8.7919 1.368 8.5839C1.776 8.3679 2.22 8.2599 2.7 8.2599H2.868C3.5 8.2599 4.032 8.4439 4.464 8.8119C4.896 9.1719 5.252 9.6599 5.532 10.2759L6.288 11.9199C6.456 12.2879 6.624 12.5359 6.792 12.6639C6.96 12.7919 7.184 12.8559 7.464 12.8559H8.568L8.016 13.1679V8.1519H9V14.0079ZM9 6.58994H7.56C7.208 6.58994 6.908 6.54194 6.66 6.44594C6.412 6.34194 6.188 6.16594 5.988 5.91793C5.78 5.66993 5.58 5.33393 5.388 4.90993L4.632 3.26593C4.448 2.86593 4.212 2.54993 3.924 2.31793C3.628 2.08593 3.248 1.96993 2.784 1.96993C2.224 1.96993 1.788 2.12593 1.476 2.43793C1.164 2.74993 1.008 3.18993 1.008 3.75793C1.008 4.31793 1.164 4.75793 1.476 5.07793C1.788 5.39793 2.224 5.55793 2.784 5.55793V6.68594C2.28 6.68594 1.816 6.58194 1.392 6.37394C0.968001 6.15793 0.632 5.83393 0.384 5.40193C0.128 4.96993 0 4.42193 0 3.75793C0 3.09393 0.128 2.54993 0.384 2.12593C0.632 1.69393 0.960001 1.37393 1.368 1.16593C1.776 0.949934 2.22 0.841934 2.7 0.841934H2.868C3.5 0.841934 4.032 1.02593 4.464 1.39393C4.896 1.75393 5.252 2.24193 5.532 2.85793L6.288 4.50193C6.456 4.86993 6.624 5.11793 6.792 5.24593C6.96 5.37393 7.184 5.43793 7.464 5.43793H8.568L8.016 5.74993V0.733934H9V6.58994Z" fill="#DEDEDE"/>
</svg>
