<svg width="12" height="70" viewBox="0 0 12 70" fill="none" xmlns="http://www.w3.org/2000/svg">
<path opacity="0.7" d="M9 69.6245H0.240001L0.240001 68.4485H9V69.6245ZM5.1 68.6885H4.044L4.032 64.9325H5.088L5.1 68.6885ZM1.296 68.6885H0.240001L0.240001 64.7285H1.296L1.296 68.6885ZM9.216 60.4708C9.216 61.0308 9.12 61.5148 8.928 61.9228C8.736 62.3308 8.484 62.6628 8.172 62.9188C7.852 63.1748 7.496 63.3668 7.104 63.4948C6.712 63.6148 6.312 63.6748 5.904 63.6748H5.688C5.272 63.6748 4.868 63.6148 4.476 63.4948C4.084 63.3668 3.732 63.1748 3.42 62.9188C3.1 62.6628 2.848 62.3388 2.664 61.9468C2.472 61.5468 2.376 61.0788 2.376 60.5428C2.376 59.8468 2.528 59.2748 2.832 58.8268C3.128 58.3708 3.512 58.0348 3.984 57.8188C4.456 57.5948 4.96 57.4828 5.496 57.4828H6.012L6.012 63.1708H5.148L5.148 58.3228L5.616 58.5868C5.16 58.5868 4.768 58.6588 4.44 58.8028C4.104 58.9468 3.844 59.1628 3.66 59.4508C3.476 59.7388 3.384 60.1028 3.384 60.5428C3.384 60.9988 3.488 61.3788 3.696 61.6828C3.904 61.9788 4.188 62.2028 4.548 62.3548C4.908 62.4988 5.324 62.5708 5.796 62.5708C6.252 62.5708 6.664 62.4988 7.032 62.3548C7.392 62.2028 7.68 61.9708 7.896 61.6588C8.104 61.3468 8.208 60.9508 8.208 60.4708C8.208 59.9668 8.096 59.5588 7.872 59.2468C7.648 58.9268 7.388 58.7348 7.092 58.6708V57.5908C7.532 57.6788 7.912 57.8548 8.232 58.1188C8.552 58.3828 8.796 58.7148 8.964 59.1148C9.132 59.5148 9.216 59.9668 9.216 60.4708ZM9.216 52.4632C9.216 52.9912 9.1 53.4632 8.868 53.8792C8.636 54.2872 8.3 54.6112 7.86 54.8512C7.412 55.0912 6.876 55.2232 6.252 55.2472V54.9352H9V55.8472H0.240001V54.6952H4.5L5.376 55.1032C4.68 55.0712 4.112 54.9312 3.672 54.6832C3.232 54.4352 2.908 54.1112 2.7 53.7112C2.484 53.3032 2.376 52.8552 2.376 52.3672C2.376 51.9112 2.464 51.4952 2.64 51.1192C2.808 50.7432 3.044 50.4192 3.348 50.1472C3.644 49.8752 3.992 49.6672 4.392 49.5232C4.784 49.3792 5.208 49.3072 5.664 49.3072H5.88C6.336 49.3072 6.764 49.3832 7.164 49.5352C7.564 49.6792 7.92 49.8912 8.232 50.1712C8.536 50.4512 8.776 50.7872 8.952 51.1792C9.128 51.5632 9.216 51.9912 9.216 52.4632ZM8.208 52.5952C8.208 52.1632 8.104 51.7872 7.896 51.4672C7.688 51.1472 7.404 50.8992 7.044 50.7232C6.676 50.5472 6.252 50.4592 5.772 50.4592C5.292 50.4592 4.872 50.5512 4.512 50.7352C4.152 50.9112 3.876 51.1592 3.684 51.4792C3.484 51.7992 3.384 52.1712 3.384 52.5952C3.384 52.9792 3.472 53.3352 3.648 53.6632C3.816 53.9912 4.064 54.2552 4.392 54.4552C4.712 54.6472 5.1 54.7432 5.556 54.7432H6.108C6.548 54.7432 6.924 54.6432 7.236 54.4432C7.548 54.2432 7.788 53.9792 7.956 53.6512C8.124 53.3232 8.208 52.9712 8.208 52.5952ZM9 47.5737H2.592V46.6617H5.232V46.7097C4.296 46.7097 3.612 46.5057 3.18 46.0977C2.74 45.6817 2.52 45.0617 2.52 44.2377V44.0217H3.552V44.4297C3.552 45.0697 3.724 45.5617 4.068 45.9057C4.404 46.2497 4.892 46.4217 5.532 46.4217H9V47.5737ZM9.192 40.4319C9.192 41.1919 8.944 41.7759 8.448 42.1839C7.952 42.5919 7.236 42.7959 6.3 42.7959L2.58 42.7959L2.58 41.6439H6.528C7.032 41.6439 7.428 41.5079 7.716 41.2359C7.996 40.9639 8.136 40.5959 8.136 40.1319C8.136 39.6519 7.984 39.2599 7.68 38.9559C7.368 38.6519 6.944 38.4999 6.408 38.4999H2.58V37.3479H9V38.2599H6.252V38.1159C6.884 38.1159 7.42 38.1999 7.86 38.3679C8.292 38.5359 8.624 38.7879 8.856 39.1239C9.08 39.4519 9.192 39.8719 9.192 40.3839V40.4319ZM9 31.2407H7.08V31.4327H4.86C4.42 31.4327 4.088 31.5487 3.864 31.7807C3.64 32.0047 3.528 32.3367 3.528 32.7767C3.528 33.0247 3.532 33.2807 3.54 33.5447C3.548 33.8087 3.556 34.0607 3.564 34.3007C3.572 34.5407 3.584 34.7487 3.6 34.9247H2.592C2.576 34.7487 2.564 34.5647 2.556 34.3727C2.54 34.1727 2.532 33.9687 2.532 33.7607C2.524 33.5527 2.52 33.3527 2.52 33.1607C2.52 32.5047 2.6 31.9687 2.76 31.5527C2.912 31.1367 3.164 30.8287 3.516 30.6287C3.868 30.4287 4.344 30.3287 4.944 30.3287H9V31.2407ZM9.168 33.3407C9.168 33.8207 9.088 34.2367 8.928 34.5887C8.76 34.9327 8.52 35.2007 8.208 35.3927C7.896 35.5767 7.52 35.6687 7.08 35.6687C6.624 35.6687 6.244 35.5687 5.94 35.3687C5.636 35.1607 5.408 34.8607 5.256 34.4687C5.096 34.0767 5.016 33.6047 5.016 33.0527V31.3127H5.88V33.1007C5.88 33.5647 5.992 33.9207 6.216 34.1687C6.44 34.4167 6.728 34.5407 7.08 34.5407C7.432 34.5407 7.716 34.4167 7.932 34.1687C8.148 33.9207 8.256 33.5647 8.256 33.1007C8.256 32.8287 8.208 32.5687 8.112 32.3207C8.008 32.0727 7.84 31.8687 7.608 31.7087C7.368 31.5407 7.04 31.4487 6.624 31.4327L7.08 31.1207C7.536 31.1607 7.92 31.2727 8.232 31.4567C8.536 31.6327 8.768 31.8807 8.928 32.2007C9.088 32.5127 9.168 32.8927 9.168 33.3407ZM9 28.2143H2.592V27.3023H5.232V27.3503C4.296 27.3503 3.612 27.1463 3.18 26.7383C2.74 26.3223 2.52 25.7023 2.52 24.8783V24.6623H3.552V25.0703C3.552 25.7103 3.724 26.2023 4.068 26.5463C4.404 26.8903 4.892 27.0623 5.532 27.0623H9V28.2143ZM11.496 23.5135L10.464 23.5135V22.5895C10.464 22.3175 10.428 22.0895 10.356 21.9055C10.292 21.7135 10.18 21.5575 10.02 21.4375C9.86 21.3095 9.648 21.2055 9.384 21.1255L2.592 19.1095V17.9815L9.684 20.1175C10.108 20.2455 10.452 20.4255 10.716 20.6575C10.988 20.8895 11.184 21.1735 11.304 21.5095C11.432 21.8375 11.496 22.2215 11.496 22.6615V23.5135ZM8.856 21.5575H7.896V20.1655H8.856V21.5575ZM8.856 21.6775L2.592 23.9695V22.7935L8.856 20.5975V21.6775ZM9 13.9806H7.56C7.208 13.9806 6.908 13.9326 6.66 13.8366C6.412 13.7326 6.188 13.5566 5.988 13.3086C5.78 13.0606 5.58 12.7246 5.388 12.3006L4.632 10.6566C4.448 10.2566 4.212 9.94056 3.924 9.70856C3.628 9.47656 3.248 9.36056 2.784 9.36056C2.224 9.36056 1.788 9.51656 1.476 9.82856C1.164 10.1406 1.008 10.5806 1.008 11.1486C1.008 11.7086 1.164 12.1486 1.476 12.4686C1.788 12.7886 2.224 12.9486 2.784 12.9486V14.0766C2.28 14.0766 1.816 13.9726 1.392 13.7646C0.968001 13.5486 0.632 13.2246 0.384 12.7926C0.128 12.3606 0 11.8126 0 11.1486C0 10.4846 0.128 9.94056 0.384 9.51656C0.632 9.08456 0.960001 8.76456 1.368 8.55656C1.776 8.34056 2.22 8.23256 2.7 8.23256H2.868C3.5 8.23256 4.032 8.41656 4.464 8.78456C4.896 9.14456 5.252 9.63256 5.532 10.2486L6.288 11.8926C6.456 12.2606 6.624 12.5086 6.792 12.6366C6.96 12.7646 7.184 12.8286 7.464 12.8286H8.568L8.016 13.1406L8.016 8.12456H9L9 13.9806ZM9.216 3.88659C9.216 4.54259 9.088 5.09859 8.832 5.55459C8.576 6.01059 8.236 6.35859 7.812 6.59859C7.388 6.83059 6.928 6.94659 6.432 6.94659V5.81859C6.976 5.81859 7.408 5.64659 7.728 5.30259C8.048 4.95059 8.208 4.47859 8.208 3.88659C8.208 3.49459 8.136 3.15459 7.992 2.86659C7.848 2.57859 7.644 2.35459 7.38 2.19459C7.108 2.03459 6.792 1.95459 6.432 1.95459C5.888 1.95459 5.448 2.13059 5.112 2.48259C4.776 2.82659 4.608 3.29059 4.608 3.87459C4.608 4.12259 4.64 4.33859 4.704 4.52259C4.76 4.69859 4.832 4.85459 4.92 4.99059L3.888 5.56659L1.44 2.21859L1.224 2.33859V6.59859H0.240001L0.240001 1.25859H1.836L3.852 4.03059L3.888 4.87059C3.84 4.73459 3.8 4.58659 3.768 4.42659C3.736 4.25859 3.72 4.06259 3.72 3.83859C3.72 3.19859 3.84 2.65459 4.08 2.20659C4.32 1.75859 4.64 1.41859 5.04 1.18659C5.44 0.946592 5.876 0.826592 6.348 0.826592H6.516C6.98 0.826592 7.42 0.946592 7.836 1.18659C8.244 1.41859 8.576 1.76259 8.832 2.21859C9.088 2.66659 9.216 3.22259 9.216 3.88659Z" fill="#DEDEDE"/>
</svg>
