<svg width="163" height="40" viewBox="0 0 163 40" fill="none" xmlns="http://www.w3.org/2000/svg">
<path d="M31.2054 6.81973C31.5262 7.02346 31.9017 7.14062 32.4105 7.14062C33.0838 7.14062 33.6395 6.79626 33.6395 6.02157C33.6395 4.94887 31.1345 4.8159 31.1345 3.38365C31.1345 2.50704 31.9017 1.95898 32.8648 1.95898C33.1307 1.95898 33.5611 1.99817 33.9371 2.13879L33.8509 2.63231C33.6085 2.49889 33.2245 2.42861 32.8567 2.42861C32.2934 2.42861 31.675 2.66342 31.675 3.36786C31.675 4.46398 34.1795 4.47161 34.1795 6.06844C34.1795 7.17216 33.2326 7.61024 32.387 7.61024C31.8548 7.61024 31.4402 7.50072 31.1504 7.37543L31.2054 6.81973Z" fill="white"/>
<path d="M38.4219 4.05642C38.156 3.93927 37.8351 3.85315 37.5687 3.85315C36.606 3.85315 36.0656 4.54994 36.0656 5.52029C36.0656 6.42847 36.6137 7.18791 37.5137 7.18791C37.827 7.18791 38.1167 7.11711 38.4143 7.0076L38.4611 7.46958C38.1244 7.58672 37.8111 7.61016 37.4358 7.61016C36.1517 7.61016 35.5256 6.6317 35.5256 5.52029C35.5256 4.29122 36.3162 3.43042 37.4984 3.43042C37.9756 3.43042 38.32 3.53993 38.4611 3.58679L38.4219 4.05642Z" fill="white"/>
<path d="M39.9093 1.64575H40.4023V4.1976H40.4182C40.6295 3.75957 41.0756 3.43052 41.6624 3.43052C42.7351 3.43052 43.0245 4.14311 43.0245 5.12921V7.51655H42.5314V5.13683C42.5314 4.44821 42.3985 3.85325 41.5845 3.85325C40.7079 3.85325 40.4023 4.68299 40.4023 5.37978V7.51655H39.9093V1.64575Z" fill="white"/>
<path d="M48.9737 7.51648H48.3788L47.2907 4.0646H47.275L46.187 7.51648H45.5921L44.3085 3.52417H44.8484L45.8972 6.97653H45.9129L47.0244 3.52417H47.6193L48.6762 6.97653H48.6915L49.7952 3.52417H50.2883L48.9737 7.51648Z" fill="white"/>
<path d="M54.0065 5.23862C54.0065 4.54183 53.7249 3.85315 52.9894 3.85315C52.261 3.85315 51.8148 4.58105 51.8148 5.23862H54.0065ZM54.2495 7.39114C53.9052 7.53224 53.459 7.61016 53.0907 7.61016C51.7679 7.61016 51.2749 6.71778 51.2749 5.52029C51.2749 4.29938 51.9483 3.43042 52.9577 3.43042C54.085 3.43042 54.547 4.33859 54.547 5.41078V5.66138H51.8148C51.8148 6.50691 52.2691 7.18791 53.13 7.18791C53.4901 7.18791 54.0147 7.03915 54.2495 6.89045V7.39114Z" fill="white"/>
<path d="M56.0964 3.52425H56.5895V7.51656H56.0964V3.52425ZM56.5895 2.45971H56.0964V1.80261H56.5895V2.45971Z" fill="white"/>
<path d="M58.0773 7.10183L60.4804 3.94695H58.1709V3.52417H61.0513V3.94695L58.6487 7.09372H61.0513V7.51648H58.0773V7.10183Z" fill="white"/>
<path d="M64.9647 5.23862C64.9647 4.54183 64.6831 3.85315 63.9476 3.85315C63.2192 3.85315 62.773 4.58105 62.773 5.23862H64.9647ZM65.2077 7.39114C64.8633 7.53224 64.4172 7.61016 64.049 7.61016C62.7261 7.61016 62.233 6.71778 62.233 5.52029C62.233 4.29938 62.9065 3.43042 63.9159 3.43042C65.0432 3.43042 65.5052 4.33859 65.5052 5.41078V5.66138H62.773C62.773 6.50691 63.2274 7.18791 64.0882 7.18791C64.4483 7.18791 64.9729 7.03915 65.2077 6.89045V7.39114Z" fill="white"/>
<path d="M67.0551 4.41653C67.0551 3.97849 67.0551 3.81395 67.024 3.52414H67.5171V4.29122H67.5324C67.7127 3.84555 68.0494 3.43042 68.5582 3.43042C68.6754 3.43042 68.8165 3.45385 68.9026 3.47725V3.99428C68.8007 3.96269 68.6677 3.94691 68.5425 3.94691C67.7596 3.94691 67.5482 4.82401 67.5482 5.54373V7.51645H67.0551V4.41653Z" fill="white"/>
<path d="M70.2722 3.52425H70.7652V7.51656H70.2722V3.52425ZM70.7652 2.45971H70.2722V1.80261H70.7652V2.45971Z" fill="white"/>
<path d="M72.3152 6.9373C72.6125 7.08604 72.9728 7.18791 73.3562 7.18791C73.8258 7.18791 74.2405 6.92913 74.2405 6.47529C74.2405 5.52844 72.3228 5.67718 72.3228 4.5184C72.3228 3.72787 72.9645 3.43042 73.6221 3.43042C73.8336 3.43042 74.2562 3.47725 74.6082 3.61073L74.5614 4.04114C74.3032 3.92348 73.9511 3.85315 73.6772 3.85315C73.1684 3.85315 72.8159 4.00954 72.8159 4.5184C72.8159 5.26206 74.7804 5.16833 74.7804 6.47529C74.7804 7.32084 73.9899 7.61016 73.3873 7.61016C73.0037 7.61016 72.6203 7.56326 72.2683 7.42272L72.3152 6.9373Z" fill="white"/>
<path d="M78.8741 4.05642C78.6082 3.93927 78.2873 3.85315 78.0209 3.85315C77.0583 3.85315 76.5178 4.54994 76.5178 5.52029C76.5178 6.42847 77.0659 7.18791 77.966 7.18791C78.2792 7.18791 78.569 7.11711 78.8665 7.0076L78.9133 7.46958C78.5766 7.58672 78.2633 7.61016 77.888 7.61016C76.6039 7.61016 75.9779 6.6317 75.9779 5.52029C75.9779 4.29122 76.7684 3.43042 77.9506 3.43042C78.4279 3.43042 78.7722 3.53993 78.9133 3.58679L78.8741 4.05642Z" fill="white"/>
<path d="M80.3615 1.64575H80.8545V4.1976H80.8703C81.0817 3.75957 81.5278 3.43052 82.1146 3.43052C83.1874 3.43052 83.4766 4.14311 83.4766 5.12921V7.51655H82.9835V5.13683C82.9835 4.44821 82.8506 3.85325 82.0367 3.85325C81.1601 3.85325 80.8545 4.68299 80.8545 5.37978V7.51655H80.3615V1.64575Z" fill="white"/>
<path d="M87.7582 5.23862C87.7582 4.54183 87.4766 3.85315 86.741 3.85315C86.0127 3.85315 85.5664 4.58105 85.5664 5.23862H87.7582ZM88.0011 7.39114C87.6568 7.53224 87.2106 7.61016 86.8424 7.61016C85.5196 7.61016 85.0265 6.71778 85.0265 5.52029C85.0265 4.29938 85.6999 3.43042 86.7094 3.43042C87.8366 3.43042 88.2986 4.33859 88.2986 5.41078V5.66138H85.5664C85.5664 6.50691 86.0208 7.18791 86.8816 7.18791C87.2417 7.18791 87.7663 7.03915 88.0011 6.89045V7.39114Z" fill="white"/>
<path d="M92.455 2.05261H95.1316V2.52219H92.9949V4.47151H95.0222V4.94111H92.9949V7.0468H95.2259V7.51643H92.455V2.05261Z" fill="white"/>
<path d="M96.9246 3.52425H97.4177V7.51656H96.9246V3.52425ZM97.4177 2.45971H96.9246V1.80261H97.4177V2.45971Z" fill="white"/>
<path d="M100.76 7.18802C101.637 7.18802 101.942 6.24826 101.942 5.52039C101.942 4.79253 101.637 3.85325 100.76 3.85325C99.8207 3.85325 99.5778 4.74563 99.5778 5.52039C99.5778 6.29563 99.8207 7.18802 100.76 7.18802ZM102.435 7.51655H101.942V6.8824H101.926C101.66 7.39124 101.253 7.61027 100.682 7.61027C99.5859 7.61027 99.0378 6.7026 99.0378 5.52039C99.0378 4.30709 99.5075 3.43052 100.682 3.43052C101.464 3.43052 101.855 4.00201 101.926 4.1976H101.942V1.64575H102.435V7.51655Z" fill="white"/>
<path d="M105.692 7.09368C106.583 7.09368 106.905 6.24815 106.905 5.52029C106.905 4.55761 106.623 3.85315 105.723 3.85315C104.784 3.85315 104.541 4.74553 104.541 5.52029C104.541 6.30316 104.854 7.09368 105.692 7.09368ZM107.398 7.18791C107.398 8.29932 106.897 9.20698 105.528 9.20698C105.003 9.20698 104.525 9.05825 104.322 8.99559L104.36 8.50254C104.666 8.65943 105.104 8.78473 105.535 8.78473C106.804 8.78473 106.913 7.86076 106.913 6.73354H106.897C106.631 7.3127 106.192 7.51645 105.684 7.51645C104.407 7.51645 104 6.405 104 5.52029C104 4.30698 104.47 3.43042 105.645 3.43042C106.177 3.43042 106.521 3.50071 106.889 3.97849H106.905V3.52414H107.398V7.18791Z" fill="white"/>
<path d="M111.632 5.23862C111.632 4.54183 111.351 3.85315 110.615 3.85315C109.887 3.85315 109.441 4.58105 109.441 5.23862H111.632ZM111.875 7.39114C111.531 7.53224 111.085 7.61016 110.716 7.61016C109.394 7.61016 108.901 6.71778 108.901 5.52029C108.901 4.29938 109.574 3.43042 110.584 3.43042C111.711 3.43042 112.173 4.33859 112.173 5.41078V5.66138H109.441C109.441 6.50691 109.895 7.18791 110.756 7.18791C111.116 7.18791 111.641 7.03915 111.875 6.89045V7.39114Z" fill="white"/>
<path d="M113.723 4.46389C113.723 4.15828 113.723 3.84555 113.692 3.52414H114.169V4.23673H114.185C114.349 3.87661 114.646 3.43042 115.476 3.43042C116.463 3.43042 116.838 4.08799 116.838 4.96459V7.51645H116.345V5.08989C116.345 4.3386 116.079 3.85315 115.398 3.85315C114.498 3.85315 114.216 4.64369 114.216 5.30891V7.51645H113.723V4.46389Z" fill="white"/>
<path d="M120.244 7.18791C121.104 7.18791 121.566 6.44426 121.566 5.52029C121.566 4.59684 121.104 3.85315 120.244 3.85315C119.382 3.85315 118.92 4.59684 118.92 5.52029C118.92 6.44426 119.382 7.18791 120.244 7.18791ZM120.244 3.43042C121.535 3.43042 122.107 4.43232 122.107 5.52029C122.107 6.60826 121.535 7.61016 120.244 7.61016C118.952 7.61016 118.38 6.60826 118.38 5.52029C118.38 4.43232 118.952 3.43042 120.244 3.43042Z" fill="white"/>
<path d="M123.343 6.9373C123.64 7.08604 124.001 7.18791 124.384 7.18791C124.853 7.18791 125.268 6.92913 125.268 6.47529C125.268 5.52844 123.351 5.67718 123.351 4.5184C123.351 3.72787 123.993 3.43042 124.65 3.43042C124.862 3.43042 125.284 3.47725 125.636 3.61073L125.59 4.04114C125.331 3.92348 124.979 3.85315 124.705 3.85315C124.196 3.85315 123.843 4.00954 123.843 4.5184C123.843 5.26206 125.809 5.16833 125.809 6.47529C125.809 7.32084 125.018 7.61016 124.415 7.61016C124.031 7.61016 123.648 7.56326 123.296 7.42272L123.343 6.9373Z" fill="white"/>
<path d="M126.998 6.9373C127.295 7.08604 127.656 7.18791 128.039 7.18791C128.509 7.18791 128.924 6.92913 128.924 6.47529C128.924 5.52844 127.005 5.67718 127.005 4.5184C127.005 3.72787 127.648 3.43042 128.305 3.43042C128.517 3.43042 128.939 3.47725 129.291 3.61073L129.244 4.04114C128.986 3.92348 128.635 3.85315 128.36 3.85315C127.851 3.85315 127.499 4.00954 127.499 4.5184C127.499 5.26206 129.464 5.16833 129.464 6.47529C129.464 7.32084 128.673 7.61016 128.07 7.61016C127.686 7.61016 127.304 7.56326 126.951 7.42272L126.998 6.9373Z" fill="white"/>
<path d="M133.394 5.23862C133.394 4.54183 133.111 3.85315 132.375 3.85315C131.647 3.85315 131.201 4.58105 131.201 5.23862H133.394ZM133.636 7.39114C133.291 7.53224 132.846 7.61016 132.478 7.61016C131.155 7.61016 130.661 6.71778 130.661 5.52029C130.661 4.29938 131.334 3.43042 132.344 3.43042C133.472 3.43042 133.934 4.33859 133.934 5.41078V5.66138H131.201C131.201 6.50691 131.656 7.18791 132.516 7.18791C132.876 7.18791 133.401 7.03915 133.636 6.89045V7.39114Z" fill="white"/>
<path d="M135.483 4.46389C135.483 4.15828 135.483 3.84555 135.452 3.52414H135.929V4.23673H135.945C136.109 3.87661 136.406 3.43042 137.237 3.43042C138.222 3.43042 138.598 4.08799 138.598 4.96459V7.51645H138.105V5.08989C138.105 4.3386 137.839 3.85315 137.158 3.85315C136.258 3.85315 135.976 4.64369 135.976 5.30891V7.51645H135.483V4.46389Z" fill="white"/>
<path d="M140.141 6.9373C140.438 7.08604 140.798 7.18791 141.182 7.18791C141.651 7.18791 142.065 6.92913 142.065 6.47529C142.065 5.52844 140.148 5.67718 140.148 4.5184C140.148 3.72787 140.789 3.43042 141.448 3.43042C141.658 3.43042 142.082 3.47725 142.434 3.61073L142.387 4.04114C142.129 3.92348 141.776 3.85315 141.502 3.85315C140.994 3.85315 140.641 4.00954 140.641 4.5184C140.641 5.26206 142.607 5.16833 142.607 6.47529C142.607 7.32084 141.815 7.61016 141.213 7.61016C140.829 7.61016 140.445 7.56326 140.093 7.42272L140.141 6.9373Z" fill="white"/>
<path d="M146.7 4.05642C146.434 3.93927 146.113 3.85315 145.847 3.85315C144.884 3.85315 144.343 4.54994 144.343 5.52029C144.343 6.42847 144.891 7.18791 145.791 7.18791C146.105 7.18791 146.394 7.11711 146.693 7.0076L146.739 7.46958C146.403 7.58672 146.089 7.61016 145.714 7.61016C144.43 7.61016 143.803 6.6317 143.803 5.52029C143.803 4.29122 144.594 3.43042 145.777 3.43042C146.253 3.43042 146.598 3.53993 146.739 3.58679L146.7 4.05642Z" fill="white"/>
<path d="M148.188 1.64575H148.68V4.1976H148.696C148.907 3.75957 149.354 3.43052 149.94 3.43052C151.012 3.43052 151.302 4.14311 151.302 5.12921V7.51655H150.81V5.13683C150.81 4.44821 150.676 3.85325 149.863 3.85325C148.986 3.85325 148.68 4.68299 148.68 5.37978V7.51655H148.188V1.64575Z" fill="white"/>
<path d="M155.396 5.5045H155.256C154.402 5.5045 153.385 5.59109 153.385 6.46766C153.385 6.99177 153.76 7.18791 154.214 7.18791C155.373 7.18791 155.396 6.17786 155.396 5.74746V5.5045ZM155.443 6.87467H155.428C155.209 7.35193 154.652 7.61016 154.16 7.61016C153.025 7.61016 152.844 6.84307 152.844 6.48297C152.844 5.14489 154.269 5.08225 155.302 5.08225H155.396V4.87848C155.396 4.1975 155.154 3.85315 154.488 3.85315C154.074 3.85315 153.683 3.94691 153.313 4.18169V3.70445C153.619 3.55572 154.136 3.43042 154.488 3.43042C155.474 3.43042 155.889 3.87661 155.889 4.91773V6.67908C155.889 6.99996 155.889 7.24241 155.929 7.51645H155.443V6.87467Z" fill="white"/>
<path d="M158.01 3.94698H157.205V3.5242H158.01V3.2349C158.01 2.39752 158.041 1.552 159.068 1.552C159.223 1.552 159.435 1.57544 159.529 1.63044L159.497 2.06081C159.395 2.00584 159.247 1.97477 159.106 1.97477C158.432 1.97477 158.503 2.70263 158.503 3.17989V3.5242H159.404V3.94698H158.503V7.51652H158.01V3.94698Z" fill="white"/>
<path d="M162.612 3.94692H161.705V6.53034C161.705 6.89045 161.838 7.18792 162.238 7.18792C162.426 7.18792 162.551 7.1487 162.691 7.09369L162.723 7.50065C162.605 7.54752 162.363 7.61017 162.12 7.61017C161.244 7.61017 161.211 7.0076 161.211 6.27971V3.94692H160.429V3.52414H161.211V2.56147L161.705 2.38928V3.52414H162.612V3.94692Z" fill="white"/>
<path d="M35.0408 13.4602C34.6965 13.2803 34.2029 13.2254 33.8194 13.2254C32.4029 13.2254 31.6042 14.2272 31.6042 15.5816C31.6042 16.9589 32.3794 17.9374 33.8194 17.9374C34.1795 17.9374 34.7276 17.8905 35.0408 17.7026L35.0719 18.1722C34.7744 18.3525 34.1642 18.407 33.8194 18.407C32.0973 18.407 31.0643 17.2722 31.0643 15.5816C31.0643 13.9221 32.1288 12.7557 33.8194 12.7557C34.1403 12.7557 34.7901 12.8107 35.0719 12.9595L35.0408 13.4602Z" fill="white"/>
<path d="M38.4301 17.9847C39.2915 17.9847 39.753 17.2411 39.753 16.317C39.753 15.3936 39.2915 14.65 38.4301 14.65C37.5693 14.65 37.1073 15.3936 37.1073 16.317C37.1073 17.2411 37.5693 17.9847 38.4301 17.9847ZM38.4301 14.2272C39.7219 14.2272 40.2933 15.2291 40.2933 16.317C40.2933 17.405 39.7219 18.407 38.4301 18.407C37.1389 18.407 36.5674 17.405 36.5674 16.317C36.5674 15.2291 37.1389 14.2272 38.4301 14.2272Z" fill="white"/>
<path d="M41.8351 15.2606C41.8351 14.9551 41.8351 14.6424 41.8041 14.3209H42.2813V15.0335H42.2971C42.4612 14.6734 42.7586 14.2272 43.5883 14.2272C44.5749 14.2272 44.9503 14.8848 44.9503 15.7613V18.3132H44.4572V15.8866C44.4572 15.1354 44.1913 14.65 43.5104 14.65C42.6098 14.65 42.3282 15.4405 42.3282 16.1057V18.3132H41.8351V15.2606Z" fill="white"/>
<path d="M47.1344 14.7437H46.3281V14.321H47.1344V14.0317C47.1344 13.1943 47.1655 12.3488 48.1908 12.3488C48.3476 12.3488 48.5591 12.3722 48.6528 12.4267L48.6217 12.8576C48.5199 12.8026 48.3711 12.7716 48.23 12.7716C47.5572 12.7716 47.6275 13.4994 47.6275 13.9767V14.321H48.5275V14.7437H47.6275V18.3133H47.1344V14.7437Z" fill="white"/>
<path d="M51.6274 12.7791H52.2457L51.2596 13.9063H50.8995L51.6274 12.7791ZM52.449 16.0354C52.449 15.3386 52.1672 14.65 51.4318 14.65C50.7034 14.65 50.2572 15.3779 50.2572 16.0354H52.449ZM52.6919 18.1879C52.3476 18.3289 51.9014 18.4069 51.5331 18.4069C50.2104 18.4069 49.7173 17.5146 49.7173 16.317C49.7173 15.0961 50.3906 14.2272 51.4002 14.2272C52.5274 14.2272 52.9894 15.1354 52.9894 16.2076V16.4581H50.2572C50.2572 17.3036 50.7115 17.9847 51.5723 17.9847C51.9324 17.9847 52.4571 17.836 52.6919 17.6872V18.1879Z" fill="white"/>
<path d="M56.0261 17.9848C56.9027 17.9848 57.2078 17.045 57.2078 16.3171C57.2078 15.5893 56.9027 14.65 56.0261 14.65C55.0868 14.65 54.8439 15.5425 54.8439 16.3171C54.8439 17.0924 55.0868 17.9848 56.0261 17.9848ZM57.7013 18.3133H57.2078V17.6791H57.1924C56.926 18.188 56.5191 18.407 55.9477 18.407C54.852 18.407 54.304 17.4993 54.304 16.3171C54.304 15.1039 54.7736 14.2272 55.9477 14.2272C56.7305 14.2272 57.1217 14.7988 57.1924 14.9944H57.2078V12.4425H57.7013V18.3133Z" fill="white"/>
<path d="M61.114 12.7791H61.7323L60.7457 13.9063H60.386L61.114 12.7791ZM61.9356 16.0354C61.9356 15.3386 61.6539 14.65 60.9184 14.65C60.19 14.65 59.7438 15.3779 59.7438 16.0354H61.9356ZM62.1785 18.1879C61.8342 18.3289 61.388 18.4069 61.0198 18.4069C59.697 18.4069 59.2039 17.5146 59.2039 16.317C59.2039 15.0961 59.8773 14.2272 60.8868 14.2272C62.014 14.2272 62.476 15.1354 62.476 16.2076V16.4581H59.7438C59.7438 17.3036 60.1982 17.9847 61.059 17.9847C61.4191 17.9847 61.9437 17.836 62.1785 17.6872V18.1879Z" fill="white"/>
<path d="M64.026 15.2133C64.026 14.7753 64.026 14.6107 63.9949 14.3209H64.488V15.0885H64.5032C64.6836 14.6424 65.0202 14.2272 65.529 14.2272C65.6462 14.2272 65.7873 14.2507 65.8734 14.274V14.791C65.7715 14.7595 65.6386 14.7436 65.5133 14.7436C64.7304 14.7436 64.5191 15.6203 64.5191 16.3405V18.3132H64.026V15.2133Z" fill="white"/>
<path d="M69.4898 16.3018H69.3487C68.4956 16.3018 67.4779 16.3879 67.4779 17.2644C67.4779 17.7886 67.8538 17.9847 68.3076 17.9847C69.4658 17.9847 69.4898 16.9746 69.4898 16.5442V16.3018ZM69.5367 17.6715H69.5209C69.3019 18.1487 68.7462 18.407 68.2527 18.407C67.1178 18.407 66.938 17.6399 66.938 17.2798C66.938 15.9417 68.3626 15.879 69.3956 15.879H69.4898V15.6753C69.4898 14.9943 69.2469 14.65 68.5817 14.65C68.1665 14.65 67.7753 14.7436 67.4076 14.9785V14.5012C67.7127 14.3525 68.2292 14.2272 68.5817 14.2272C69.5678 14.2272 69.9828 14.6734 69.9828 15.7145V17.4759C69.9828 17.7967 69.9828 18.0392 70.022 18.3132H69.5367V17.6715Z" fill="white"/>
<path d="M73.4893 14.7437H72.5811V17.3272C72.5811 17.6873 72.7146 17.9848 73.1134 17.9848C73.3013 17.9848 73.4266 17.9455 73.5677 17.8905L73.5988 18.2975C73.4817 18.3444 73.2386 18.407 72.9962 18.407C72.1196 18.407 72.088 17.8044 72.088 17.0766V14.7437H71.3052V14.321H72.088V13.3583L72.5811 13.1862V14.321H73.4893V14.7437Z" fill="white"/>
<path d="M74.9843 14.321H75.4772V18.3132H74.9843V14.321ZM75.4772 13.2564H74.9843V12.5994H75.4772V13.2564Z" fill="white"/>
<path d="M78.8899 17.9847C79.7512 17.9847 80.2127 17.2411 80.2127 16.317C80.2127 15.3936 79.7512 14.65 78.8899 14.65C78.0291 14.65 77.5672 15.3936 77.5672 16.317C77.5672 17.2411 78.0291 17.9847 78.8899 17.9847ZM78.8899 14.2272C80.1816 14.2272 80.7532 15.2291 80.7532 16.317C80.7532 17.405 80.1816 18.407 78.8899 18.407C77.5987 18.407 77.0272 17.405 77.0272 16.317C77.0272 15.2291 77.5987 14.2272 78.8899 14.2272Z" fill="white"/>
<path d="M82.2949 15.2606C82.2949 14.9551 82.2949 14.6424 82.2638 14.3209H82.741V15.0335H82.7569C82.9209 14.6734 83.2183 14.2272 84.048 14.2272C85.0346 14.2272 85.4101 14.8848 85.4101 15.7613V18.3132H84.917V15.8866C84.917 15.1354 84.6512 14.65 83.9701 14.65C83.0696 14.65 82.7879 15.4405 82.7879 16.1057V18.3132H82.2949V15.2606Z" fill="white"/>
<path d="M89.6611 17.7341C89.9586 17.8828 90.3187 17.9847 90.7023 17.9847C91.1719 17.9847 91.5865 17.7259 91.5865 17.2721C91.5865 16.3253 89.6687 16.4739 89.6687 15.3152C89.6687 14.5247 90.3106 14.2272 90.9681 14.2272C91.1795 14.2272 91.6023 14.274 91.9543 14.407L91.9073 14.8379C91.6492 14.7203 91.2972 14.65 91.0232 14.65C90.5143 14.65 90.1618 14.8063 90.1618 15.3152C90.1618 16.0589 92.1269 15.9651 92.1269 17.2721C92.1269 18.1176 91.3359 18.407 90.7333 18.407C90.3498 18.407 89.9662 18.36 89.6138 18.2195L89.6611 17.7341Z" fill="white"/>
<path d="M96.7365 17.3741C96.7365 17.6792 96.7365 17.9924 96.7681 18.3133H96.2903V17.6012H96.275C96.1105 17.9608 95.8131 18.4071 94.9834 18.4071C93.9972 18.4071 93.6213 17.7495 93.6213 16.8729V14.321H94.1144V16.7475C94.1144 17.4993 94.3808 17.9848 95.0618 17.9848C95.9619 17.9848 96.2435 17.1938 96.2435 16.5286V14.321H96.7365V17.3741Z" fill="white"/>
<path d="M98.584 14.321H99.0771V18.3132H98.584V14.321ZM99.0771 13.2564H98.584V12.5994H99.0771V13.2564Z" fill="white"/>
<path d="M100.627 17.7341C100.925 17.8828 101.285 17.9847 101.668 17.9847C102.138 17.9847 102.552 17.7259 102.552 17.2721C102.552 16.3253 100.635 16.4739 100.635 15.3152C100.635 14.5247 101.277 14.2272 101.934 14.2272C102.145 14.2272 102.568 14.274 102.92 14.407L102.873 14.8379C102.615 14.7203 102.263 14.65 101.989 14.65C101.48 14.65 101.128 14.8063 101.128 15.3152C101.128 16.0589 103.092 15.9651 103.092 17.2721C103.092 18.1176 102.302 18.407 101.699 18.407C101.316 18.407 100.932 18.36 100.58 18.2195L100.627 17.7341Z" fill="white"/>
<path d="M104.283 17.7341C104.581 17.8828 104.941 17.9847 105.324 17.9847C105.794 17.9847 106.208 17.7259 106.208 17.2721C106.208 16.3253 104.29 16.4739 104.29 15.3152C104.29 14.5247 104.932 14.2272 105.59 14.2272C105.801 14.2272 106.225 14.274 106.576 14.407L106.529 14.8379C106.272 14.7203 105.919 14.65 105.645 14.65C105.137 14.65 104.784 14.8063 104.784 15.3152C104.784 16.0589 106.749 15.9651 106.749 17.2721C106.749 18.1176 105.958 18.407 105.356 18.407C104.972 18.407 104.588 18.36 104.235 18.2195L104.283 17.7341Z" fill="white"/>
<path d="M110.678 16.0354C110.678 15.3386 110.396 14.65 109.661 14.65C108.932 14.65 108.486 15.3779 108.486 16.0354H110.678ZM110.921 18.1879C110.576 18.329 110.13 18.407 109.762 18.407C108.439 18.407 107.946 17.5146 107.946 16.317C107.946 15.0961 108.62 14.2272 109.628 14.2272C110.756 14.2272 111.218 15.1354 111.218 16.2076V16.4582H108.486C108.486 17.3036 108.94 17.9847 109.801 17.9847C110.161 17.9847 110.685 17.836 110.921 17.6872V18.1879Z" fill="white"/>
<path d="M35.0408 24.2569C34.6965 24.0771 34.2029 24.0221 33.8194 24.0221C32.4029 24.0221 31.6042 25.024 31.6042 26.3784C31.6042 27.7557 32.3794 28.7342 33.8194 28.7342C34.1795 28.7342 34.7276 28.6872 35.0408 28.4993L35.0719 28.969C34.7744 29.1492 34.1642 29.2038 33.8194 29.2038C32.0973 29.2038 31.0643 28.0689 31.0643 26.3784C31.0643 24.7188 32.1288 23.5525 33.8194 23.5525C34.1403 23.5525 34.7901 23.607 35.0719 23.7557L35.0408 24.2569Z" fill="white"/>
<path d="M38.4301 28.7814C39.2915 28.7814 39.753 28.0378 39.753 27.1138C39.753 26.1904 39.2915 25.4467 38.4301 25.4467C37.5693 25.4467 37.1073 26.1904 37.1073 27.1138C37.1073 28.0378 37.5693 28.7814 38.4301 28.7814ZM38.4301 25.0239C39.7219 25.0239 40.2933 26.0259 40.2933 27.1138C40.2933 28.2018 39.7219 29.2037 38.4301 29.2037C37.1389 29.2037 36.5674 28.2018 36.5674 27.1138C36.5674 26.0259 37.1389 25.0239 38.4301 25.0239Z" fill="white"/>
<path d="M41.8351 26.0574C41.8351 25.7518 41.8351 25.4391 41.8041 25.1177H42.2813V25.8303H42.2971C42.4612 25.4702 42.7586 25.0239 43.5883 25.0239C44.5749 25.0239 44.9503 25.6815 44.9503 26.5581V29.11H44.4572V26.6834C44.4572 25.9321 44.1913 25.4467 43.5104 25.4467C42.6098 25.4467 42.3282 26.2372 42.3282 26.9024V29.11H41.8351V26.0574Z" fill="white"/>
<path d="M47.1344 25.5404H46.3281V25.1177H47.1344V24.8283C47.1344 23.991 47.1655 23.1454 48.1908 23.1454C48.3476 23.1454 48.5591 23.1688 48.6528 23.2238L48.6217 23.6543C48.5199 23.5993 48.3711 23.5682 48.23 23.5682C47.5572 23.5682 47.6275 24.2961 47.6275 24.7733V25.1177H48.5275V25.5404H47.6275V29.1099H47.1344V25.5404Z" fill="white"/>
<path d="M52.449 26.8321C52.449 26.1353 52.1672 25.4467 51.4318 25.4467C50.7034 25.4467 50.2572 26.1745 50.2572 26.8321H52.449ZM52.6919 28.9847C52.3476 29.1258 51.9014 29.2037 51.5331 29.2037C50.2104 29.2037 49.7173 28.3113 49.7173 27.1138C49.7173 25.8929 50.3906 25.0239 51.4002 25.0239C52.5274 25.0239 52.9894 25.9321 52.9894 27.0043V27.2549H50.2572C50.2572 28.1004 50.7115 28.7814 51.5723 28.7814C51.9324 28.7814 52.4571 28.6327 52.6919 28.484V28.9847Z" fill="white"/>
<path d="M56.0261 28.7815C56.9027 28.7815 57.2078 27.8418 57.2078 27.1138C57.2078 26.386 56.9027 25.4468 56.0261 25.4468C55.0868 25.4468 54.8439 26.3392 54.8439 27.1138C54.8439 27.8891 55.0868 28.7815 56.0261 28.7815ZM57.7013 29.11H57.2078V28.4759H57.1924C56.926 28.9847 56.5191 29.2038 55.9477 29.2038C54.852 29.2038 54.304 28.296 54.304 27.1138C54.304 25.9006 54.7736 25.024 55.9477 25.024C56.7305 25.024 57.1217 25.5955 57.1924 25.7911H57.2078V23.2393H57.7013V29.11Z" fill="white"/>
<path d="M61.9356 26.8321C61.9356 26.1353 61.6539 25.4467 60.9184 25.4467C60.19 25.4467 59.7438 26.1745 59.7438 26.8321H61.9356ZM62.1785 28.9847C61.8342 29.1258 61.388 29.2037 61.0198 29.2037C59.697 29.2037 59.2039 28.3113 59.2039 27.1138C59.2039 25.8929 59.8773 25.0239 60.8868 25.0239C62.014 25.0239 62.476 25.9321 62.476 27.0043V27.2549H59.7438C59.7438 28.1004 60.1982 28.7814 61.059 28.7814C61.4191 28.7814 61.9437 28.6327 62.1785 28.484V28.9847Z" fill="white"/>
<path d="M64.026 26.01C64.026 25.572 64.026 25.4075 63.9949 25.1177H64.488V25.8847H64.5032C64.6836 25.4391 65.0202 25.0239 65.529 25.0239C65.6462 25.0239 65.7873 25.0474 65.8734 25.0708V25.5877C65.7715 25.5562 65.6386 25.5404 65.5133 25.5404C64.7304 25.5404 64.5191 26.4176 64.5191 27.1372V29.11H64.026V26.01Z" fill="white"/>
<path d="M69.4898 27.098H69.3487C68.4956 27.098 67.4779 27.1846 67.4779 28.0612C67.4779 28.5853 67.8538 28.7814 68.3076 28.7814C69.4658 28.7814 69.4898 27.7714 69.4898 27.341V27.098ZM69.5367 28.4682H69.5209C69.3019 28.9454 68.7462 29.2037 68.2527 29.2037C67.1178 29.2037 66.938 28.4366 66.938 28.0765C66.938 26.7384 68.3626 26.6758 69.3956 26.6758H69.4898V26.472C69.4898 25.791 69.2469 25.4467 68.5817 25.4467C68.1665 25.4467 67.7753 25.5404 67.4076 25.7752V25.298C67.7127 25.1492 68.2292 25.0239 68.5817 25.0239C69.5678 25.0239 69.9828 25.4702 69.9828 26.5112V28.2726C69.9828 28.5935 69.9828 28.8359 70.022 29.11H69.5367V28.4682Z" fill="white"/>
<path d="M71.3994 28.6954L73.8025 25.5404H71.4931V25.1177H74.3735V25.5404L71.9709 28.6872H74.3735V29.11H71.3994V28.6954Z" fill="white"/>
<path d="M75.8531 25.1177H76.3462V29.11H75.8531V25.1177ZM76.3462 24.0532H75.8531V23.3961H76.3462V24.0532Z" fill="white"/>
<path d="M79.7588 28.7814C80.6201 28.7814 81.0816 28.0378 81.0816 27.1138C81.0816 26.1904 80.6201 25.4467 79.7588 25.4467C78.898 25.4467 78.436 26.1904 78.436 27.1138C78.436 28.0378 78.898 28.7814 79.7588 28.7814ZM79.7588 25.0239C81.0505 25.0239 81.622 26.0259 81.622 27.1138C81.622 28.2018 81.0505 29.2037 79.7588 29.2037C78.4675 29.2037 77.8961 28.2018 77.8961 27.1138C77.8961 26.0259 78.4675 25.0239 79.7588 25.0239Z" fill="white"/>
<path d="M83.1639 26.0574C83.1639 25.7518 83.1639 25.4391 83.1328 25.1177H83.6101V25.8303H83.6259C83.7899 25.4702 84.0873 25.0239 84.9171 25.0239C85.9038 25.0239 86.2791 25.6815 86.2791 26.5581V29.11H85.7861V26.6834C85.7861 25.9321 85.5202 25.4467 84.8392 25.4467C83.9387 25.4467 83.6569 26.2372 83.6569 26.9024V29.11H83.1639V26.0574Z" fill="white"/>
<path d="M90.5607 26.8321C90.5607 26.1353 90.2791 25.4467 89.5435 25.4467C88.8152 25.4467 88.3689 26.1745 88.3689 26.8321H90.5607ZM90.8036 28.9847C90.4593 29.1258 90.0131 29.2037 89.6449 29.2037C88.3221 29.2037 87.8291 28.3113 87.8291 27.1138C87.8291 25.8929 88.5024 25.0239 89.5119 25.0239C90.6391 25.0239 91.1012 25.9321 91.1012 27.0043V27.2549H88.3689C88.3689 28.1004 88.8233 28.7814 89.6841 28.7814C90.0442 28.7814 90.5688 28.6327 90.8036 28.484V28.9847Z" fill="white"/>
<path d="M95.2655 28.4132C95.5864 28.617 95.9618 28.7342 96.4706 28.7342C97.1439 28.7342 97.6997 28.3898 97.6997 27.615C97.6997 26.5424 95.1947 26.4094 95.1947 24.9771C95.1947 24.1006 95.9618 23.5525 96.925 23.5525C97.1909 23.5525 97.6213 23.5917 97.9971 23.7322L97.9111 24.2259C97.6686 24.0924 97.2846 24.0221 96.9169 24.0221C96.3534 24.0221 95.7352 24.2569 95.7352 24.9614C95.7352 26.0574 98.2396 26.0651 98.2396 27.6619C98.2396 28.7657 97.2927 29.2038 96.4472 29.2038C95.9149 29.2038 95.5003 29.0943 95.2104 28.969L95.2655 28.4132Z" fill="white"/>
<path d="M101.269 29.11H100.69L99.3352 25.1177H99.8757L100.979 28.57H100.995L102.153 25.1177H102.67L101.269 29.11Z" fill="white"/>
<path d="M103.969 25.1177H104.463V29.11H103.969V25.1177ZM104.463 24.0532H103.969V23.3961H104.463V24.0532Z" fill="white"/>
<path d="M105.95 28.6954L108.354 25.5404H106.044V25.1177H108.924V25.5404L106.522 28.6872H108.924V29.11H105.95V28.6954Z" fill="white"/>
<path d="M110.036 28.6954L112.44 25.5404H110.13V25.1177H113.01V25.5404L110.608 28.6872H113.01V29.11H110.036V28.6954Z" fill="white"/>
<path d="M116.923 26.8321C116.923 26.1353 116.642 25.4467 115.906 25.4467C115.178 25.4467 114.732 26.1745 114.732 26.8321H116.923ZM117.166 28.9847C116.822 29.1258 116.377 29.2037 116.008 29.2037C114.685 29.2037 114.192 28.3113 114.192 27.1138C114.192 25.8929 114.865 25.0239 115.875 25.0239C117.002 25.0239 117.464 25.9321 117.464 27.0043V27.2549H114.732C114.732 28.1004 115.186 28.7814 116.047 28.7814C116.407 28.7814 116.932 28.6327 117.166 28.484V28.9847Z" fill="white"/>
<path d="M119.014 26.01C119.014 25.572 119.014 25.4075 118.983 25.1177H119.476V25.8847H119.491C119.672 25.4391 120.008 25.0239 120.517 25.0239C120.635 25.0239 120.776 25.0474 120.861 25.0708V25.5877C120.76 25.5562 120.626 25.5404 120.501 25.5404C119.719 25.5404 119.507 26.4176 119.507 27.1372V29.11H119.014V26.01Z" fill="white"/>
<path d="M124.478 27.098H124.337C123.484 27.098 122.465 27.1846 122.465 28.0612C122.465 28.5853 122.842 28.7814 123.296 28.7814C124.454 28.7814 124.478 27.7714 124.478 27.341V27.098ZM124.525 28.4682H124.509C124.29 28.9454 123.734 29.2037 123.241 29.2037C122.106 29.2037 121.926 28.4366 121.926 28.0765C121.926 26.7384 123.351 26.6758 124.384 26.6758H124.478V26.472C124.478 25.791 124.235 25.4467 123.57 25.4467C123.155 25.4467 122.764 25.5404 122.396 25.7752V25.298C122.701 25.1492 123.218 25.0239 123.57 25.0239C124.556 25.0239 124.971 25.4702 124.971 26.5112V28.2726C124.971 28.5935 124.971 28.8359 125.01 29.11H124.525V28.4682Z" fill="white"/>
<path d="M35.0408 35.0531C34.6965 34.8733 34.2029 34.8183 33.8194 34.8183C32.4029 34.8183 31.6042 35.8201 31.6042 37.1746C31.6042 38.5518 32.3794 39.5303 33.8194 39.5303C34.1795 39.5303 34.7276 39.4834 35.0408 39.2955L35.0719 39.7651C34.7744 39.9454 34.1642 39.9999 33.8194 39.9999C32.0973 39.9999 31.0643 38.8651 31.0643 37.1746C31.0643 35.5151 32.1288 34.3486 33.8194 34.3486C34.1403 34.3486 34.7901 34.4031 35.0719 34.5519L35.0408 35.0531Z" fill="white"/>
<path d="M38.4301 39.5777C39.2915 39.5777 39.753 38.8341 39.753 37.9101C39.753 36.9867 39.2915 36.243 38.4301 36.243C37.5693 36.243 37.1073 36.9867 37.1073 37.9101C37.1073 38.8341 37.5693 39.5777 38.4301 39.5777ZM38.4301 35.8202C39.7219 35.8202 40.2933 36.8221 40.2933 37.9101C40.2933 38.9981 39.7219 40 38.4301 40C37.1389 40 36.5674 38.9981 36.5674 37.9101C36.5674 36.8221 37.1389 35.8202 38.4301 35.8202Z" fill="white"/>
<path d="M41.8351 36.8538C41.8351 36.5481 41.8351 36.2354 41.8041 35.914H42.2813V36.6266H42.2971C42.4612 36.2665 42.7586 35.8202 43.5883 35.8202C44.5749 35.8202 44.9503 36.4778 44.9503 37.3544V39.9062H44.4572V37.4796C44.4572 36.7284 44.1913 36.243 43.5104 36.243C42.6098 36.243 42.3282 37.0335 42.3282 37.6987V39.9062H41.8351V36.8538Z" fill="white"/>
<path d="M47.1344 36.3366H46.3281V35.914H47.1344V35.6246C47.1344 34.7872 47.1655 33.9417 48.1908 33.9417C48.3476 33.9417 48.5591 33.9651 48.6528 34.0201L48.6217 34.4505C48.5199 34.3955 48.3711 34.3644 48.23 34.3644C47.5572 34.3644 47.6275 35.0923 47.6275 35.5696V35.914H48.5275V36.3366H47.6275V39.9062H47.1344V36.3366Z" fill="white"/>
<path d="M52.449 37.6284C52.449 36.9317 52.1672 36.243 51.4318 36.243C50.7034 36.243 50.2572 36.9709 50.2572 37.6284H52.449ZM52.6919 39.7809C52.3476 39.9221 51.9014 40 51.5331 40C50.2104 40 49.7173 39.1076 49.7173 37.9101C49.7173 36.6891 50.3906 35.8202 51.4002 35.8202C52.5274 35.8202 52.9894 36.7284 52.9894 37.8006V38.0512H50.2572C50.2572 38.8967 50.7115 39.5777 51.5723 39.5777C51.9324 39.5777 52.4571 39.429 52.6919 39.2803V39.7809Z" fill="white"/>
<path d="M56.0261 39.5777C56.9027 39.5777 57.2078 38.6379 57.2078 37.91C57.2078 37.1822 56.9027 36.2429 56.0261 36.2429C55.0868 36.2429 54.8439 37.1354 54.8439 37.91C54.8439 38.6853 55.0868 39.5777 56.0261 39.5777ZM57.7013 39.9062H57.2078V39.2721H57.1924C56.926 39.7809 56.5191 40 55.9477 40C54.852 40 54.304 39.0922 54.304 37.91C54.304 36.6968 54.7736 35.8201 55.9477 35.8201C56.7305 35.8201 57.1217 36.3917 57.1924 36.5873H57.2078V34.0354H57.7013V39.9062Z" fill="white"/>
<path d="M61.9356 37.6284C61.9356 36.9317 61.6539 36.243 60.9184 36.243C60.19 36.243 59.7438 36.9709 59.7438 37.6284H61.9356ZM62.1785 39.7809C61.8342 39.9221 61.388 40 61.0198 40C59.697 40 59.2039 39.1076 59.2039 37.9101C59.2039 36.6891 59.8773 35.8202 60.8868 35.8202C62.014 35.8202 62.476 36.7284 62.476 37.8006V38.0512H59.7438C59.7438 38.8967 60.1982 39.5777 61.059 39.5777C61.4191 39.5777 61.9437 39.429 62.1785 39.2803V39.7809Z" fill="white"/>
<path d="M64.026 36.8063C64.026 36.3683 64.026 36.2038 63.9949 35.914H64.488V36.681H64.5032C64.6836 36.2354 65.0202 35.8202 65.529 35.8202C65.6462 35.8202 65.7873 35.8437 65.8734 35.8671V36.3841C65.7715 36.3525 65.6386 36.3366 65.5133 36.3366C64.7304 36.3366 64.5191 37.2138 64.5191 37.9335V39.9062H64.026V36.8063Z" fill="white"/>
<path d="M69.4898 37.8943H69.3487C68.4956 37.8943 67.4779 37.9809 67.4779 38.8575C67.4779 39.3816 67.8538 39.5777 68.3076 39.5777C69.4658 39.5777 69.4898 38.5676 69.4898 38.1373V37.8943ZM69.5367 39.2645H69.5209C69.3019 39.7417 68.7462 40 68.2527 40C67.1178 40 66.938 39.2329 66.938 38.8728C66.938 37.5347 68.3626 37.472 69.3956 37.472H69.4898V37.2683C69.4898 36.5873 69.2469 36.243 68.5817 36.243C68.1665 36.243 67.7753 36.3366 67.4076 36.5715V36.0943C67.7127 35.9455 68.2292 35.8202 68.5817 35.8202C69.5678 35.8202 69.9828 36.2665 69.9828 37.3075V39.0689C69.9828 39.3898 69.9828 39.6322 70.022 39.9062H69.5367V39.2645Z" fill="white"/>
<path d="M71.3994 39.4916L73.8025 36.3366H71.4931V35.9139H74.3735V36.3366L71.9709 39.4834H74.3735V39.9061H71.3994V39.4916Z" fill="white"/>
<path d="M75.8531 35.914H76.3462V39.9062H75.8531V35.914ZM76.3462 34.8494H75.8531V34.1924H76.3462V34.8494Z" fill="white"/>
<path d="M81.3165 38.9669C81.3165 39.272 81.3165 39.5853 81.348 39.9061H80.8703V39.1941H80.855C80.6905 39.5537 80.3929 40 79.5632 40C78.5771 40 78.2013 39.3429 78.2013 38.4658V35.9139H78.6943V38.3404C78.6943 39.0922 78.9607 39.5777 79.6417 39.5777C80.5417 39.5777 80.8234 38.7867 80.8234 38.1214V35.9139H81.3165V38.9669Z" fill="white"/>
<path d="M83.1639 36.8538C83.1639 36.5481 83.1639 36.2354 83.1328 35.914H83.6101V36.6266H83.6259C83.7899 36.2665 84.0873 35.8202 84.9171 35.8202C85.9038 35.8202 86.2791 36.4778 86.2791 37.3544V39.9062H85.7861V37.4796C85.7861 36.7284 85.5202 36.243 84.8392 36.243C83.9387 36.243 83.6569 37.0335 83.6569 37.6987V39.9062H83.1639V36.8538Z" fill="white"/>
<path d="M90.5296 39.327C90.8271 39.4758 91.1872 39.5777 91.5708 39.5777C92.0404 39.5777 92.455 39.3189 92.455 38.8652C92.455 37.9183 90.5374 38.0669 90.5374 36.9082C90.5374 36.1177 91.1791 35.8202 91.8367 35.8202C92.048 35.8202 92.4708 35.8671 92.8228 36.0006L92.776 36.431C92.5177 36.3133 92.1657 36.243 91.8917 36.243C91.3828 36.243 91.0303 36.3994 91.0303 36.9082C91.0303 37.6519 92.9949 37.5581 92.9949 38.8652C92.9949 39.7106 92.2044 40 91.6019 40C91.2183 40 90.8347 39.9531 90.4828 39.8125L90.5296 39.327Z" fill="white"/>
<path d="M95.8757 39.9061H95.2967L93.9423 35.9139H94.4827L95.5865 39.3662H95.6017L96.7606 35.9139H97.277L95.8757 39.9061Z" fill="white"/>
<path d="M98.5763 35.914H99.0694V39.9062H98.5763V35.914ZM99.0694 34.8494H98.5763V34.1924H99.0694V34.8494Z" fill="white"/>
<path d="M100.557 39.4916L102.96 36.3366H100.65V35.9139H103.531V36.3366L101.128 39.4834H103.531V39.9061H100.557V39.4916Z" fill="white"/>
<path d="M105.01 36.8063C105.01 36.3683 105.01 36.2038 104.979 35.914H105.473V36.681H105.488C105.668 36.2354 106.005 35.8202 106.514 35.8202C106.63 35.8202 106.771 35.8437 106.858 35.8671V36.3841C106.756 36.3525 106.623 36.3366 106.498 36.3366C105.715 36.3366 105.504 37.2138 105.504 37.9335V39.9062H105.01V36.8063Z" fill="white"/>
<path d="M110.474 37.8943H110.334C109.48 37.8943 108.462 37.9809 108.462 38.8575C108.462 39.3816 108.838 39.5777 109.293 39.5777C110.45 39.5777 110.474 38.5676 110.474 38.1373V37.8943ZM110.521 39.2645H110.506C110.287 39.7417 109.731 40 109.237 40C108.102 40 107.923 39.2329 107.923 38.8728C107.923 37.5347 109.347 37.472 110.379 37.472H110.474V37.2683C110.474 36.5873 110.231 36.243 109.566 36.243C109.151 36.243 108.759 36.3366 108.392 36.5715V36.0943C108.697 35.9455 109.213 35.8202 109.566 35.8202C110.553 35.8202 110.967 36.2665 110.967 37.3075V39.0689C110.967 39.3898 110.967 39.6322 111.006 39.9062H110.521V39.2645Z" fill="white"/>
<path d="M22.1838 1.81329C22.1838 1.81329 18.0438 0 11.1125 0H11.1104C4.17913 0 0.0380982 1.81329 0.0380982 1.81329C0.0380982 1.81329 -0.33268 9.84169 1.23915 14.3811C4.01515 22.3627 11.1095 24.6048 11.1095 24.6048H11.1115H11.1135C11.1135 24.6048 18.2068 22.3627 20.9838 14.3811C22.5556 9.84169 22.1838 1.81329 22.1838 1.81329Z" fill="#FF0000"/>
<path d="M18.4696 8.73432V13.1575H13.3089V18.3183H8.88558V13.1575H3.72485V8.73432H8.88558V3.57458H13.3079L13.3089 8.73432H18.4696Z" fill="white"/>
</svg>
