<svg width="67" height="51" viewBox="0 0 67 51" fill="none" xmlns="http://www.w3.org/2000/svg">
<path d="M32.3471 0.807473C28.9539 1.04023 25.8748 2.18437 23.2192 4.20343C22.5714 4.69698 22.176 5.04471 21.5226 5.69811C20.2158 7.0077 19.2512 8.34813 18.4407 9.97741C17.0022 12.8742 16.4778 15.9897 16.8704 19.2932L16.89 19.4558H20.5804H24.2708L30.5944 13.1322L36.918 6.80859H34.5344H32.1508L26.4581 12.5012C23.3286 15.6308 20.7571 18.1939 20.7486 18.1939C20.729 18.1939 20.5299 17.5377 20.4318 17.1423C20.0336 15.5551 19.9747 13.766 20.2635 12.0526C20.7851 8.95666 22.577 6.05705 25.1794 4.09126C27.0386 2.68633 29.2428 1.78896 31.5479 1.49732C32.2181 1.41039 32.6948 1.39076 33.5473 1.40478C34.7083 1.42441 35.443 1.51695 36.4974 1.77494C40.8216 2.82935 44.3044 5.99536 45.6813 10.1176C46.2394 11.789 46.4245 13.4575 46.2534 15.2634C46.2282 15.5102 46.2029 15.7233 46.1945 15.7346C46.1861 15.7486 47.0106 16.5927 48.0285 17.6106L49.8793 19.4614L49.9102 19.2147C49.9971 18.5248 50.0139 18.2388 50.0139 17.1984C50.0139 16.0542 49.9915 15.7009 49.8569 14.8007C49.4615 12.1507 48.3987 9.61005 46.789 7.4676C46.273 6.78055 45.9001 6.3515 45.2607 5.71213C44.2624 4.71101 43.4183 4.03237 42.3078 3.33692C40.0728 1.93759 37.6079 1.10753 34.9074 0.846732C34.3661 0.796256 32.8687 0.773822 32.3471 0.807473Z" fill="white"/>
<path d="M32.9781 15.3954L28.9259 19.4559H31.2955H33.6651L37.7313 15.3898L41.7975 11.3236L39.4138 11.3292L37.0302 11.332L32.9781 15.3954Z" fill="white"/>
<path d="M39.9047 17.6191L38.0679 19.4559H40.2412H42.4145L44.2513 17.6191L46.0881 15.7824H43.9148H41.7415L39.9047 17.6191Z" fill="white"/>
<path d="M10.6054 24.9785C10.0952 25.1074 9.66905 25.4326 9.47001 25.8503C9.11398 26.5932 9.22331 27.5127 9.73353 28.0369C10.0671 28.3817 10.6446 28.5611 11.1633 28.4854C11.5613 28.4293 12.1024 28.2079 12.3435 28.006L12.4332 27.9332L12.3659 27.8378C12.3295 27.7846 12.2958 27.7369 12.293 27.7313C12.2874 27.7257 12.1529 27.7874 11.9959 27.8659C11.6286 28.0481 11.4128 28.1042 11.1184 28.0873C10.4989 28.0537 10.154 27.5519 10.1512 26.6829C10.1512 25.9989 10.3755 25.469 10.7652 25.2392C10.8801 25.1719 10.9222 25.1635 11.1464 25.1635C11.3707 25.1635 11.4128 25.1719 11.5277 25.2392C11.7604 25.3765 11.9146 25.5868 12.0155 25.9064L12.0631 26.0605L12.2089 26.0521L12.3519 26.0409L12.3435 25.5615C12.3379 25.2952 12.3239 25.071 12.3155 25.0626C12.265 25.0121 11.7183 24.9476 11.2866 24.9364C10.8885 24.928 10.7764 24.9336 10.6054 24.9785Z" fill="white"/>
<path d="M14.0911 24.9673C13.6285 25.0934 13.2809 25.3794 13.0791 25.8083C12.9053 26.1728 12.8436 26.5681 12.8968 26.9578C13.0034 27.7259 13.4155 28.253 14.0631 28.4464C14.3238 28.5249 14.7359 28.5137 14.9966 28.424C15.5348 28.2333 15.8993 27.8072 16.0423 27.2017C16.1264 26.8484 16.1067 26.3214 15.9974 26.013C15.8124 25.4831 15.4115 25.1019 14.8985 24.9701C14.691 24.9168 14.2845 24.914 14.0911 24.9673ZM14.7387 25.1748C14.9798 25.2841 15.0947 25.556 15.1452 26.1279C15.1844 26.5541 15.162 27.3222 15.1031 27.6278C15.019 28.0623 14.8228 28.2698 14.5004 28.2698C13.9649 28.2698 13.7967 27.824 13.8332 26.4952C13.85 25.8728 13.8836 25.6429 13.9902 25.4355C14.1331 25.1579 14.4555 25.0458 14.7387 25.1748Z" fill="white"/>
<path d="M31.8138 24.9786C31.256 25.1384 30.8355 25.5954 30.6897 26.2009C30.6224 26.4784 30.6308 26.9494 30.7037 27.2325C30.8607 27.8324 31.256 28.2725 31.7858 28.4351C32.0381 28.5136 32.439 28.5192 32.6829 28.4463C33.3389 28.2529 33.7509 27.7119 33.8463 26.9241C33.9584 26.0019 33.4566 25.1777 32.652 24.9674C32.4362 24.9114 32.0269 24.917 31.8138 24.9786ZM32.467 25.1637C32.7894 25.301 32.8847 25.5842 32.9127 26.4812C32.9464 27.681 32.8034 28.1688 32.3913 28.2585C32.2231 28.295 32.0297 28.2613 31.9148 28.1772C31.8082 28.1043 31.6933 27.8773 31.6428 27.653C31.6204 27.5493 31.5952 27.2297 31.584 26.9438C31.5587 26.1084 31.6344 25.5645 31.8138 25.3291C31.9568 25.1412 32.2399 25.0712 32.467 25.1637Z" fill="white"/>
<path d="M5.41223 25.1218V25.2339H5.56361C5.67294 25.2339 5.73181 25.2507 5.78788 25.2928L5.86077 25.3488V26.7085C5.86077 28.2727 5.8832 28.155 5.58324 28.1914L5.41223 28.211V28.3204V28.4297H6.94006H8.46509L8.4791 28.3372C8.48471 28.2895 8.50714 28.1213 8.52396 27.9671C8.54358 27.813 8.57161 27.6083 8.59124 27.5158L8.62768 27.342L8.52676 27.3252C8.47069 27.3168 8.41182 27.3084 8.3922 27.3084C8.37258 27.3084 8.30529 27.4093 8.24082 27.5326C8.08944 27.8242 7.91843 28.0148 7.71659 28.1129C7.56521 28.1858 7.53437 28.1914 7.18956 28.1914C6.92044 28.1914 6.81111 28.1802 6.77747 28.1522C6.73542 28.1185 6.72981 28.0344 6.72981 27.4653C6.72981 27.1065 6.74383 26.7982 6.75784 26.7757C6.77747 26.7421 6.84194 26.7337 7.04378 26.7337C7.43625 26.7337 7.53437 26.8094 7.58483 27.1458L7.60446 27.2803H7.7222H7.83713V26.6496V26.0188H7.7222C7.60726 26.0188 7.60726 26.0188 7.59044 26.1366C7.5568 26.3861 7.3942 26.4954 7.0578 26.4954C6.71019 26.4954 6.72981 26.5346 6.72981 25.8675C6.72981 25.4021 6.73822 25.29 6.77186 25.2619C6.79989 25.2395 6.93726 25.2311 7.25404 25.2395C7.67454 25.2479 7.70257 25.2507 7.82592 25.3236C7.96329 25.4049 8.05299 25.5227 8.16793 25.7721C8.24082 25.9319 8.24082 25.9347 8.35856 25.9347H8.4763L8.45948 25.7021C8.44827 25.5759 8.43986 25.3685 8.43986 25.2395V25.0096H6.92604H5.41223V25.1218Z" fill="white"/>
<path d="M16.6572 25.1218V25.2339H16.8002C16.9404 25.2339 17.0441 25.2676 17.0833 25.3292C17.0945 25.346 17.1058 25.974 17.1058 26.7253V28.0933L17.0441 28.1325C17.0076 28.155 16.9067 28.183 16.8198 28.1914L16.6572 28.211V28.3204V28.4297H18.1009H19.5447L19.5559 28.3652C19.5643 28.3316 19.5755 28.183 19.5839 28.0372C19.5923 27.8915 19.626 27.6504 19.6568 27.5046C19.6848 27.3588 19.7072 27.2383 19.7044 27.2355C19.7016 27.2327 19.6456 27.2243 19.5839 27.2131L19.469 27.1962L19.4185 27.3728C19.3036 27.7849 19.1185 28.0484 18.8775 28.1409C18.6868 28.2138 18.1122 28.2138 18.0393 28.1409C17.9916 28.0961 17.9888 27.9952 17.9804 26.7813C17.9748 26.0609 17.9804 25.4329 17.9888 25.3825C18.0084 25.2704 18.1065 25.2339 18.3841 25.2339H18.5915V25.1218V25.0096H17.6244H16.6572V25.1218Z" fill="white"/>
<path d="M20.1064 25.1218V25.2339H20.2494C20.3896 25.2339 20.4933 25.2676 20.5326 25.3292C20.5438 25.346 20.555 25.9684 20.555 26.7113C20.555 28.2727 20.5774 28.155 20.2775 28.1914L20.1064 28.211V28.3204V28.4297H21.6455H23.1818L23.2015 28.169C23.2127 28.0288 23.2435 27.7821 23.2716 27.6251L23.3192 27.342L23.1931 27.3224C23.123 27.3112 23.0613 27.314 23.0585 27.328C23.0529 27.3392 22.9996 27.4401 22.9407 27.5494C22.7894 27.8214 22.6043 28.0176 22.4109 28.1129C22.2595 28.1858 22.2287 28.1914 21.8782 28.1914C21.539 28.1914 21.4998 28.1858 21.4633 28.1381C21.4325 28.0933 21.4241 27.9503 21.4241 27.4457C21.4241 26.6944 21.4129 26.7169 21.7325 26.7225C22.1053 26.7253 22.2427 26.829 22.2791 27.129L22.2988 27.2803H22.4165H22.5314V26.6496V26.0188H22.4165C22.3016 26.0188 22.3016 26.0188 22.2847 26.1366C22.2511 26.3861 22.0885 26.4954 21.7521 26.4954C21.4044 26.4954 21.4241 26.5318 21.4241 25.8843C21.4241 25.4722 21.4325 25.3152 21.4605 25.2788C21.4942 25.2339 21.5418 25.2311 21.9455 25.2395C22.3408 25.2479 22.4053 25.2563 22.509 25.3124C22.652 25.3881 22.7417 25.5002 22.8538 25.7469C22.9379 25.9347 22.9379 25.9347 23.0557 25.9347H23.1706L23.1538 25.6348C23.1426 25.4722 23.1342 25.2647 23.1342 25.1722V25.0096H21.6203H20.1064V25.1218Z" fill="white"/>
<path d="M26.1357 25.1218V25.2339H26.2871C26.3965 25.2339 26.4553 25.2507 26.5114 25.2928L26.5843 25.3488V26.7085C26.5843 28.2727 26.6067 28.155 26.3067 28.1914L26.1357 28.211V28.3204V28.4297H26.9908H27.8458V28.3204V28.211L27.6944 28.1942C27.4477 28.1634 27.4505 28.1774 27.4589 27.4037L27.4673 26.7337H28.0561H28.6448L28.6532 27.4037C28.6616 28.1774 28.6644 28.1634 28.4177 28.1942L28.2663 28.211V28.3204V28.4297H29.1213H29.9764V28.3204V28.211L29.8054 28.1914C29.5054 28.155 29.5278 28.2727 29.5278 26.7197V25.3713L29.5979 25.304C29.654 25.2451 29.6932 25.2339 29.8222 25.2339H29.9764V25.1218V25.0096H29.1213H28.2663V25.1218V25.2339H28.4065C28.5102 25.2339 28.5607 25.2479 28.6027 25.29C28.656 25.3432 28.6588 25.3769 28.6532 25.9151L28.6448 26.4814H28.0561H27.4673L27.4589 25.9151C27.4533 25.3769 27.4561 25.3432 27.5094 25.29C27.5514 25.2479 27.6019 25.2339 27.7056 25.2339H27.8458V25.1218V25.0096H26.9908H26.1357V25.1218Z" fill="white"/>
<path d="M34.3802 25.2227C34.3802 25.3404 34.3606 25.5647 34.3353 25.7161C34.3101 25.8703 34.3017 26.0076 34.3157 26.0188C34.3269 26.0301 34.3886 26.0525 34.4531 26.0665L34.568 26.0945L34.6269 25.9095C34.7586 25.5002 34.9745 25.2676 35.2464 25.2395L35.3894 25.2255V26.6552C35.3894 28.3176 35.4202 28.1718 35.0698 28.197L34.8568 28.2138V28.3204V28.4297H35.8379H36.8191V28.3176V28.2054H36.6733C36.4547 28.2054 36.3173 28.1606 36.2865 28.0765C36.2697 28.0344 36.2584 27.4289 36.2584 26.6187V25.2339H36.365C36.5107 25.2367 36.6761 25.318 36.7883 25.447C36.8892 25.5591 37.0238 25.8282 37.0574 25.9824C37.077 26.0833 37.1051 26.0917 37.2761 26.0441C37.3574 26.0216 37.3798 26.0048 37.3686 25.9684C37.3321 25.8422 37.2929 25.5563 37.2761 25.2956L37.2592 25.0096H35.8183H34.3802V25.2227Z" fill="white"/>
<path d="M38.0537 25.1218V25.2339H38.1967C38.3369 25.2339 38.4406 25.2676 38.4798 25.3292C38.491 25.346 38.5023 25.974 38.5023 26.7253V28.0933L38.4406 28.1325C38.4041 28.155 38.3032 28.183 38.2163 28.1914L38.0537 28.211V28.3204V28.4297H39.5928H41.1291L41.1487 28.169C41.1599 28.0288 41.1908 27.7849 41.2188 27.6307C41.2468 27.4766 41.2693 27.3476 41.2664 27.3448C41.2664 27.3448 41.2076 27.3336 41.1375 27.3224L41.0113 27.3056L40.902 27.5186C40.7646 27.7933 40.5628 28.012 40.3637 28.1101C40.117 28.2307 39.5255 28.2447 39.4134 28.1325C39.3769 28.0961 39.3713 27.9868 39.3713 27.4485V26.8038L39.4414 26.7589C39.5339 26.6972 39.9516 26.7169 40.0582 26.7869C40.1507 26.8486 40.2124 26.972 40.232 27.143L40.2488 27.2803H40.3637H40.4815V26.6496L40.4787 26.016L40.3665 26.0244C40.26 26.0329 40.2544 26.0385 40.2376 26.1394C40.1983 26.3861 40.0301 26.4954 39.6881 26.4954C39.3601 26.4954 39.3713 26.5178 39.3713 25.8759C39.3713 25.5619 39.3825 25.3208 39.3994 25.2872C39.4274 25.2395 39.4638 25.2339 39.8563 25.2339C40.246 25.2339 40.2937 25.2395 40.4254 25.3012C40.5908 25.3797 40.6833 25.4862 40.8011 25.7469C40.8852 25.9319 40.888 25.9347 40.9973 25.9347H41.1095V25.8142C41.1095 25.7469 41.101 25.5367 41.0898 25.3517L41.073 25.0096H39.562H38.0537V25.1218Z" fill="white"/>
<path d="M41.9799 25.1218V25.2339H42.134C42.263 25.2339 42.3022 25.2451 42.3611 25.304L42.4312 25.3741L42.4228 26.7365C42.4144 28.2923 42.4396 28.1578 42.1453 28.1914L41.9799 28.211V28.3204V28.4297H43.418H44.856L44.8897 28.0709C44.9065 27.8746 44.9429 27.6111 44.9682 27.4822C44.9934 27.356 45.0102 27.2467 45.0046 27.2411C44.999 27.2355 44.9429 27.2243 44.8841 27.2187L44.7747 27.2102L44.7243 27.3841C44.6122 27.7793 44.458 28.0148 44.2365 28.1185C44.0123 28.225 43.4404 28.2335 43.3395 28.1325C43.303 28.0961 43.2974 27.9027 43.2974 26.7085C43.2974 25.4554 43.303 25.3208 43.3451 25.2872C43.3731 25.2619 43.4852 25.2451 43.6534 25.2395L43.9141 25.2283V25.119V25.0096H42.947H41.9799V25.1218Z" fill="white"/>
<path d="M45.457 25.1218V25.2339H45.6336C45.7458 25.2339 45.8299 25.2479 45.8719 25.2788L45.9336 25.3208V26.7057C45.9336 27.9027 45.928 28.0961 45.8916 28.1325C45.8663 28.1578 45.7682 28.183 45.6533 28.1942L45.457 28.2138V28.3204V28.4297H46.3681H47.2792V28.3204V28.2138L47.0914 28.1942C46.9877 28.183 46.8868 28.1606 46.8671 28.1437C46.8391 28.1213 46.8307 27.8242 46.8307 26.7028C46.8307 25.0853 46.8026 25.2339 47.1082 25.2339H47.2792V25.1218V25.0096H46.3681H45.457V25.1218Z" fill="white"/>
<path d="M48.1492 25.1218V25.2339H48.2921C48.4323 25.2339 48.536 25.2676 48.5753 25.3292C48.5865 25.346 48.5977 25.974 48.5977 26.7253V28.0933L48.536 28.1325C48.4996 28.155 48.3987 28.183 48.3118 28.1914L48.1492 28.211V28.3204V28.4297H49.6882H51.2244L51.244 28.183C51.2552 28.0484 51.2861 27.8074 51.3141 27.6448C51.3421 27.4822 51.3646 27.3476 51.3618 27.3448C51.3618 27.3448 51.3029 27.3336 51.2328 27.3224L51.1067 27.3056L50.9973 27.5186C50.86 27.7933 50.6581 28.012 50.4591 28.1101C50.2124 28.2307 49.6209 28.2447 49.5088 28.1325C49.4723 28.0961 49.4667 27.9868 49.4667 27.4485V26.8038L49.5368 26.7589C49.6293 26.6972 50.047 26.7169 50.1535 26.7869C50.246 26.8486 50.3077 26.972 50.3273 27.143L50.3442 27.2803H50.4619H50.5768V26.6496L50.574 26.016L50.4619 26.0244C50.3554 26.0329 50.3498 26.0385 50.3329 26.1394C50.2937 26.3861 50.1255 26.4954 49.7835 26.4954C49.4555 26.4954 49.4667 26.5178 49.4667 25.8759C49.4667 25.5619 49.4779 25.3208 49.4948 25.2872C49.5228 25.2395 49.5592 25.2339 49.9517 25.2339C50.3414 25.2339 50.389 25.2395 50.5208 25.3012C50.6862 25.3797 50.7787 25.4862 50.8964 25.7469C50.9805 25.9319 50.9833 25.9347 51.0926 25.9347H51.2048V25.8142C51.2048 25.7469 51.1964 25.5367 51.1852 25.3517L51.1683 25.0096H49.6573H48.1492V25.1218Z" fill="white"/>
<path d="M52.0752 25.1218V25.2339H52.2294C52.3583 25.2339 52.3976 25.2451 52.4537 25.304L52.5237 25.3713V26.7197C52.5237 28.2727 52.5462 28.155 52.2462 28.1914L52.0752 28.211V28.3204V28.4297H52.9442H53.8133V28.3204V28.211L53.6535 28.1914C53.3844 28.1606 53.3928 28.1802 53.3928 27.4625C53.3928 27.0196 53.4012 26.8346 53.4264 26.8094C53.4769 26.7589 53.6591 26.7673 53.7236 26.8234C53.7544 26.8514 53.9591 27.2243 54.1777 27.6504L54.5758 28.4297H55.1197H55.6635V28.3204C55.6635 28.2222 55.6551 28.211 55.5822 28.197C55.4589 28.1718 55.4084 28.1017 55.0944 27.5354C54.7833 26.9748 54.6319 26.7785 54.4581 26.7085C54.3964 26.6832 54.3459 26.6524 54.3459 26.6384C54.3459 26.6272 54.4244 26.5879 54.5225 26.5515C54.9823 26.3861 55.215 26.1226 55.215 25.7665C55.215 25.503 55.0468 25.2647 54.7776 25.1498C54.4917 25.0265 54.2955 25.0096 53.1545 25.0096H52.0752V25.1218ZM53.903 25.2619C54.1553 25.332 54.2871 25.5451 54.2899 25.8815C54.2899 26.2795 54.1132 26.4926 53.7208 26.5599C53.6255 26.5739 53.5105 26.5795 53.4685 26.5683L53.3928 26.5515V25.9263C53.3928 25.4778 53.4012 25.2928 53.4264 25.2676C53.4685 25.2255 53.76 25.2227 53.903 25.2619Z" fill="white"/>
<path d="M56.2533 25.119V25.2283L56.4327 25.2395C56.5308 25.2451 56.6318 25.2676 56.657 25.2872C56.6962 25.3208 56.7019 25.4722 56.7019 26.7085V28.0933L56.6402 28.1325C56.6037 28.155 56.5028 28.183 56.4159 28.1914L56.2533 28.211V28.3204V28.4297H57.7924H59.3315L59.3512 28.211C59.3624 28.0933 59.3932 27.8494 59.4213 27.6728C59.4521 27.4962 59.4717 27.3504 59.4689 27.3476C59.4661 27.3448 59.4044 27.3336 59.3315 27.3224C59.225 27.3056 59.197 27.3112 59.197 27.342C59.197 27.4093 58.9559 27.7961 58.8381 27.9167C58.7736 27.9812 58.6559 28.0709 58.5746 28.1129C58.4344 28.183 58.4036 28.1886 58.0588 28.1914C57.7868 28.1914 57.6803 28.1802 57.6466 28.1522C57.6046 28.1185 57.599 28.0344 57.599 27.4457C57.599 26.658 57.5766 26.7057 57.9494 26.7253C58.2858 26.7421 58.4008 26.8346 58.4372 27.1177L58.454 27.2663L58.5746 27.2747L58.6923 27.2831V26.6524V26.0188H58.5802C58.4765 26.0188 58.4709 26.0244 58.4512 26.1226C58.4008 26.4001 58.2578 26.4926 57.8933 26.4954C57.7532 26.4954 57.6522 26.4814 57.6326 26.4618C57.6074 26.4365 57.599 26.2627 57.599 25.8478C57.599 25.346 57.6046 25.2647 57.6438 25.2507C57.7195 25.2227 58.4484 25.2311 58.5606 25.2647C58.7288 25.3096 58.8774 25.4666 58.9951 25.7161L59.0961 25.9347H59.2194H59.3456L59.3259 25.8282C59.3175 25.7721 59.3091 25.5647 59.3091 25.3657V25.0096H57.7812H56.2533V25.119Z" fill="white"/>
<path d="M0 31.0934V31.3458H0.204711C0.661806 31.3458 0.973079 31.4467 1.06842 31.6262C1.1217 31.7215 1.1217 31.8449 1.1161 35.1371L1.10768 38.5471L1.03758 38.6256C0.916994 38.7546 0.754347 38.8079 0.36175 38.8416L0 38.8724V39.1192V39.366L3.59787 39.3604L7.19293 39.3519L7.20976 38.9173C7.2406 38.2218 7.34436 37.4507 7.50421 36.7776C7.54627 36.6094 7.57151 36.4664 7.56309 36.4608C7.54627 36.4439 7.03589 36.3598 7.02748 36.371C7.02187 36.3766 6.97981 36.5252 6.92933 36.7019C6.55356 38.0255 6.09086 38.6116 5.27201 38.7967C5.00561 38.8584 3.78575 38.8696 3.60067 38.8107C3.44924 38.7659 3.33988 38.6789 3.2922 38.5639C3.23331 38.4265 3.23331 31.7804 3.2922 31.6458C3.38194 31.4327 3.5558 31.3822 4.28491 31.3542L4.79529 31.3374V31.0878V30.841H2.39764H0V31.0934Z" fill="white"/>
<path d="M58.3848 31.0654V31.2897H58.5895C59.0326 31.2897 59.3466 31.3878 59.4504 31.5533C59.5065 31.6458 59.5065 31.6739 59.5065 35.0923C59.5065 38.463 59.5065 38.5415 59.4504 38.6284C59.3466 38.7995 59.0578 38.8892 58.6175 38.8892H58.3848V39.1276V39.366H62.1285C64.1869 39.366 65.8723 39.3576 65.8723 39.3435C65.8779 38.9537 66.1359 37.0777 66.2256 36.7832C66.2396 36.7328 66.1919 36.7187 65.8666 36.6851L65.6788 36.6683L65.5217 36.9823C65.0282 37.9666 64.5402 38.4938 63.8812 38.7574C63.5727 38.878 63.4213 38.892 62.5772 38.8836C61.8509 38.8752 61.7836 38.8696 61.6826 38.8163C61.4611 38.7014 61.4695 38.7715 61.4695 36.9543C61.4695 35.2213 61.4667 35.2605 61.6181 35.1484C61.6938 35.0923 61.7331 35.0895 62.2912 35.0895C62.7735 35.0895 62.9137 35.0979 63.0427 35.1371C63.4718 35.2717 63.6625 35.555 63.7438 36.1747L63.7774 36.4495H64.027H64.2766L64.257 36.0205C64.2289 35.4765 64.2289 34.2145 64.257 33.749L64.2794 33.3929H64.041H63.8055L63.7606 33.6313C63.6569 34.1921 63.4325 34.4473 62.9277 34.5735C62.8268 34.5987 62.6024 34.6127 62.2687 34.6127C61.8284 34.6127 61.7499 34.6071 61.6574 34.5595C61.4639 34.4641 61.4695 34.5062 61.4695 32.9666C61.4695 31.4187 61.4667 31.4383 61.6658 31.3374C61.7555 31.2925 61.8425 31.2869 62.7455 31.2981C63.5643 31.3065 63.755 31.3177 63.8952 31.357C64.5318 31.5393 64.8487 31.8646 65.202 32.7115L65.3479 33.0564H65.6115H65.8751L65.8582 32.9638C65.8246 32.7647 65.7881 31.9459 65.7881 31.4103V30.841H62.0864H58.3848V31.0654Z" fill="white"/>
<path d="M10.631 34.0018C10.2076 35.1712 9.71121 36.5425 9.52894 37.0529C9.06623 38.326 8.92882 38.5868 8.63718 38.7355C8.53062 38.7887 8.24458 38.8616 8.1268 38.8616C8.11278 38.8616 8.10437 38.9682 8.10437 39.1V39.3384H9.32422H10.5441V39.1028V38.8701L10.3197 38.8532C10.0225 38.8308 9.88227 38.7859 9.78132 38.6822C9.7 38.6008 9.69719 38.5924 9.70841 38.3877C9.71963 38.2307 9.76449 38.0512 9.87947 37.6979C9.9664 37.4342 10.0589 37.1903 10.0842 37.1538C10.1795 37.0192 10.244 37.0108 11.3349 37.0108C12.5015 37.0108 12.5015 37.0108 12.6108 37.2351C12.7538 37.5212 12.9333 38.0877 12.9473 38.3008C12.9614 38.4999 12.9585 38.5167 12.8856 38.6036C12.8436 38.6541 12.7623 38.7186 12.7034 38.7495C12.5912 38.8056 12.3136 38.8616 12.1369 38.8616H12.0303V39.1V39.3384H13.9933H15.9563V39.1C15.9563 38.8644 15.9563 38.8616 15.8806 38.8476C15.4207 38.7523 15.1823 38.5784 14.9944 38.197C14.944 38.0933 14.3354 36.6266 13.6428 34.9412L12.3865 31.8789H11.8929H11.3966L10.631 34.0018ZM11.7359 35.0197C11.9967 35.6591 12.2182 36.2312 12.235 36.2901C12.2575 36.3826 12.2547 36.4051 12.1958 36.4668L12.1313 36.5341L11.2648 36.5285C10.4712 36.52 10.3926 36.5144 10.3646 36.4696C10.3394 36.4303 10.3758 36.2929 10.5497 35.7825C11.0012 34.4392 11.2255 33.8111 11.2451 33.8335C11.2564 33.8447 11.4779 34.3803 11.7359 35.0197Z" fill="white"/>
<path d="M33.8474 34.9272C33.2417 36.607 32.7004 38.0736 32.6415 38.1886C32.5827 38.3036 32.4957 38.4522 32.4481 38.5167C32.3443 38.6597 32.1143 38.7971 31.9405 38.8196C31.6348 38.8616 31.6601 38.8364 31.6601 39.1028V39.3384H32.8799H34.0998V39.1028V38.8701L33.8754 38.8532C33.5838 38.8308 33.4436 38.7859 33.337 38.6878C33.2501 38.6093 33.2501 38.6065 33.2669 38.3765C33.2781 38.1998 33.3174 38.04 33.438 37.6866C33.5221 37.4342 33.6146 37.1959 33.6399 37.1594C33.7324 37.0136 33.7913 37.008 34.927 37.0164C36.1497 37.0248 36.0796 37.008 36.2114 37.3361C36.4189 37.8493 36.4946 38.1129 36.4974 38.3344C36.4974 38.5251 36.489 38.556 36.4273 38.6233C36.2927 38.7663 36.0039 38.8616 35.6926 38.8616H35.586V39.1V39.3384H37.549H39.512V39.1C39.512 38.8644 39.512 38.8616 39.4363 38.8476C39.0101 38.7607 38.7633 38.5924 38.581 38.2699C38.5417 38.2026 37.9304 36.736 37.2237 35.0113L35.9394 31.8789H35.443H34.9495L33.8474 34.9272ZM35.2832 35.0057C35.83 36.3574 35.83 36.3546 35.7571 36.4499L35.7066 36.52L34.8429 36.5285C33.9371 36.5341 33.9035 36.5313 33.9035 36.4107C33.9035 36.377 34.0549 35.9087 34.24 35.3703C34.7363 33.9288 34.7784 33.8083 34.8008 33.8335C34.8121 33.8447 35.028 34.3719 35.2832 35.0057Z" fill="white"/>
<path d="M27.8239 31.9935C26.6152 32.1085 25.8525 32.6637 25.558 33.6312C25.4907 33.8527 25.4823 33.9341 25.4795 34.2902C25.4767 34.6408 25.4851 34.7249 25.5412 34.9072C25.6365 35.21 25.7824 35.4568 25.9927 35.6643C26.3685 36.0401 26.6461 36.1719 27.6388 36.4495C28.023 36.5589 28.4633 36.6851 28.6175 36.7328C29.2849 36.9375 29.5485 37.1955 29.5794 37.675C29.6214 38.3088 29.2933 38.7827 28.7044 38.9454C28.3258 39.0519 27.8968 39.0407 27.5463 38.9173C26.9826 38.721 26.5087 38.1994 26.1385 37.375C26.0852 37.26 26.0348 37.1534 26.0235 37.1422C26.0095 37.1282 25.8637 37.131 25.6954 37.1506L25.3898 37.1843L25.4374 37.4423C25.5047 37.7928 25.572 38.3957 25.5945 38.8444L25.6113 39.2174L25.8665 39.2342C26.0067 39.2454 26.3881 39.2959 26.7106 39.352C27.5378 39.4922 27.9304 39.5231 28.3735 39.481C29.226 39.4025 29.7925 39.1809 30.2131 38.7631C30.5384 38.4406 30.7151 38.0704 30.7936 37.5432C30.8609 37.0665 30.7684 36.4439 30.5721 36.071C30.4487 35.8354 30.0869 35.5017 29.7953 35.353C29.4476 35.1708 29.2653 35.1119 28.2445 34.8342C27.2827 34.5763 27.0387 34.4809 26.8396 34.2874C26.6489 34.1023 26.5704 33.906 26.5732 33.6172C26.5732 33.4181 26.5872 33.3508 26.6517 33.2049C26.7779 32.9245 27.0499 32.7086 27.4229 32.588C27.6332 32.5207 28.1912 32.5067 28.4464 32.5628C29.1026 32.7086 29.599 33.2105 29.8682 33.9958L29.9439 34.2201L30.1234 34.2145C30.2215 34.2117 30.3533 34.2005 30.4206 34.1921C30.5356 34.1752 30.5412 34.1724 30.5244 34.0855C30.4823 33.8275 30.4234 33.118 30.4066 32.6413L30.3898 32.1028H30.1486C30.014 32.1028 29.756 32.0832 29.5709 32.0608C28.8558 31.9738 28.2641 31.9514 27.8239 31.9935Z" fill="white"/>
<path d="M16.1245 32.367V32.5997L16.4414 32.6165C16.7555 32.6306 16.9349 32.6754 16.9826 32.7512C16.9966 32.7736 17.0163 33.7999 17.0247 35.0338C17.0387 37.2268 17.0415 37.2828 17.1004 37.51C17.3696 38.5335 18.138 39.1841 19.3606 39.4281C19.756 39.5066 20.5581 39.5122 20.9759 39.4421C22.1228 39.2458 22.8267 38.7046 23.1296 37.7876C23.3118 37.2408 23.3118 37.2268 23.3287 34.9861C23.3455 32.9895 23.3455 32.9475 23.4044 32.8689C23.4829 32.7596 23.6904 32.6642 23.8839 32.6474C23.9736 32.639 24.0886 32.6278 24.1391 32.6194L24.2288 32.6053V32.3698V32.1314H23.009H21.7891V32.3698V32.6053L21.8817 32.6194C21.9293 32.6278 22.0555 32.639 22.1593 32.6474C22.4762 32.6726 22.6865 32.7988 22.7426 32.9979C22.779 33.1325 22.779 36.2004 22.7426 36.7108C22.6753 37.6334 22.4425 38.1522 21.9462 38.4747C21.3937 38.8336 20.3141 38.8701 19.6831 38.5504C19.456 38.4382 19.1615 38.1437 19.0578 37.9334C18.8839 37.5745 18.8923 37.6838 18.8811 35.2161C18.8727 33.413 18.8783 32.9362 18.9063 32.8465C18.9596 32.6839 19.0578 32.639 19.4139 32.6165L19.714 32.5997V32.3642V32.1314H17.9192H16.1245V32.367Z" fill="white"/>
<path d="M40.4094 32.3642V32.5969L40.7038 32.6278C41.0319 32.6614 41.1441 32.7091 41.2423 32.8605L41.3068 32.9531V35.634C41.3068 37.3446 41.2955 38.3597 41.2759 38.4382C41.2142 38.7158 41.0544 38.8168 40.6421 38.8476L40.3813 38.8701V39.1028V39.3384H41.6713H42.9613V39.1056V38.8701L42.6472 38.8533C42.4733 38.842 42.2798 38.8196 42.2209 38.8028C42.0891 38.7663 41.9658 38.6429 41.9181 38.5027C41.8676 38.3485 41.8508 33.5616 41.9013 33.6121C41.9209 33.6317 42.8715 34.9497 44.0129 36.5425L46.088 39.4365L46.5872 39.445L47.0835 39.4506V36.1836C47.0835 32.5184 47.0667 32.7876 47.2882 32.6923C47.3555 32.6614 47.5182 32.6334 47.6668 32.6222L47.9248 32.5997V32.367V32.1314H46.733H45.5412V32.367V32.6026L45.8356 32.6222C46.3208 32.6558 46.4442 32.754 46.4946 33.1438C46.5339 33.4579 46.5311 37.0024 46.489 36.9604C46.4722 36.9436 45.6926 35.8527 44.756 34.5375L43.0566 32.1455L41.733 32.137L40.4094 32.1314V32.3642Z" fill="white"/>
<path d="M49.383 32.3642V32.5997L49.6719 32.6278C50.0084 32.6586 50.1542 32.7203 50.2383 32.8634C50.2944 32.9559 50.2944 33.0092 50.2944 35.6508C50.2944 38.5336 50.2972 38.4915 50.1542 38.6598C50.056 38.7747 49.9074 38.828 49.6102 38.8504L49.355 38.8701V39.1028V39.3384H50.6449H51.9349V39.1056V38.8701L51.6208 38.8533C51.2535 38.8308 51.1385 38.8028 51.0432 38.7158C50.8749 38.556 50.8833 38.713 50.8749 36.0294L50.8693 33.5756L50.959 33.7018C51.0095 33.7719 51.9573 35.0955 53.0678 36.6407L55.0813 39.4506H55.5693H56.0572V36.1948C56.0572 33.2055 56.06 32.9307 56.1049 32.8409C56.1694 32.7035 56.3152 32.6446 56.6545 32.6194L56.9293 32.5997L56.9209 32.3726L56.9125 32.1455L55.7151 32.137L54.5148 32.1314V32.3642V32.5969L54.8542 32.6278C55.2103 32.6586 55.2776 32.6867 55.3898 32.8353C55.4879 32.9671 55.4963 33.169 55.4907 35.1012L55.4823 36.9884L53.7801 34.5964C52.8435 33.2784 52.0639 32.1847 52.0443 32.1651C52.0162 32.1399 51.7078 32.1314 50.6954 32.1314H49.383V32.3642Z" fill="white"/>
<path d="M26.1496 42.9975C26.0206 43.1265 26.0907 43.348 26.2618 43.348C26.3627 43.348 26.472 43.2303 26.472 43.1237C26.472 42.9443 26.2786 42.8685 26.1496 42.9975Z" fill="white"/>
<path d="M24.3826 43.0151C23.7799 43.0964 23.4996 43.6991 23.8696 44.1197C23.9341 44.1926 24.0743 44.3103 24.1864 44.386C24.5649 44.6411 24.691 44.871 24.5761 45.1037C24.5004 45.2523 24.3995 45.3168 24.2172 45.3336C24.0883 45.3448 24.0434 45.3336 23.9397 45.2747C23.7967 45.1906 23.6762 44.9916 23.651 44.7953C23.6341 44.672 23.6285 44.6664 23.5416 44.6664C23.4603 44.6664 23.4547 44.672 23.4659 44.7505C23.4716 44.7953 23.4631 44.9551 23.4463 45.1065C23.4211 45.3196 23.4211 45.3813 23.4491 45.3981C23.4687 45.4093 23.6033 45.4429 23.7463 45.4682C24.4331 45.5915 24.9349 45.342 25.005 44.8486C25.0442 44.5626 24.9069 44.3552 24.5144 44.0972C24.1051 43.8281 24.0014 43.6851 24.0574 43.4692C24.1556 43.1104 24.691 43.0543 24.8648 43.3851C24.89 43.4356 24.9181 43.5197 24.9265 43.573C24.9433 43.6599 24.9545 43.6711 25.0358 43.6795L25.1255 43.6879L25.1311 43.4356C25.1339 43.2954 25.1367 43.1581 25.1367 43.1328C25.1395 43.0964 25.1031 43.0768 24.9994 43.0515C24.7975 43.0067 24.5452 42.9926 24.3826 43.0151Z" fill="white"/>
<path d="M34.8174 43.0857C34.7137 43.209 34.5567 43.2903 34.3772 43.3127C34.237 43.3295 34.1557 43.3772 34.1557 43.4417C34.1557 43.4641 34.2174 43.4753 34.338 43.4753C34.6464 43.4753 34.6408 43.4529 34.467 44.2518C34.2314 45.3339 34.2679 45.2638 33.9707 45.2975C33.8165 45.3143 33.794 45.3227 33.7828 45.3844L33.7716 45.4517H34.38C34.91 45.4517 34.9941 45.4461 35.0081 45.4068C35.039 45.3227 35.0249 45.3115 34.8875 45.3115C34.6969 45.3115 34.6044 45.2722 34.6044 45.1938C34.6044 45.1181 35.0137 43.2118 35.0698 43.0324C35.081 42.9931 35.067 42.9847 34.9913 42.9875C34.9212 42.9875 34.8791 43.0128 34.8174 43.0857Z" fill="white"/>
<path d="M36.6766 43.0126C36.3262 43.0715 36.1188 43.3014 36.1188 43.6294C36.1188 43.8172 36.1776 43.9517 36.3318 44.1059L36.4551 44.2349L36.3094 44.2881C35.9898 44.4031 35.7768 44.7395 35.8412 45.0254C35.8861 45.2245 35.9646 45.3282 36.1356 45.4123C36.2729 45.4796 36.3094 45.4852 36.5336 45.474C36.8084 45.4599 36.9429 45.4067 37.0915 45.2497C37.355 44.9778 37.3242 44.6021 37.013 44.2853L36.8728 44.1424L36.9962 44.0947C37.1616 44.033 37.3494 43.8676 37.4111 43.7303C37.6101 43.293 37.2261 42.9229 36.6766 43.0126ZM37.0158 43.1948C37.1223 43.2509 37.1896 43.3799 37.1896 43.5312C37.1896 43.6826 37.1335 43.7892 36.9934 43.9153C36.8336 44.0583 36.7803 44.0695 36.671 43.977C36.4355 43.7807 36.3598 43.5116 36.4888 43.321C36.5252 43.2677 36.5869 43.2089 36.6233 43.1892C36.7187 43.1416 36.9177 43.1444 37.0158 43.1948ZM36.7523 44.4816C36.9653 44.703 37.0102 44.8937 36.8981 45.1151C36.8168 45.2693 36.6906 45.3394 36.486 45.3394C36.3486 45.3394 36.3262 45.331 36.2281 45.2301C36.1216 45.1263 36.1188 45.1151 36.1188 44.9329C36.1188 44.7787 36.1328 44.7171 36.1888 44.6217C36.2561 44.504 36.4804 44.3302 36.5645 44.3302C36.5869 44.3302 36.671 44.3975 36.7523 44.4816Z" fill="white"/>
<path d="M38.7632 43.0124C38.4071 43.0853 38.1493 43.3768 38.0848 43.7861C38.0259 44.1758 38.1885 44.4561 38.5193 44.529C38.6594 44.5598 38.6959 44.557 38.8613 44.5065C38.965 44.4757 39.0715 44.4393 39.0967 44.4281C39.1416 44.4112 39.1444 44.4168 39.1023 44.5598C39.007 44.8962 38.8304 45.1597 38.6398 45.255C38.48 45.3391 38.2333 45.3307 38.0988 45.241C38.0427 45.2017 37.9895 45.1709 37.9839 45.1709C37.9755 45.1709 37.9698 45.2214 37.9698 45.2802C37.9698 45.3868 37.9755 45.3924 38.1016 45.4344C38.3146 45.5073 38.5501 45.4933 38.7435 45.3952C39.4191 45.0588 39.7891 43.9067 39.4163 43.2871C39.2845 43.0657 39.0323 42.962 38.7632 43.0124ZM39.0995 43.2087C39.2173 43.3012 39.2677 43.4806 39.2537 43.7469C39.2369 44.0749 39.1136 44.2907 38.9033 44.3608C38.6286 44.4505 38.4352 44.2571 38.4352 43.8954C38.4352 43.6319 38.5081 43.4301 38.6538 43.2759C38.7603 43.1666 38.7856 43.1526 38.9005 43.1526C38.9846 43.1526 39.0519 43.1722 39.0995 43.2087Z" fill="white"/>
<path d="M40.8719 43.0043C40.827 43.0099 40.7093 43.0324 40.6139 43.0576C40.4429 43.1024 40.4373 43.1052 40.4093 43.2202C40.3925 43.2819 40.3728 43.3519 40.3672 43.3688C40.3476 43.4276 40.3813 43.4108 40.4962 43.3099C40.6896 43.1333 40.9504 43.1165 41.1214 43.2678C41.2027 43.3407 41.2083 43.3575 41.2083 43.537C41.2083 43.7052 41.1971 43.7444 41.1326 43.8313C41.0317 43.9631 40.8522 44.0472 40.6252 44.0696C40.4626 44.0836 40.4401 44.092 40.4289 44.1509C40.4177 44.2154 40.4233 44.2182 40.5719 44.2182C40.7934 44.2182 40.9504 44.2995 41.0233 44.4537C41.1943 44.8069 40.9476 45.3396 40.6139 45.3396C40.4738 45.3396 40.4177 45.2975 40.3392 45.1433C40.2635 44.9975 40.1906 44.9527 40.0617 44.9863C39.9243 45.02 39.9355 45.2414 40.0813 45.3508C40.2243 45.4573 40.3644 45.4881 40.6308 45.4741C40.9139 45.4601 41.0793 45.3956 41.2307 45.2442C41.3597 45.1181 41.413 45.0144 41.4466 44.8321C41.4971 44.563 41.3681 44.3219 41.1102 44.2098L40.984 44.1537L41.0962 44.1201C41.3401 44.0472 41.4915 43.9238 41.57 43.736C41.6597 43.5258 41.5924 43.2482 41.4298 43.1333C41.2952 43.0408 41.0485 42.9819 40.8719 43.0043Z" fill="white"/>
<path d="M28.0871 43.8145C27.9582 43.8621 27.8208 43.9631 27.6582 44.1257L27.5433 44.2462L27.5573 44.078C27.5685 43.9659 27.5629 43.8958 27.5377 43.8677C27.4283 43.736 26.9153 43.9631 26.8873 44.1565L26.8761 44.2378L27.0022 44.1593C27.0723 44.1145 27.1452 44.078 27.1648 44.078C27.2293 44.078 27.2041 44.2602 27.0611 44.835C26.9854 45.1434 26.921 45.4069 26.921 45.4237C26.921 45.4377 26.9854 45.4517 27.0695 45.4517H27.2209L27.3078 45.1097C27.3583 44.9247 27.4452 44.6752 27.5012 44.5602C27.6806 44.1958 27.9946 43.9378 28.1544 44.0219C28.2665 44.0808 28.2721 44.1649 28.1824 44.5041C27.989 45.2275 27.9806 45.348 28.1067 45.4377C28.289 45.5639 28.687 45.3817 28.687 45.1714C28.687 45.1574 28.6422 45.177 28.5861 45.2134C28.4684 45.2947 28.4011 45.3004 28.3506 45.2415C28.3226 45.2078 28.3422 45.1097 28.4516 44.7312C28.6338 44.0836 28.6282 43.9126 28.4207 43.8117C28.3086 43.7612 28.2301 43.7612 28.0871 43.8145Z" fill="white"/>
<path d="M29.9773 43.8088C29.5175 43.9321 29.1278 44.3666 29.0886 44.8011C29.0605 45.0954 29.2035 45.3645 29.425 45.4486C29.6128 45.5214 29.9492 45.457 30.1903 45.3028C30.3305 45.2159 30.3585 45.1795 30.3837 45.0589L30.4034 44.9636L30.3389 45.0113C30.0726 45.1991 29.8567 45.272 29.6857 45.2243C29.5624 45.1907 29.4446 45.0589 29.4138 44.9188C29.3549 44.6609 29.4951 44.2825 29.7278 44.0639C29.8875 43.9153 29.9801 43.9013 30.0698 44.0106C30.2155 44.1872 30.2576 44.218 30.3417 44.218C30.4454 44.218 30.566 44.1087 30.566 44.0162C30.566 43.8144 30.2996 43.7191 29.9773 43.8088Z" fill="white"/>
<path d="M31.6318 43.806C31.0795 43.9658 30.7011 44.5152 30.7936 45.017C30.8553 45.3422 31.0655 45.4964 31.4188 45.4739C31.7271 45.4543 32.0355 45.2861 32.0691 45.1235L32.086 45.0338L31.8925 45.1291C31.5785 45.2889 31.301 45.2665 31.1833 45.0731C31.1524 45.0226 31.1272 44.9385 31.1272 44.8825C31.1272 44.7843 31.13 44.7815 31.2618 44.7647C31.8701 44.689 32.2149 44.4788 32.2402 44.1704C32.2514 44.0191 32.2149 43.9266 32.1084 43.8481C32.0159 43.7808 31.7916 43.7612 31.6318 43.806ZM31.8084 43.9406C31.8813 43.9742 31.9402 44.0723 31.9402 44.1648C31.9402 44.2573 31.8365 44.4255 31.7383 44.49C31.6346 44.5601 31.3571 44.6386 31.2225 44.6386H31.1328L31.1608 44.5321C31.2505 44.2097 31.4944 43.9406 31.7215 43.9125C31.7327 43.9097 31.772 43.9238 31.8084 43.9406Z" fill="white"/>
<path d="M25.8693 43.8786C25.732 43.9403 25.575 44.0833 25.575 44.145C25.575 44.201 25.5806 44.201 25.6983 44.1309C25.8217 44.058 25.9226 44.0693 25.9338 44.1534C25.9394 44.187 25.8861 44.4281 25.8161 44.6889C25.746 44.9468 25.6871 45.1935 25.6871 45.2327C25.6871 45.2748 25.7207 45.3449 25.76 45.3925C25.8609 45.5131 26.0403 45.5159 26.2254 45.3982C26.3628 45.3112 26.3964 45.2664 26.4272 45.129L26.4497 45.0449L26.3824 45.1066C26.2843 45.1991 26.1329 45.2552 26.0712 45.2215C26.0067 45.1879 26.0095 45.157 26.1805 44.5206C26.2478 44.2627 26.3039 44.0216 26.3039 43.9852C26.3039 43.831 26.088 43.7777 25.8693 43.8786Z" fill="white"/>
<path d="M0.0560303 44.4139V44.5541H11.0207H21.9853V44.4139V44.2738H11.0207H0.0560303V44.4139Z" fill="white"/>
<path d="M43.1855 44.4139V44.5541H54.5428H65.9001V44.4139V44.2738H54.5428H43.1855V44.4139Z" fill="white"/>
<path d="M31.0234 49.1369C30.7011 49.2406 30.5132 49.4256 30.4207 49.7256C30.3534 49.9471 30.3618 50.2218 30.4431 50.4573C30.5076 50.6451 30.7291 50.8666 30.9169 50.9311C31.2141 51.032 31.5757 51.018 31.828 50.889C31.9794 50.8162 32.1504 50.6143 32.2093 50.4405C32.2934 50.205 32.2822 49.8293 32.1897 49.6275C32.0355 49.2995 31.7523 49.12 31.3655 49.106C31.2281 49.1004 31.0963 49.1144 31.0234 49.1369ZM31.6458 49.3331C31.7243 49.3696 31.814 49.4284 31.8477 49.4649C32.1028 49.7452 32.1028 50.3564 31.8477 50.6367C31.6262 50.8778 31.1468 50.9003 30.8637 50.6844C30.5749 50.4657 30.5104 49.8489 30.7431 49.5378C30.9393 49.2798 31.3374 49.1873 31.6458 49.3331Z" fill="white"/>
<path d="M47.0638 49.1537C46.8423 49.2266 46.6124 49.4285 46.5199 49.6359C46.4639 49.7592 46.4526 49.8293 46.4526 50.0508C46.4554 50.2834 46.4639 50.3395 46.5339 50.4937C46.6965 50.8469 47.0554 51.0319 47.5179 50.9955C48.0253 50.959 48.3169 50.6535 48.3169 50.1573V49.9947H47.8964H47.4759V50.1489V50.3031H47.6889H47.902L47.8824 50.3816C47.8347 50.5778 47.6945 50.6675 47.431 50.6675C47.1507 50.6675 46.9769 50.5161 46.9124 50.2218C46.8171 49.7704 47.0413 49.4341 47.4422 49.4341C47.5936 49.4341 47.6244 49.4453 47.7086 49.5182C47.7618 49.563 47.8207 49.6415 47.8403 49.6892C47.8796 49.7817 47.8852 49.7817 48.2244 49.7256L48.3113 49.7088L48.2692 49.5882C48.216 49.4285 48.0618 49.2743 47.8739 49.1874C47.6581 49.0893 47.3049 49.0752 47.0638 49.1537Z" fill="white"/>
<path d="M52.3245 49.137C52.0302 49.2155 51.7807 49.437 51.6909 49.6977C51.6265 49.8883 51.6293 50.2135 51.6966 50.4154C51.7666 50.6256 52.0021 50.8611 52.2152 50.9368C52.4367 51.0125 52.846 51.0069 53.059 50.9256C53.3982 50.791 53.5832 50.5275 53.6085 50.135C53.6281 49.8715 53.5861 49.6753 53.4711 49.5043C53.2581 49.1819 52.7534 49.0193 52.3245 49.137ZM52.888 49.4902C52.9581 49.5267 53.0254 49.594 53.0758 49.6781C53.1459 49.7986 53.1543 49.8407 53.1543 50.0509C53.1543 50.2528 53.1431 50.3088 53.0842 50.4126C52.9861 50.5892 52.8936 50.6481 52.6918 50.6621C52.4843 50.6761 52.4114 50.6593 52.2965 50.5639C52.1619 50.4518 52.103 50.2976 52.103 50.0565C52.103 49.765 52.1787 49.6052 52.3694 49.4874C52.4871 49.4146 52.7422 49.4174 52.888 49.4902Z" fill="white"/>
<path d="M7.79297 50.0257C7.5715 50.5191 7.38648 50.9368 7.38087 50.9508C7.37527 50.9649 7.41732 50.9761 7.47338 50.9761C7.57431 50.9761 7.57711 50.9705 7.66401 50.7798L7.75092 50.5836H8.30318H8.85264L8.94235 50.7798C9.02645 50.9677 9.03206 50.9761 9.12737 50.9761C9.18064 50.9761 9.22549 50.9677 9.22549 50.9536C9.22269 50.9424 9.04047 50.5303 8.82181 50.0369L8.41812 49.1398L8.30879 49.1314L8.19946 49.123L7.79297 50.0257ZM8.54988 49.8855C8.67323 50.1743 8.77695 50.4154 8.77695 50.4266C8.77695 50.435 8.5639 50.4434 8.30038 50.4434C8.03967 50.4434 7.82381 50.4378 7.82381 50.435C7.82381 50.421 8.27235 49.4006 8.29197 49.3697C8.31159 49.3389 8.29477 49.3052 8.54988 49.8855Z" fill="white"/>
<path d="M12.0022 50.0535V50.9785L12.1087 50.9701L12.2125 50.9617L12.2265 50.1684L12.2405 49.3723L12.647 50.1684C12.8712 50.6057 13.0675 50.9589 13.0815 50.9533C13.0983 50.9477 13.2946 50.5833 13.5216 50.1404L13.9365 49.3358V50.1572V50.9785L14.0431 50.9701L14.1468 50.9617V50.0506V49.1396L13.987 49.1312L13.8272 49.1228L13.46 49.8544C13.2609 50.2553 13.0899 50.5833 13.0815 50.5833C13.0759 50.5833 12.9049 50.2553 12.703 49.8544L12.3358 49.1256H12.1704H12.0022V50.0535Z" fill="white"/>
<path d="M15.2972 49.1594C15.2888 49.179 15.286 49.5939 15.2888 50.0789L15.2972 50.962H15.97H16.6428L16.6512 50.8835L16.6596 50.8078H16.0849H15.5074V50.4574V50.107H16.0261H16.5447V50.0229V49.9388H16.0261H15.5074V49.6164V49.294H16.0849H16.6596L16.6512 49.2155L16.6428 49.1398L15.9756 49.1314C15.457 49.1257 15.3056 49.1314 15.2972 49.1594Z" fill="white"/>
<path d="M17.7228 50.0506V50.9757H17.8209H17.919L17.9246 50.1628L17.933 49.3498L18.3508 50.1656C18.6451 50.7402 18.7769 50.9701 18.7965 50.9505C18.8133 50.9337 19.0068 50.5692 19.2282 50.1432L19.6263 49.3639L19.6347 50.1628L19.6432 50.9617L19.7497 50.9701L19.8534 50.9785V50.0506V49.1228L19.6936 49.1312L19.531 49.1396L19.1666 49.86C18.9675 50.2581 18.7965 50.5833 18.7881 50.5833C18.7797 50.5833 18.6087 50.2581 18.4068 49.86L18.0368 49.1396L17.8798 49.1312L17.7228 49.1228V50.0506Z" fill="white"/>
<path d="M21.0039 50.0481V50.9761H21.4188C22.086 50.9733 22.3383 50.9172 22.4981 50.7238C22.6915 50.4939 22.585 50.1154 22.3018 50.0201L22.2009 49.9865L22.2822 49.9444C22.4056 49.8827 22.456 49.8295 22.4925 49.7229C22.5345 49.5912 22.5037 49.451 22.4028 49.3389C22.257 49.1706 22.1505 49.1454 21.5449 49.1314L21.0039 49.1202V50.0481ZM22.1168 49.3473C22.1813 49.3781 22.2458 49.4258 22.2626 49.4566C22.3075 49.5407 22.299 49.6921 22.2486 49.7678C22.1673 49.8827 22.0467 49.9108 21.6206 49.9108H21.2282V49.6024V49.294H21.615C21.9318 49.294 22.0187 49.3052 22.1168 49.3473ZM22.2009 50.1434C22.3215 50.2079 22.3775 50.2948 22.3775 50.421C22.3775 50.5724 22.3299 50.6509 22.1981 50.7266C22.0944 50.7882 22.0439 50.7938 21.6571 50.8023L21.2282 50.8135V50.4434V50.0734L21.6711 50.0846C22.0159 50.093 22.1308 50.1042 22.2009 50.1434Z" fill="white"/>
<path d="M23.6118 50.051V50.9761H24.2846H24.9574V50.892V50.8079H24.3968H23.8361V50.4575V50.107H24.3547H24.8733V50.0229V49.9388H24.3547H23.8361V49.6164V49.2941H24.3968H24.9574V49.2099V49.1258H24.2846H23.6118V50.051Z" fill="white"/>
<path d="M26.0236 50.051V50.9761H26.1357H26.2478V50.5836V50.1911H26.5394H26.8281L27.0832 50.5836L27.3383 50.9761H27.4533C27.5149 50.9761 27.5654 50.9705 27.5654 50.9621C27.5654 50.9536 27.4533 50.777 27.3131 50.5696L27.0608 50.1939L27.2234 50.1491C27.4308 50.0874 27.5318 50.0117 27.5962 49.8715C27.6663 49.7174 27.6635 49.5856 27.5878 49.4342C27.4645 49.1903 27.229 49.1258 26.4917 49.1258H26.0236V50.051ZM27.1561 49.3249C27.2178 49.3417 27.3019 49.3922 27.3467 49.4342C27.4505 49.5379 27.4589 49.7482 27.3636 49.8687C27.2598 50.0005 27.1617 50.0229 26.6823 50.0229H26.2478V49.6585V49.2941H26.6487C26.8674 49.2941 27.0972 49.3081 27.1561 49.3249Z" fill="white"/>
<path d="M33.2865 50.0535V50.9785L33.393 50.9701L33.4968 50.9617L33.5052 50.5608L33.5136 50.1628H34.0294H34.548V50.0927V50.0226H34.0294H33.5108V49.6582V49.2938H34.0714H34.6321V49.2097V49.1256H33.9593H33.2865V50.0535Z" fill="white"/>
<path d="M37.4511 49.1623C37.4427 49.1819 37.4399 49.594 37.4427 50.079L37.4511 50.9621L38.1743 50.9705L38.8947 50.9761V50.8079V50.6397H38.3901H37.8856V50.4154V50.1911H38.3481H38.8106V50.0369V49.8828H38.3481H37.8856V49.6725V49.4623H38.3901H38.8947V49.2941V49.1258H38.1799C37.6305 49.1258 37.4595 49.1343 37.4511 49.1623Z" fill="white"/>
<path d="M39.8345 49.162C39.8261 49.1816 39.8233 49.5937 39.8261 50.0787L39.8345 50.9617L40.0532 50.9701L40.2691 50.9785V50.5692V50.1628H40.6616H41.0541V50.5692V50.9785L41.2728 50.9701L41.4886 50.9617V50.0506V49.1396L41.2728 49.1312L41.0541 49.1228V49.504V49.8825H40.6616H40.2691V49.504V49.1256H40.0588C39.913 49.1256 39.8429 49.1368 39.8345 49.162Z" fill="white"/>
<path d="M42.5126 50.0509V50.9761H43.1994H43.8862V50.8079V50.6397H43.4237H42.9611L42.9555 49.8883L42.9471 49.1398L42.7312 49.1314L42.5126 49.123V50.0509Z" fill="white"/>
<path d="M49.2007 49.162C49.1923 49.1816 49.1895 49.5937 49.1923 50.0787L49.2007 50.9617L49.4194 50.9701L49.6353 50.9785V50.6253V50.2749H49.8007H49.9689L50.2015 50.6169L50.437 50.9617L50.6669 50.9701C50.793 50.9757 50.8968 50.9701 50.8968 50.9589C50.8968 50.9477 50.7958 50.7907 50.6725 50.6085C50.5491 50.4263 50.4482 50.2721 50.4482 50.2637C50.4482 50.2553 50.5015 50.2244 50.5688 50.1964C50.8127 50.0843 50.908 49.9301 50.8912 49.6722C50.8743 49.3835 50.7005 49.2237 50.3389 49.1536C50.1118 49.1116 49.2176 49.1172 49.2007 49.162ZM50.3333 49.504C50.437 49.5573 50.4847 49.6834 50.4426 49.7984C50.3978 49.9329 50.2968 49.9665 49.9436 49.9665H49.6353V49.7143V49.462H49.9436C50.1623 49.462 50.2772 49.4732 50.3333 49.504Z" fill="white"/>
<path d="M54.459 49.7871C54.459 50.5355 54.4758 50.628 54.63 50.7822C54.7785 50.9308 54.972 50.9896 55.3139 50.9896C55.7456 50.9896 55.9895 50.8831 56.1128 50.6364C56.1633 50.5383 56.1689 50.4682 56.1689 49.8263V49.1255H55.9587H55.7484V49.7562C55.7484 50.4654 55.7316 50.5467 55.5774 50.6252C55.5102 50.6617 55.4345 50.6701 55.2831 50.6617C55.1009 50.6532 55.0673 50.642 55 50.5748L54.9215 50.4991L54.9075 49.8179L54.8935 49.1395L54.6776 49.1311L54.459 49.1227V49.7871Z" fill="white"/>
<path d="M57.1509 50.0478V50.9785L57.3695 50.9701L57.5854 50.9617L57.5938 50.6365L57.6022 50.3113L57.9723 50.2945C58.4853 50.2749 58.6899 50.1908 58.8049 49.9525C58.9479 49.6554 58.8049 49.3358 58.4713 49.204C58.3311 49.1508 58.247 49.1424 57.734 49.1312L57.1509 49.1199V50.0478ZM58.2891 49.5152C58.3928 49.5797 58.4292 49.6918 58.3816 49.8039C58.3283 49.9329 58.2302 49.9665 57.8938 49.9665H57.5994V49.7142V49.4619H57.9022C58.1461 49.4619 58.219 49.4732 58.2891 49.5152Z" fill="white"/>
</svg>
