<svg width="17" height="16" viewBox="0 0 17 16" fill="none" xmlns="http://www.w3.org/2000/svg">
<path fill-rule="evenodd" clip-rule="evenodd" d="M5.35023 15.01C11.3878 15.01 14.6916 10.0032 14.6916 5.66867C14.6916 5.52781 14.6916 5.38695 14.6852 5.2461C15.3254 4.78511 15.8824 4.20248 16.3242 3.54302C15.7352 3.80552 15.1013 3.97839 14.4355 4.06162C15.1141 3.65826 15.6327 3.0116 15.8824 2.2433C15.2486 2.62105 14.5443 2.88996 13.7952 3.03721C13.1934 2.39696 12.3418 2 11.4006 2C9.58872 2 8.11614 3.47259 8.11614 5.28451C8.11614 5.54062 8.14815 5.79032 8.19937 6.03361C5.47188 5.89916 3.05171 4.58663 1.43186 2.60184C1.15015 3.08844 0.990085 3.65186 0.990085 4.2537C0.990085 5.39336 1.57272 6.39856 2.44987 6.9876C1.91205 6.96839 1.40625 6.82113 0.964475 6.57783C0.964475 6.59064 0.964475 6.60344 0.964475 6.62265C0.964475 8.21048 2.09773 9.54222 3.59593 9.84314C3.32062 9.91997 3.0325 9.95838 2.73158 9.95838C2.5203 9.95838 2.31542 9.93918 2.11694 9.90076C2.5331 11.2069 3.74959 12.1545 5.18376 12.1801C4.05691 13.0636 2.64195 13.5886 1.10533 13.5886C0.842826 13.5886 0.580321 13.5758 0.324219 13.5438C1.7712 14.4658 3.49989 15.01 5.35023 15.01Z" fill="white"/>
</svg>
