<svg width="238" height="238" viewBox="0 0 238 238" fill="none" xmlns="http://www.w3.org/2000/svg">
<circle opacity="0.1" cx="119" cy="119" r="118.5" stroke="white"/>
<path opacity="0.1" d="M119 238C87.4392 238 57.1711 225.463 34.8543 203.146C12.5375 180.829 -8.77961e-07 150.561 0 119C8.77962e-07 87.4392 12.5375 57.1711 34.8543 34.8543C57.1711 12.5375 87.4392 -3.76358e-07 119 0V119L119 238Z" fill="white"/>
<path opacity="0.05" d="M119 0C137.779 2.23943e-07 156.292 4.44454 173.025 12.9702C189.757 21.4959 204.235 33.8607 215.273 49.0535C226.311 64.2464 233.597 81.8361 236.535 100.384C239.473 118.933 237.979 137.913 232.176 155.773L119 119V0Z" fill="white"/>
</svg>
