<svg width="12" height="85" viewBox="0 0 12 85" fill="none" xmlns="http://www.w3.org/2000/svg">
<path opacity="0.7" d="M9.216 81.3977C9.216 82.1257 9.096 82.7457 8.856 83.2577C8.616 83.7697 8.284 84.1617 7.86 84.4337C7.436 84.7057 6.956 84.8417 6.42 84.8417V83.6657C6.684 83.6657 6.948 83.5977 7.212 83.4617C7.476 83.3177 7.696 83.0817 7.872 82.7537C8.048 82.4177 8.136 81.9657 8.136 81.3977C8.136 80.8697 8.06 80.4377 7.908 80.1017C7.748 79.7657 7.544 79.5177 7.296 79.3577C7.04 79.1977 6.764 79.1177 6.468 79.1177C6.108 79.1177 5.812 79.2737 5.58 79.5857C5.34 79.8977 5.192 80.3537 5.136 80.9537L5.052 81.9257C4.988 82.7017 4.748 83.3217 4.332 83.7857C3.916 84.2497 3.368 84.4817 2.688 84.4817C2.152 84.4817 1.684 84.3537 1.284 84.0977C0.884001 83.8337 0.572001 83.4697 0.348001 83.0057C0.116 82.5417 0 82.0017 0 81.3857C0 80.7777 0.112 80.2417 0.336 79.7777C0.560001 79.3137 0.876001 78.9537 1.284 78.6977C1.684 78.4337 2.164 78.3017 2.724 78.3017V79.4777C2.444 79.4777 2.18 79.5457 1.932 79.6817C1.684 79.8097 1.48 80.0137 1.32 80.2937C1.16 80.5737 1.08 80.9377 1.08 81.3857C1.08 81.8177 1.156 82.1777 1.308 82.4657C1.46 82.7457 1.66 82.9577 1.908 83.1017C2.148 83.2377 2.408 83.3057 2.688 83.3057C3.008 83.3057 3.292 83.1817 3.54 82.9337C3.788 82.6857 3.932 82.3177 3.972 81.8297L4.056 80.8577C4.104 80.2577 4.232 79.7417 4.44 79.3097C4.64 78.8697 4.912 78.5337 5.256 78.3017C5.592 78.0617 5.996 77.9417 6.468 77.9417C7.004 77.9417 7.48 78.0857 7.896 78.3737C8.312 78.6617 8.636 79.0657 8.868 79.5857C9.1 80.1057 9.216 80.7097 9.216 81.3977ZM9.216 73.4122C9.216 73.9722 9.12 74.4562 8.928 74.8642C8.736 75.2722 8.484 75.6042 8.172 75.8602C7.852 76.1162 7.496 76.3082 7.104 76.4362C6.712 76.5562 6.312 76.6162 5.904 76.6162H5.688C5.272 76.6162 4.868 76.5562 4.476 76.4362C4.084 76.3082 3.732 76.1162 3.42 75.8602C3.1 75.6042 2.848 75.2802 2.664 74.8882C2.472 74.4882 2.376 74.0202 2.376 73.4842C2.376 72.7882 2.528 72.2162 2.832 71.7682C3.128 71.3122 3.512 70.9762 3.984 70.7602C4.456 70.5362 4.96 70.4242 5.496 70.4242H6.012V76.1122H5.148V71.2642L5.616 71.5282C5.16 71.5282 4.768 71.6002 4.44 71.7442C4.104 71.8882 3.844 72.1042 3.66 72.3922C3.476 72.6802 3.384 73.0442 3.384 73.4842C3.384 73.9402 3.488 74.3202 3.696 74.6242C3.904 74.9202 4.188 75.1442 4.548 75.2962C4.908 75.4402 5.324 75.5122 5.796 75.5122C6.252 75.5122 6.664 75.4402 7.032 75.2962C7.392 75.1442 7.68 74.9122 7.896 74.6002C8.104 74.2882 8.208 73.8922 8.208 73.4122C8.208 72.9082 8.096 72.5002 7.872 72.1882C7.648 71.8682 7.388 71.6762 7.092 71.6122V70.5322C7.532 70.6202 7.912 70.7962 8.232 71.0602C8.552 71.3242 8.796 71.6562 8.964 72.0562C9.132 72.4562 9.216 72.9082 9.216 73.4122ZM11.4 68.7886H2.592V67.8766H5.364L5.34 68.0926C4.652 68.0526 4.092 67.9086 3.66 67.6606C3.22 67.4046 2.896 67.0726 2.688 66.6646C2.48 66.2566 2.376 65.8126 2.376 65.3326C2.376 64.8686 2.464 64.4486 2.64 64.0726C2.816 63.6886 3.056 63.3606 3.36 63.0886C3.664 62.8166 4.016 62.6086 4.416 62.4646C4.816 62.3206 5.24 62.2486 5.688 62.2486H5.904C6.352 62.2486 6.776 62.3246 7.176 62.4766C7.576 62.6286 7.928 62.8446 8.232 63.1246C8.536 63.3966 8.776 63.7246 8.952 64.1086C9.128 64.4846 9.216 64.9006 9.216 65.3566C9.216 65.8126 9.116 66.2486 8.916 66.6646C8.716 67.0806 8.392 67.4246 7.944 67.6966C7.496 67.9686 6.908 68.1246 6.18 68.1646L7.14 67.6366H11.4V68.7886ZM8.208 65.5366C8.208 65.1046 8.108 64.7286 7.908 64.4086C7.7 64.0886 7.416 63.8406 7.056 63.6646C6.688 63.4886 6.268 63.4006 5.796 63.4006C5.316 63.4006 4.896 63.4886 4.536 63.6646C4.176 63.8406 3.896 64.0886 3.696 64.4086C3.488 64.7286 3.384 65.1046 3.384 65.5366C3.384 65.9206 3.472 66.2766 3.648 66.6046C3.816 66.9326 4.064 67.1966 4.392 67.3966C4.712 67.5886 5.1 67.6846 5.556 67.6846H6.108C6.548 67.6846 6.924 67.5846 7.236 67.3846C7.548 67.1846 7.788 66.9206 7.956 66.5926C8.124 66.2646 8.208 65.9126 8.208 65.5366ZM9.072 58.0191C9.072 58.4991 9.004 58.9151 8.868 59.2671C8.732 59.6111 8.5 59.8791 8.172 60.0711C7.836 60.2551 7.384 60.3471 6.816 60.3471H0.648V59.2431H6.96C7.304 59.2431 7.572 59.1511 7.764 58.9671C7.948 58.7751 8.04 58.5071 8.04 58.1631V57.0351H9.072V58.0191ZM3.456 61.4511H2.592V57.0351H3.456V61.4511ZM9.216 52.7286C9.216 53.2886 9.12 53.7726 8.928 54.1806C8.736 54.5886 8.484 54.9206 8.172 55.1766C7.852 55.4326 7.496 55.6246 7.104 55.7526C6.712 55.8726 6.312 55.9326 5.904 55.9326H5.688C5.272 55.9326 4.868 55.8726 4.476 55.7526C4.084 55.6246 3.732 55.4326 3.42 55.1766C3.1 54.9206 2.848 54.5966 2.664 54.2046C2.472 53.8046 2.376 53.3366 2.376 52.8006C2.376 52.1046 2.528 51.5326 2.832 51.0846C3.128 50.6286 3.512 50.2926 3.984 50.0766C4.456 49.8526 4.96 49.7406 5.496 49.7406H6.012V55.4286H5.148V50.5806L5.616 50.8446C5.16 50.8446 4.768 50.9166 4.44 51.0606C4.104 51.2046 3.844 51.4206 3.66 51.7086C3.476 51.9966 3.384 52.3606 3.384 52.8006C3.384 53.2566 3.488 53.6366 3.696 53.9406C3.904 54.2366 4.188 54.4606 4.548 54.6126C4.908 54.7566 5.324 54.8286 5.796 54.8286C6.252 54.8286 6.664 54.7566 7.032 54.6126C7.392 54.4606 7.68 54.2286 7.896 53.9166C8.104 53.6046 8.208 53.2086 8.208 52.7286C8.208 52.2246 8.096 51.8166 7.872 51.5046C7.648 51.1846 7.388 50.9926 7.092 50.9286V49.8486C7.532 49.9366 7.912 50.1126 8.232 50.3766C8.552 50.6406 8.796 50.9726 8.964 51.3726C9.132 51.7726 9.216 52.2246 9.216 52.7286ZM9 48.105H2.592V47.193H5.34V47.337C4.716 47.337 4.188 47.257 3.756 47.097C3.316 46.929 2.98 46.681 2.748 46.353C2.516 46.025 2.4 45.609 2.4 45.105V45.057C2.4 44.553 2.516 44.137 2.748 43.809C2.98 43.473 3.316 43.225 3.756 43.065C4.188 42.905 4.716 42.825 5.34 42.825V43.161C4.716 43.161 4.188 43.077 3.756 42.909C3.316 42.741 2.98 42.493 2.748 42.165C2.516 41.829 2.4 41.409 2.4 40.905V40.857C2.4 40.353 2.516 39.933 2.748 39.597C2.98 39.261 3.316 39.013 3.756 38.853C4.188 38.685 4.716 38.601 5.34 38.601H9V39.753H5.088C4.568 39.753 4.168 39.881 3.888 40.137C3.6 40.393 3.456 40.749 3.456 41.205C3.456 41.677 3.608 42.057 3.912 42.345C4.208 42.633 4.624 42.777 5.16 42.777H9V43.929H5.088C4.568 43.929 4.168 44.057 3.888 44.313C3.6 44.569 3.456 44.925 3.456 45.381C3.456 45.853 3.608 46.233 3.912 46.521C4.208 46.809 4.624 46.953 5.16 46.953H9V48.105ZM9.216 33.1077C9.216 33.6357 9.1 34.1077 8.868 34.5237C8.636 34.9317 8.3 35.2557 7.86 35.4957C7.412 35.7357 6.876 35.8677 6.252 35.8917V35.5797H9V36.4917H0.240001V35.3397H4.5L5.376 35.7477C4.68 35.7157 4.112 35.5757 3.672 35.3277C3.232 35.0797 2.908 34.7557 2.7 34.3557C2.484 33.9477 2.376 33.4997 2.376 33.0117C2.376 32.5557 2.464 32.1397 2.64 31.7637C2.808 31.3877 3.044 31.0637 3.348 30.7917C3.644 30.5197 3.992 30.3117 4.392 30.1677C4.784 30.0237 5.208 29.9517 5.664 29.9517H5.88C6.336 29.9517 6.764 30.0277 7.164 30.1797C7.564 30.3237 7.92 30.5357 8.232 30.8157C8.536 31.0957 8.776 31.4317 8.952 31.8237C9.128 32.2077 9.216 32.6357 9.216 33.1077ZM8.208 33.2397C8.208 32.8077 8.104 32.4317 7.896 32.1117C7.688 31.7917 7.404 31.5437 7.044 31.3677C6.676 31.1917 6.252 31.1037 5.772 31.1037C5.292 31.1037 4.872 31.1957 4.512 31.3797C4.152 31.5557 3.876 31.8037 3.684 32.1237C3.484 32.4437 3.384 32.8157 3.384 33.2397C3.384 33.6237 3.472 33.9797 3.648 34.3077C3.816 34.6357 4.064 34.8997 4.392 35.0997C4.712 35.2917 5.1 35.3877 5.556 35.3877H6.108C6.548 35.3877 6.924 35.2877 7.236 35.0877C7.548 34.8877 7.788 34.6237 7.956 34.2957C8.124 33.9677 8.208 33.6157 8.208 33.2397ZM9.216 25.4943C9.216 26.0543 9.12 26.5383 8.928 26.9463C8.736 27.3543 8.484 27.6863 8.172 27.9423C7.852 28.1983 7.496 28.3903 7.104 28.5183C6.712 28.6383 6.312 28.6983 5.904 28.6983H5.688C5.272 28.6983 4.868 28.6383 4.476 28.5183C4.084 28.3903 3.732 28.1983 3.42 27.9423C3.1 27.6863 2.848 27.3623 2.664 26.9703C2.472 26.5703 2.376 26.1023 2.376 25.5663C2.376 24.8703 2.528 24.2983 2.832 23.8503C3.128 23.3943 3.512 23.0583 3.984 22.8423C4.456 22.6183 4.96 22.5063 5.496 22.5063H6.012L6.012 28.1943H5.148L5.148 23.3463L5.616 23.6103C5.16 23.6103 4.768 23.6823 4.44 23.8263C4.104 23.9703 3.844 24.1863 3.66 24.4743C3.476 24.7623 3.384 25.1263 3.384 25.5663C3.384 26.0223 3.488 26.4023 3.696 26.7063C3.904 27.0023 4.188 27.2263 4.548 27.3783C4.908 27.5223 5.324 27.5943 5.796 27.5943C6.252 27.5943 6.664 27.5223 7.032 27.3783C7.392 27.2263 7.68 26.9943 7.896 26.6823C8.104 26.3703 8.208 25.9743 8.208 25.4943C8.208 24.9903 8.096 24.5823 7.872 24.2703C7.648 23.9503 7.388 23.7583 7.092 23.6943V22.6143C7.532 22.7023 7.912 22.8783 8.232 23.1423C8.552 23.4063 8.796 23.7383 8.964 24.1383C9.132 24.5383 9.216 24.9903 9.216 25.4943ZM9 20.8706H2.592V19.9586H5.232V20.0066C4.296 20.0066 3.612 19.8026 3.18 19.3946C2.74 18.9786 2.52 18.3586 2.52 17.5346V17.3186H3.552V17.7266C3.552 18.3666 3.724 18.8586 4.068 19.2026C4.404 19.5466 4.892 19.7186 5.532 19.7186H9V20.8706ZM9 13.4102H7.56C7.208 13.4102 6.908 13.3622 6.66 13.2662C6.412 13.1622 6.188 12.9862 5.988 12.7382C5.78 12.4902 5.58 12.1542 5.388 11.7302L4.632 10.0862C4.448 9.68625 4.212 9.37025 3.924 9.13825C3.628 8.90625 3.248 8.79025 2.784 8.79025C2.224 8.79025 1.788 8.94625 1.476 9.25825C1.164 9.57025 1.008 10.0102 1.008 10.5782C1.008 11.1382 1.164 11.5782 1.476 11.8982C1.788 12.2182 2.224 12.3782 2.784 12.3782V13.5062C2.28 13.5062 1.816 13.4022 1.392 13.1942C0.968001 12.9782 0.632 12.6542 0.384 12.2222C0.128 11.7902 0 11.2422 0 10.5782C0 9.91425 0.128 9.37025 0.384 8.94625C0.632 8.51425 0.960001 8.19425 1.368 7.98625C1.776 7.77025 2.22 7.66225 2.7 7.66225H2.868C3.5 7.66225 4.032 7.84625 4.464 8.21425C4.896 8.57425 5.252 9.06225 5.532 9.67825L6.288 11.3222C6.456 11.6902 6.624 11.9382 6.792 12.0662C6.96 12.1942 7.184 12.2582 7.464 12.2582H8.568L8.016 12.5702L8.016 7.55425H9L9 13.4102ZM9 5.99228H7.56C7.208 5.99228 6.908 5.94428 6.66 5.84828C6.412 5.74428 6.188 5.56828 5.988 5.32028C5.78 5.07228 5.58 4.73628 5.388 4.31228L4.632 2.66828C4.448 2.26828 4.212 1.95228 3.924 1.72028C3.628 1.48828 3.248 1.37228 2.784 1.37228C2.224 1.37228 1.788 1.52828 1.476 1.84028C1.164 2.15228 1.008 2.59228 1.008 3.16028C1.008 3.72028 1.164 4.16028 1.476 4.48028C1.788 4.80028 2.224 4.96028 2.784 4.96028V6.08828C2.28 6.08828 1.816 5.98428 1.392 5.77628C0.968001 5.56028 0.632 5.23628 0.384 4.80428C0.128 4.37228 0 3.82428 0 3.16028C0 2.49628 0.128 1.95228 0.384 1.52828C0.632 1.09628 0.960001 0.776276 1.368 0.568277C1.776 0.352276 2.22 0.244276 2.7 0.244276H2.868C3.5 0.244276 4.032 0.428276 4.464 0.796277C4.896 1.15628 5.252 1.64428 5.532 2.26028L6.288 3.90428C6.456 4.27228 6.624 4.52028 6.792 4.64828C6.96 4.77628 7.184 4.84028 7.464 4.84028H8.568L8.016 5.15228V0.136276H9V5.99228Z" fill="#DEDEDE"/>
</svg>
