<svg width="10" height="80" viewBox="0 0 10 80" fill="none" xmlns="http://www.w3.org/2000/svg">
<path opacity="0.7" d="M9.048 78.3857H7.968V76.2017C7.968 75.6737 7.884 75.2057 7.716 74.7977C7.54 74.3817 7.3 74.0297 6.996 73.7417C6.692 73.4457 6.336 73.2217 5.928 73.0697C5.52 72.9177 5.08 72.8417 4.608 72.8417C4.112 72.8417 3.664 72.9177 3.264 73.0697C2.856 73.2217 2.504 73.4457 2.208 73.7417C1.904 74.0297 1.672 74.3817 1.512 74.7977C1.352 75.2057 1.272 75.6737 1.272 76.2017L1.272 78.3857H0.192V76.3217C0.192 75.5297 0.316001 74.8417 0.564001 74.2577C0.804001 73.6737 1.132 73.1897 1.548 72.8057C1.956 72.4137 2.416 72.1217 2.928 71.9297C3.432 71.7377 3.948 71.6417 4.476 71.6417H4.74C5.252 71.6417 5.764 71.7377 6.276 71.9297C6.788 72.1217 7.252 72.4137 7.668 72.8057C8.084 73.1897 8.42 73.6737 8.676 74.2577C8.924 74.8417 9.048 75.5297 9.048 76.3217V78.3857ZM9.048 79.3217H0.192L0.192 78.1457H9.048V79.3217ZM9.216 67.2736C9.216 67.8336 9.12 68.3176 8.928 68.7256C8.736 69.1336 8.484 69.4656 8.172 69.7216C7.852 69.9776 7.496 70.1696 7.104 70.2976C6.712 70.4176 6.312 70.4776 5.904 70.4776H5.688C5.272 70.4776 4.868 70.4176 4.476 70.2976C4.084 70.1696 3.732 69.9776 3.42 69.7216C3.1 69.4656 2.848 69.1416 2.664 68.7496C2.472 68.3496 2.376 67.8816 2.376 67.3456C2.376 66.6496 2.528 66.0776 2.832 65.6296C3.128 65.1736 3.512 64.8376 3.984 64.6216C4.456 64.3976 4.96 64.2856 5.496 64.2856H6.012V69.9736H5.148V65.1256L5.616 65.3896C5.16 65.3896 4.768 65.4616 4.44 65.6056C4.104 65.7496 3.844 65.9656 3.66 66.2536C3.476 66.5416 3.384 66.9056 3.384 67.3456C3.384 67.8016 3.488 68.1816 3.696 68.4856C3.904 68.7816 4.188 69.0056 4.548 69.1576C4.908 69.3016 5.324 69.3736 5.796 69.3736C6.252 69.3736 6.664 69.3016 7.032 69.1576C7.392 69.0056 7.68 68.7736 7.896 68.4616C8.104 68.1496 8.208 67.7536 8.208 67.2736C8.208 66.7696 8.096 66.3616 7.872 66.0496C7.648 65.7296 7.388 65.5376 7.092 65.4736V64.3936C7.532 64.4816 7.912 64.6576 8.232 64.9216C8.552 65.1856 8.796 65.5176 8.964 65.9176C9.132 66.3176 9.216 66.7696 9.216 67.2736ZM9.216 59.9019C9.216 60.4539 9.12 60.9339 8.928 61.3419C8.736 61.7419 8.48 62.0739 8.16 62.3379C7.832 62.6019 7.472 62.8019 7.08 62.9379C6.688 63.0659 6.296 63.1299 5.904 63.1299H5.688C5.28 63.1299 4.88 63.0659 4.488 62.9379C4.096 62.8019 3.744 62.6019 3.432 62.3379C3.112 62.0659 2.856 61.7299 2.664 61.3299C2.472 60.9299 2.376 60.4619 2.376 59.9259C2.376 59.3899 2.476 58.9099 2.676 58.4859C2.876 58.0539 3.16 57.7099 3.528 57.4539C3.888 57.1899 4.316 57.0419 4.812 57.0099V58.1139C4.412 58.1699 4.08 58.3539 3.816 58.6659C3.544 58.9779 3.408 59.3979 3.408 59.9259C3.408 60.3819 3.512 60.7619 3.72 61.0659C3.928 61.3699 4.212 61.5979 4.572 61.7499C4.932 61.9019 5.34 61.9779 5.796 61.9779C6.236 61.9779 6.64 61.9019 7.008 61.7499C7.368 61.5979 7.656 61.3699 7.872 61.0659C8.08 60.7539 8.184 60.3659 8.184 59.9019C8.184 59.5419 8.12 59.2299 7.992 58.9659C7.864 58.7019 7.692 58.4899 7.476 58.3299C7.26 58.1699 7.016 58.0739 6.744 58.0419V56.9379C7.248 56.9619 7.684 57.1099 8.052 57.3819C8.42 57.6459 8.708 57.9979 8.916 58.4379C9.116 58.8699 9.216 59.3579 9.216 59.9019ZM9.216 52.6486C9.216 53.2086 9.12 53.6926 8.928 54.1006C8.736 54.5086 8.484 54.8406 8.172 55.0966C7.852 55.3526 7.496 55.5446 7.104 55.6726C6.712 55.7926 6.312 55.8526 5.904 55.8526H5.688C5.272 55.8526 4.868 55.7926 4.476 55.6726C4.084 55.5446 3.732 55.3526 3.42 55.0966C3.1 54.8406 2.848 54.5166 2.664 54.1246C2.472 53.7246 2.376 53.2566 2.376 52.7206C2.376 52.0246 2.528 51.4526 2.832 51.0046C3.128 50.5486 3.512 50.2126 3.984 49.9966C4.456 49.7726 4.96 49.6606 5.496 49.6606H6.012V55.3486H5.148V50.5006L5.616 50.7646C5.16 50.7646 4.768 50.8366 4.44 50.9806C4.104 51.1246 3.844 51.3406 3.66 51.6286C3.476 51.9166 3.384 52.2806 3.384 52.7206C3.384 53.1766 3.488 53.5566 3.696 53.8606C3.904 54.1566 4.188 54.3806 4.548 54.5326C4.908 54.6766 5.324 54.7486 5.796 54.7486C6.252 54.7486 6.664 54.6766 7.032 54.5326C7.392 54.3806 7.68 54.1486 7.896 53.8366C8.104 53.5246 8.208 53.1286 8.208 52.6486C8.208 52.1446 8.096 51.7366 7.872 51.4246C7.648 51.1046 7.388 50.9126 7.092 50.8486V49.7686C7.532 49.8566 7.912 50.0326 8.232 50.2966C8.552 50.5606 8.796 50.8926 8.964 51.2926C9.132 51.6926 9.216 52.1446 9.216 52.6486ZM9 48.0249H2.592V47.1129H5.34V47.2569C4.716 47.2569 4.188 47.1769 3.756 47.0169C3.316 46.8489 2.98 46.6009 2.748 46.2729C2.516 45.9449 2.4 45.5289 2.4 45.0249V44.9769C2.4 44.4729 2.516 44.0569 2.748 43.7289C2.98 43.3929 3.316 43.1449 3.756 42.9849C4.188 42.8249 4.716 42.7449 5.34 42.7449V43.0809C4.716 43.0809 4.188 42.9969 3.756 42.8289C3.316 42.6609 2.98 42.4129 2.748 42.0849C2.516 41.7489 2.4 41.3289 2.4 40.8249V40.7769C2.4 40.2729 2.516 39.8529 2.748 39.5169C2.98 39.1809 3.316 38.9329 3.756 38.7729C4.188 38.6049 4.716 38.5209 5.34 38.5209H9L9 39.6729H5.088C4.568 39.6729 4.168 39.8009 3.888 40.0569C3.6 40.3129 3.456 40.6689 3.456 41.1249C3.456 41.5969 3.608 41.9769 3.912 42.2649C4.208 42.5529 4.624 42.6969 5.16 42.6969H9V43.8489H5.088C4.568 43.8489 4.168 43.9769 3.888 44.2329C3.6 44.4889 3.456 44.8449 3.456 45.3009C3.456 45.7729 3.608 46.1529 3.912 46.4409C4.208 46.7289 4.624 46.8729 5.16 46.8729H9V48.0249ZM9.216 33.0276C9.216 33.5556 9.1 34.0276 8.868 34.4436C8.636 34.8516 8.3 35.1756 7.86 35.4156C7.412 35.6556 6.876 35.7876 6.252 35.8116V35.4996H9V36.4116H0.240001V35.2596H4.5L5.376 35.6676C4.68 35.6356 4.112 35.4956 3.672 35.2476C3.232 34.9996 2.908 34.6756 2.7 34.2756C2.484 33.8676 2.376 33.4196 2.376 32.9316C2.376 32.4756 2.464 32.0596 2.64 31.6836C2.808 31.3076 3.044 30.9836 3.348 30.7116C3.644 30.4396 3.992 30.2316 4.392 30.0876C4.784 29.9436 5.208 29.8716 5.664 29.8716H5.88C6.336 29.8716 6.764 29.9476 7.164 30.0996C7.564 30.2436 7.92 30.4556 8.232 30.7356C8.536 31.0156 8.776 31.3516 8.952 31.7436C9.128 32.1276 9.216 32.5556 9.216 33.0276ZM8.208 33.1596C8.208 32.7276 8.104 32.3516 7.896 32.0316C7.688 31.7116 7.404 31.4636 7.044 31.2876C6.676 31.1116 6.252 31.0236 5.772 31.0236C5.292 31.0236 4.872 31.1156 4.512 31.2996C4.152 31.4756 3.876 31.7236 3.684 32.0436C3.484 32.3636 3.384 32.7356 3.384 33.1596C3.384 33.5436 3.472 33.8996 3.648 34.2276C3.816 34.5556 4.064 34.8196 4.392 35.0196C4.712 35.2116 5.1 35.3076 5.556 35.3076H6.108C6.548 35.3076 6.924 35.2076 7.236 35.0076C7.548 34.8076 7.788 34.5436 7.956 34.2156C8.124 33.8876 8.208 33.5356 8.208 33.1596ZM9.216 25.4142C9.216 25.9742 9.12 26.4582 8.928 26.8662C8.736 27.2742 8.484 27.6062 8.172 27.8622C7.852 28.1182 7.496 28.3102 7.104 28.4382C6.712 28.5582 6.312 28.6182 5.904 28.6182H5.688C5.272 28.6182 4.868 28.5582 4.476 28.4382C4.084 28.3102 3.732 28.1182 3.42 27.8622C3.1 27.6062 2.848 27.2822 2.664 26.8902C2.472 26.4902 2.376 26.0222 2.376 25.4862C2.376 24.7902 2.528 24.2182 2.832 23.7702C3.128 23.3142 3.512 22.9782 3.984 22.7622C4.456 22.5382 4.96 22.4262 5.496 22.4262H6.012L6.012 28.1142H5.148V23.2662L5.616 23.5302C5.16 23.5302 4.768 23.6022 4.44 23.7462C4.104 23.8902 3.844 24.1062 3.66 24.3942C3.476 24.6822 3.384 25.0462 3.384 25.4862C3.384 25.9422 3.488 26.3222 3.696 26.6262C3.904 26.9222 4.188 27.1462 4.548 27.2982C4.908 27.4422 5.324 27.5142 5.796 27.5142C6.252 27.5142 6.664 27.4422 7.032 27.2982C7.392 27.1462 7.68 26.9142 7.896 26.6022C8.104 26.2902 8.208 25.8942 8.208 25.4142C8.208 24.9102 8.096 24.5022 7.872 24.1902C7.648 23.8702 7.388 23.6782 7.092 23.6142L7.092 22.5342C7.532 22.6222 7.912 22.7982 8.232 23.0622C8.552 23.3262 8.796 23.6582 8.964 24.0582C9.132 24.4582 9.216 24.9102 9.216 25.4142ZM9 20.7905H2.592V19.8785H5.232V19.9265C4.296 19.9265 3.612 19.7225 3.18 19.3145C2.74 18.8985 2.52 18.2785 2.52 17.4545V17.2385H3.552V17.6465C3.552 18.2865 3.724 18.7785 4.068 19.1225C4.404 19.4665 4.892 19.6385 5.532 19.6385H9V20.7905ZM9 13.3302H7.56C7.208 13.3302 6.908 13.2822 6.66 13.1862C6.412 13.0822 6.188 12.9062 5.988 12.6582C5.78 12.4102 5.58 12.0742 5.388 11.6502L4.632 10.0062C4.448 9.60617 4.212 9.29017 3.924 9.05817C3.628 8.82617 3.248 8.71017 2.784 8.71017C2.224 8.71017 1.788 8.86617 1.476 9.17817C1.164 9.49017 1.008 9.93017 1.008 10.4982C1.008 11.0582 1.164 11.4982 1.476 11.8182C1.788 12.1382 2.224 12.2982 2.784 12.2982V13.4262C2.28 13.4262 1.816 13.3222 1.392 13.1142C0.968001 12.8982 0.632 12.5742 0.384 12.1422C0.128 11.7102 0 11.1622 0 10.4982C0 9.83417 0.128 9.29017 0.384 8.86617C0.632 8.43417 0.960001 8.11417 1.368 7.90617C1.776 7.69017 2.22 7.58217 2.7 7.58217H2.868C3.5 7.58217 4.032 7.76617 4.464 8.13417C4.896 8.49417 5.252 8.98217 5.532 9.59817L6.288 11.2422C6.456 11.6102 6.624 11.8582 6.792 11.9862C6.96 12.1142 7.184 12.1782 7.464 12.1782H8.568L8.016 12.4902V7.47417H9V13.3302ZM9 5.9122H7.56C7.208 5.9122 6.908 5.8642 6.66 5.7682C6.412 5.6642 6.188 5.4882 5.988 5.2402C5.78 4.9922 5.58 4.6562 5.388 4.2322L4.632 2.5882C4.448 2.1882 4.212 1.8722 3.924 1.6402C3.628 1.4082 3.248 1.2922 2.784 1.2922C2.224 1.2922 1.788 1.4482 1.476 1.7602C1.164 2.0722 1.008 2.5122 1.008 3.0802C1.008 3.6402 1.164 4.0802 1.476 4.4002C1.788 4.7202 2.224 4.8802 2.784 4.8802V6.0082C2.28 6.0082 1.816 5.9042 1.392 5.6962C0.968001 5.4802 0.632 5.1562 0.384 4.7242C0.128 4.2922 0 3.7442 0 3.0802C0 2.4162 0.128 1.8722 0.384 1.4482C0.632 1.0162 0.960001 0.696199 1.368 0.4882C1.776 0.272199 2.22 0.164199 2.7 0.164199H2.868C3.5 0.164199 4.032 0.348199 4.464 0.7162C4.896 1.0762 5.252 1.5642 5.532 2.1802L6.288 3.8242C6.456 4.1922 6.624 4.4402 6.792 4.5682C6.96 4.6962 7.184 4.7602 7.464 4.7602H8.568L8.016 5.0722V0.0561993H9V5.9122Z" fill="#DEDEDE"/>
</svg>
