<?xml version="1.0" encoding="utf-8"?>
<!-- Generator: Adobe Illustrator 19.0.0, SVG Export Plug-In . SVG Version: 6.00 Build 0)  -->
<svg version="1.1" id="Layer_1" xmlns="http://www.w3.org/2000/svg" xmlns:xlink="http://www.w3.org/1999/xlink" x="0px" y="0px"
	 viewBox="-295 389 21 16" style="enable-background:new -295 389 21 16;" xml:space="preserve">
<style type="text/css">
	.st0{fill:#FFFFFF;}
</style>
<path class="st0" d="M-277.4,390.6C-277.4,390.6-277.4,390.6-277.4,390.6c-1.3-0.6-2.7-1.1-4.2-1.3c0,0-0.1,0-0.1,0
	c-0.2,0.3-0.4,0.7-0.5,1.1c-1.6-0.2-3.1-0.2-4.6,0c-0.1-0.3-0.3-0.8-0.5-1.1c0,0,0,0-0.1,0c-1.5,0.3-2.8,0.7-4.1,1.3c0,0,0,0,0,0
	c-2.6,4-3.4,7.9-3,11.8c0,0,0,0,0,0c1.7,1.3,3.4,2.1,5.1,2.6c0,0,0.1,0,0.1,0c0.4-0.5,0.7-1.1,1-1.7c0,0,0-0.1,0-0.1
	c-0.6-0.2-1.1-0.5-1.6-0.8c0,0,0-0.1,0-0.1c0.1-0.1,0.2-0.2,0.3-0.3c0,0,0,0,0.1,0c3.3,1.5,6.9,1.5,10.2,0c0,0,0,0,0.1,0
	c0.1,0.1,0.2,0.2,0.3,0.3c0,0,0,0.1,0,0.1c-0.5,0.3-1,0.6-1.6,0.8c0,0-0.1,0.1,0,0.1c0.3,0.6,0.7,1.2,1,1.7c0,0,0,0,0.1,0
	c1.7-0.5,3.3-1.3,5.1-2.6c0,0,0,0,0,0C-274,397.9-275.1,394-277.4,390.6z M-287.9,400c-1,0-1.8-0.9-1.8-2.1c0-1.1,0.8-2.1,1.8-2.1
	c1,0,1.8,0.9,1.8,2.1C-286,399.1-286.9,400-287.9,400z M-281.1,400c-1,0-1.8-0.9-1.8-2.1c0-1.1,0.8-2.1,1.8-2.1c1,0,1.8,0.9,1.8,2.1
	C-279.3,399.1-280.1,400-281.1,400z"/>
</svg>
