<svg width="31" height="31" viewBox="0 0 31 31" fill="none" xmlns="http://www.w3.org/2000/svg">
<path d="M2.58346 0H28.4165C29.8371 0 31 1.16289 31 2.58346V28.4165C31 29.8371 29.8371 31 28.4165 31H2.58346C1.16289 31 0 29.8371 0 28.4165V2.58346C0 1.16289 1.16289 0 2.58346 0ZM10.3335 19.375H22.7153L19.375 22.7153L21.2017 24.5415L26.7468 18.9964C27.2513 18.4919 27.2513 17.6746 26.7468 17.1697L21.2017 11.625L19.375 13.4517L22.7153 16.7915H10.3335C8.19291 16.7915 6.45846 15.0571 6.45846 12.9165C6.45846 10.7772 8.19291 9.04154 10.3335 9.04154H16.7915V6.45846H10.3335C6.76614 6.45846 3.875 9.3496 3.875 12.9165C3.875 16.4839 6.76614 19.375 10.3335 19.375Z" fill="black"/>
</svg>
